<svg width="443" height="82" viewBox="0 0 443 82" fill="none" xmlns="http://www.w3.org/2000/svg">
<path d="M15.5358 43.6791C15.5358 50.1664 18.1129 56.3879 22.7 60.975C27.2872 65.5622 33.5087 68.1392 39.9959 68.1392C46.4832 68.1392 52.7047 65.5622 57.2919 60.975C61.879 56.3879 64.4561 50.1664 64.4561 43.6791C64.4561 43.6791 61.275 47.1757 56.2744 47.7275C46.2731 48.831 34.5285 40.1466 24.5272 41.2501C19.5265 41.8019 15.5358 43.6791 15.5358 43.6791Z" fill="#61D0FF"/>
<path d="M64.4559 43.6791C64.4559 50.1663 61.8788 56.3878 57.2917 60.975C52.7045 65.5621 46.483 68.1392 39.9958 68.1392C33.5085 68.1392 27.287 65.5621 22.6998 60.975C18.1127 56.3878 15.5356 50.1663 15.5356 43.6791C15.5356 43.6791 18.7167 47.1757 23.7173 47.7274C33.7186 48.831 42.1638 38.0112 52.2258 38.0114C63.0024 38.0115 64.4559 43.6791 64.4559 43.6791Z" fill="url(#paint0_linear_11_56)"/>
<path d="M24.0182 11.5583C23.2143 9.98041 21.2749 9.34178 19.7696 10.2745C13.3889 14.2281 8.28519 19.9803 5.12302 26.8395C1.51191 34.6726 0.643142 43.4934 2.6567 51.8805C4.67027 60.2676 9.44889 67.7325 16.2226 73.0725C22.9962 78.4124 31.3705 81.3163 39.9959 81.3163C48.6213 81.3163 56.9955 78.4124 63.7692 73.0725C70.5429 67.7325 75.3215 60.2676 77.3351 51.8805C79.3486 43.4934 78.4799 34.6726 74.8688 26.8395C71.7066 19.9802 66.6028 14.2281 60.2222 10.2745C58.7169 9.34178 56.7775 9.9804 55.9735 11.5582V11.5582C55.1696 13.1361 55.8078 15.0537 57.2972 16.0115C62.401 19.2935 66.4861 23.9737 69.045 29.5243C72.053 36.0493 72.7767 43.397 71.0994 50.3834C69.4221 57.3699 65.4415 63.5882 59.7991 68.0364C54.1566 72.4845 47.1809 74.9035 39.9959 74.9035C32.8109 74.9035 25.8352 72.4845 20.1927 68.0364C14.5502 63.5882 10.5696 57.3699 8.89235 50.3834C7.21505 43.397 7.93873 36.0493 10.9468 29.5243C13.5056 23.9738 17.5907 19.2935 22.6945 16.0115C24.184 15.0537 24.8222 13.1361 24.0182 11.5583V11.5583Z" fill="url(#paint1_linear_11_56)"/>
<rect x="35.8462" y="0.923218" width="8.2992" height="24.8976" rx="4.1496" fill="#61D0FF"/>
<path d="M133.48 24.3L129.28 28.38C128.4 27.18 127.22 26.22 125.74 25.5C124.3 24.78 122.72 24.42 121 24.42C118.84 24.42 116.92 25.02 115.24 26.22C113.56 27.38 112.72 29.08 112.72 31.32C112.72 32.44 112.92 33.4 113.32 34.2C113.72 34.96 114.4 35.64 115.36 36.24C116.32 36.8 117.18 37.24 117.94 37.56C118.7 37.84 119.86 38.24 121.42 38.76C122.98 39.24 124.16 39.64 124.96 39.96C125.8 40.24 126.88 40.74 128.2 41.46C129.52 42.18 130.52 42.94 131.2 43.74C131.92 44.5 132.54 45.52 133.06 46.8C133.62 48.08 133.9 49.54 133.9 51.18C133.9 55.34 132.46 58.54 129.58 60.78C126.74 62.98 123.28 64.08 119.2 64.08C116.44 64.08 113.8 63.56 111.28 62.52C108.8 61.44 106.78 59.9 105.22 57.9L109.84 54C110.84 55.48 112.18 56.68 113.86 57.6C115.58 58.52 117.4 58.98 119.32 58.98C121.56 58.98 123.54 58.36 125.26 57.12C126.98 55.84 127.84 54.04 127.84 51.72C127.84 50.72 127.64 49.82 127.24 49.02C126.84 48.22 126.4 47.58 125.92 47.1C125.44 46.62 124.66 46.14 123.58 45.66C122.5 45.14 121.62 44.76 120.94 44.52C120.3 44.28 119.24 43.94 117.76 43.5C116.16 42.98 114.8 42.48 113.68 42C112.6 41.48 111.46 40.78 110.26 39.9C109.1 38.98 108.22 37.82 107.62 36.42C107.02 35.02 106.72 33.4 106.72 31.56C106.72 28.88 107.46 26.6 108.94 24.72C110.42 22.8 112.22 21.44 114.34 20.64C116.5 19.84 118.82 19.44 121.3 19.44C123.74 19.44 126.04 19.88 128.2 20.76C130.4 21.64 132.16 22.82 133.48 24.3Z" fill="white"/>
<path d="M156.863 25.74V63H150.923V25.74H137.303V20.52H170.483V25.74H156.863Z" fill="white"/>
<path d="M179.169 52.56L174.909 63H168.309L186.729 20.52H192.129L210.369 63H203.649L199.329 52.56H179.169ZM189.249 27.42L181.269 47.34H197.169L189.249 27.42Z" fill="white"/>
<path d="M222.365 44.1V63H216.425V20.52H230.045C234.525 20.52 238.165 21.46 240.965 23.34C243.765 25.22 245.165 28.2 245.165 32.28C245.165 35.32 244.225 37.82 242.345 39.78C240.465 41.74 237.965 42.98 234.845 43.5L246.725 63H239.525L228.725 44.1H222.365ZM222.365 25.56V39.12H229.205C235.845 39.12 239.165 36.84 239.165 32.28C239.165 27.8 235.985 25.56 229.625 25.56H222.365Z" fill="white"/>
<path d="M268.057 25.74V63H262.117V25.74H248.497V20.52H281.677V25.74H268.057Z" fill="white"/>
<path d="M289.797 20.52L299.157 54.36H299.277L309.237 20.52H315.777L325.677 54.36H325.797L335.157 20.52H341.457L328.977 63H322.797L312.477 28.86H312.357L302.037 63H295.857L283.377 20.52H289.797Z" fill="white"/>
<path d="M353.774 20.52V63H347.834V20.52H353.774Z" fill="white"/>
<path d="M372.463 20.52L394.663 54.48H394.783V20.52H400.723V63H393.223L370.783 28.32H370.663V63H364.723V20.52H372.463Z" fill="white"/>
<path d="M417.611 43.56V57.72H439.811V63H411.671V20.52H438.911V25.74H417.611V38.46H437.651V43.56H417.611Z" fill="white"/>
<defs>
<linearGradient id="paint0_linear_11_56" x1="46.9091" y1="68.1393" x2="42.5253" y2="36.4737" gradientUnits="userSpaceOnUse">
<stop stop-color="#61D0FF"/>
<stop offset="1" stop-color="#0046D9"/>
</linearGradient>
<linearGradient id="paint1_linear_11_56" x1="50.8492" y1="4.51557" x2="33.2455" y2="82.826" gradientUnits="userSpaceOnUse">
<stop stop-color="#61D0FF"/>
<stop offset="1" stop-color="#0046D9"/>
</linearGradient>
</defs>
</svg>
