<?xml version="1.0" encoding="UTF-8" standalone="no"?>
<!-- Created with Inkscape (http://www.inkscape.org/) -->
<svg xmlns:svg="http://www.w3.org/2000/svg" xmlns="http://www.w3.org/2000/svg" xmlns:xlink="http://www.w3.org/1999/xlink" version="1.0" width="1000" height="320" id="svg2619">
  <title id="title3079">Linux Mint Official Logo</title>
  <defs id="defs2621">
    <linearGradient id="linearGradient3431">
      <stop id="stop3433" style="stop-color:#3d3d3d;stop-opacity:1" offset="0"/>
      <stop id="stop3435" style="stop-color:#000000;stop-opacity:0.11400651" offset="1"/>
    </linearGradient>
    <linearGradient id="linearGradient3312">
      <stop id="stop3314" style="stop-color:#c7f994;stop-opacity:1" offset="0"/>
      <stop id="stop3316" style="stop-color:#87cf3e;stop-opacity:1" offset="1"/>
    </linearGradient>
    <filter color-interpolation-filters="sRGB" id="filter3291">
      <feGaussianBlur id="feGaussianBlur3293" stdDeviation="0.400625"/>
    </filter>
    <filter color-interpolation-filters="sRGB" id="filter3546">
      <feGaussianBlur id="feGaussianBlur3548" stdDeviation="0.15992437"/>
    </filter>
    <linearGradient x1="70.491508" y1="416.38858" x2="113.64215" y2="375.87961" id="linearGradient4136" xlink:href="#linearGradient3431" gradientUnits="userSpaceOnUse" gradientTransform="translate(0,80)" spreadMethod="pad"/>
    <filter color-interpolation-filters="sRGB" id="filter3469">
      <feGaussianBlur id="feGaussianBlur3471" stdDeviation="2.7119931"/>
    </filter>
    <linearGradient x1="61.42857" y1="362.14285" x2="116.42857" y2="408.57144" id="linearGradient3538" xlink:href="#linearGradient3312" gradientUnits="userSpaceOnUse" gradientTransform="matrix(1.091261,0,0,1.091261,196.35071,-38.224469)"/>
    <filter color-interpolation-filters="sRGB" id="filter3573">
      <feGaussianBlur id="feGaussianBlur3575" stdDeviation="1.6284922"/>
    </filter>
    <filter color-interpolation-filters="sRGB" id="filter3965">
      <feGaussianBlur id="feGaussianBlur3967" stdDeviation="2.4743396"/>
    </filter>
    <filter color-interpolation-filters="sRGB" id="filter4006">
      <feGaussianBlur id="feGaussianBlur4008" stdDeviation="1.6495597"/>
    </filter>
    <filter color-interpolation-filters="sRGB" id="filter4135">
      <feGaussianBlur id="feGaussianBlur4137" stdDeviation="0.74662361"/>
    </filter>
  </defs>
  <g transform="translate(-18.768259,-2.1229383)" id="layer1">
    <text x="342.63538" y="980.05353" transform="scale(1.1483401,0.8708222)" id="text2972" xml:space="preserve" style="font-size:19.75634766px;font-style:normal;font-variant:normal;font-weight:normal;font-stretch:normal;text-align:start;line-height:100%;writing-mode:lr-tb;text-anchor:start;fill:#ffffff;fill-opacity:1;stroke:none;font-family:Skia"><tspan x="342.63538" y="980.05353" id="tspan2976">freedom for the masses</tspan></text>
    <g transform="matrix(2.4596884,0,0,2.4596884,-554.05916,-808.18017)" id="g2720">
      <g transform="matrix(1.0030728,0,0,1.0030728,8.3615914,245.11391)" id="g3633" style="opacity:0.51327682;fill:#000000;filter:url(#filter3469)">
        <g transform="translate(-10,-356)" id="g3635" style="fill:#000000">
          <g transform="translate(126.06579,-105.54595)" id="g3639" style="fill:#000000"/>
        </g>
        <polygon points="64.168,23.48 66.376,23.48 66.376,40.96 64.168,40.96 64.168,23.48 " transform="matrix(2.3979656,0,0,2.3979656,246.72565,83.158)" id="polygon3645" style="fill:#000000;fill-rule:evenodd;display:inline"/>
        <path d="m 432.59676,181.37867 -5.29471,0 0,-31.7107 c 0,-1.43877 -0.51796,-2.68572 -1.55389,-3.72164 -1.03591,-1.03592 -2.28286,-1.55148 -3.72163,-1.55148 -1.45797,0 -2.70491,0.51795 -3.74083,1.55148 -1.03592,1.03592 -1.55389,2.28287 -1.55389,3.72164 l 0,31.7107 -5.27552,0 0,-31.7107 c 0,-2.89674 1.01674,-5.39063 3.08858,-7.46006 2.07184,-2.07185 4.56573,-3.11017 7.48166,-3.11017 2.89674,0 5.39062,1.03832 7.46246,3.11017 2.07184,2.06943 3.10777,4.56332 3.10777,7.46006 l 0,31.7107 0,0 z" id="path3647" style="fill:#000000;fill-rule:evenodd;display:inline"/>
        <path d="m 457.68907,170.80604 c 0,2.91592 -1.03592,5.39063 -3.08858,7.46247 -2.07184,2.06945 -4.56573,3.10776 -7.48165,3.10776 -2.89674,0 -5.39063,-1.03831 -7.46247,-3.10776 -2.07184,-2.07184 -3.10776,-4.54655 -3.10776,-7.46247 l 0,-31.7083 5.2947,0 0,31.7107 c 0,1.45796 0.51796,2.68572 1.55388,3.72164 1.03592,1.03832 2.28287,1.55389 3.72165,1.55389 1.45796,0 2.7049,-0.51797 3.74082,-1.55389 1.03592,-1.03592 1.55388,-2.26128 1.55388,-3.72164 l 0,-31.7107 5.27553,0 0,31.7083 0,0 z" id="path3649" style="fill:#000000;fill-rule:evenodd;display:inline"/>
        <polygon points="89.624,23.328 92.056,23.328 94.04,28.8 96.024,23.328 98.448,23.328 95.248,32.144 98.448,40.96 98.448,40.96 96.024,40.96 94.04,35.488 92.056,40.96 89.624,40.96 92.824,32.144 " transform="matrix(2.3979656,0,0,2.3979656,246.72565,83.158)" id="polygon3651" style="fill:#000000;fill-rule:evenodd;display:inline"/>
        <path d="m 403.37407,135.93243 c -1.41959,0 -2.68572,-1.09348 -2.68572,-2.57062 l 0,-0.63306 0,0 0,-7.7886 -0.80572,0 0,-2.64735 2.6916,0.0192 0.61388,0 c 1.41959,0 2.68571,1.07429 2.68571,2.55144 l 0,11.06901 -2.49975,0 0,0 0,0 z" id="path3653" style="fill:#000000;fill-rule:evenodd;display:inline"/>
        <g transform="translate(-10,-356)" id="g3655" style="fill:#000000">
          <path d="m 558.31297,537.37867 -6.8294,0 0,-59.35444 c 0,-0.40286 -0.13428,-1.03592 -0.42204,-1.86082 -0.55633,-1.59225 -1.55388,-2.80083 -3.01185,-3.62573 -1.17021,-0.63306 -2.5898,-0.94 -4.2396,-0.94 -0.0767,0 -0.21102,0.0384 -0.42204,0.0959 -0.21102,0.0768 -0.34531,0.11511 -0.42205,0.11511 -0.40285,0 -1.03591,0.24939 -1.86082,0.72898 -1.38122,0.74816 -2.3596,1.86082 -2.91592,3.31879 -0.40286,0.90163 -0.61388,1.63061 -0.61388,2.16776 l 0,59.35444 -6.82941,0 0,-59.35444 c 0,-0.0576 -0.0384,-0.36449 -0.1151,-0.92082 -0.21102,-0.84409 -0.5947,-1.66899 -1.15102,-2.49389 -1.24694,-1.72654 -2.82001,-2.74327 -4.77675,-3.01184 0.21102,0 -0.26857,0 -1.43878,0 -0.0767,0 -0.21102,0 -0.42204,0 -0.21102,0 -0.34531,0 -0.40286,0 -0.3453,0 -0.97837,0.24939 -1.88,0.72898 -2.01429,1.03592 -3.14613,2.66654 -3.43389,4.89185 -0.0576,0.0767 -0.0959,0.17265 -0.0959,0.30694 l 0,59.85322 -7.05961,0 0,-59.54628 c 0,-1.38123 0.30694,-2.83919 0.92082,-4.35471 0.28775,-0.63306 0.67143,-1.34286 1.15102,-2.18694 0.95919,-1.72654 2.43633,-3.20368 4.41226,-4.41226 1.95674,-1.20857 4.02858,-1.88001 6.17716,-2.01429 0.53715,-0.0767 1.3045,-0.1151 2.28286,-0.0959 0.0575,-0.0192 0.23021,0.0192 0.51796,0.0959 0.26857,0.0575 0.44123,0.0959 0.51796,0.0959 0.61388,0 1.78409,0.34531 3.52981,1.03592 0.26857,0.0767 0.57551,0.21102 0.92082,0.42204 1.18939,0.69062 2.43633,1.72654 3.74083,3.10777 1.11265,-1.17021 2.07184,-2.03348 2.91592,-2.58981 2.20613,-1.45796 5.08369,-2.18694 8.59431,-2.16776 0.0767,-0.0192 0.24939,0.0192 0.51796,0.0959 0.28775,0.0575 0.46041,0.0959 0.53714,0.0959 0.61388,0 1.72654,0.30694 3.31879,0.94001 3.66409,1.45795 6.11961,3.97103 7.36655,7.57756 0.61388,1.86083 0.92081,3.31878 0.92081,4.35471 l 0,59.54628 0,0 0,0 z" id="path3657" style="fill:#000000;fill-rule:evenodd;display:inline"/>
          <polygon points="128.488,23.656 131.432,23.656 131.432,40.96 128.488,40.96 128.488,23.656 " transform="matrix(2.3979656,0,0,2.3979656,256.72565,439.158)" id="polygon3659" style="fill:#000000;fill-rule:evenodd;display:inline"/>
          <path d="m 605.81188,537.37867 -6.82941,0 0,-28.12334 c 0,-0.13429 -0.0408,-0.47959 -0.1151,-1.03592 -0.55632,-2.62817 -2.16776,-4.31634 -4.87266,-5.08369 -0.42204,-0.13429 -1.24935,-0.21102 -2.49389,-0.21102 -0.0767,0 -0.2302,0.0384 -0.46041,0.1151 -0.24939,0.0767 -0.36209,0.0959 -0.36209,0.0959 -0.34771,0 -1.01913,0.24939 -1.97593,0.72899 -1.88,0.90163 -2.97347,2.49388 -3.31878,4.77674 -0.0767,0.0767 -0.1175,0.17265 -0.1175,0.30694 l 0,28.43028 -7.05721,0 0,-41.4944 7.05721,0 c -0.0552,0.63546 -0.0552,1.17021 0,1.6498 2.37878,-1.09346 4.91343,-1.6498 7.61834,-1.6498 0.0743,0 0.26617,0.0408 0.63306,0.11751 0.3477,0.0552 0.55633,0.0935 0.61388,0.0935 1.45796,0 3.24445,0.65224 5.31389,1.97592 1.74812,1.03832 3.14853,2.41715 4.18206,4.14608 1.45795,2.28287 2.18694,4.50817 2.18694,6.63757 l 0,28.5238 -0.002,0 z" id="path3661" style="fill:#000000;fill-rule:evenodd;display:inline"/>
          <path d="m 626.35765,502.9247 -6.84859,0 0,21.38986 c 0.0767,0.19183 0.15347,0.51795 0.21102,0.92081 0.49878,2.22532 1.84404,3.74323 4.04777,4.56573 0.47959,0.13428 0.74816,0.21102 0.8249,0.21102 0.0767,0 0.0959,0.0384 0.0959,0.0959 0,0 0.0384,0 0.1151,0 0.0767,0 0.21103,0.0384 0.42205,0.1151 0.19184,0.0767 0.34771,0.0959 0.40286,0.0959 0.0767,0 0.19183,0 0.36448,0 0.17266,0 0.28776,0 0.3645,0 l 0,7.05961 c -2.84159,-0.13668 -5.37144,-0.86327 -7.57757,-2.16776 -1.66898,-0.97837 -3.05022,-2.3596 -4.14608,-4.16287 -1.45557,-2.34041 -2.18455,-4.64246 -2.18455,-6.84619 l 0,-49.07437 7.05721,0 0,20.64169 6.84859,0 0,7.15553 0.002,0 0,0 z" id="path3663" style="fill:#000000;fill-rule:evenodd;display:inline"/>
          <path d="m 567.31014,491.56793 c -1.41959,0 -2.7049,-1.09347 -2.7049,-2.57061 l 0,-0.63307 0,0 0,-7.78859 -0.78653,0 0,-2.64736 4.1245,0.0192 0.61388,0 c 1.43877,0 2.7049,1.07429 2.7049,2.55144 l 0,11.069 -3.95185,0 0,0 0,0 z" id="path3665" style="fill:#000000;fill-rule:evenodd;display:inline"/>
        </g>
        <path d="m 379.12524,108.67277 0,62 c 0,2.91592 1.02191,5.39691 3.09375,7.46875 1.94604,1.94379 4.27802,2.97534 6.96875,3.09375 l 0,0.0312 0.53125,0 5.375,0 0,-5.3125 -5.375,0 c -1.72641,0 -2.71408,-0.49039 -3.75,-1.46875 -1.03591,-0.95679 -1.5625,-2.1067 -1.5625,-3.46875 l 0,-62.34375 -5.28125,0 z" id="path3667" style="fill:#000000;fill-rule:evenodd;display:inline"/>
        <path d="m 383.875,187.15625 c -0.75965,1e-5 -1.41616,0.078 -1.96875,0.28125 -0.53543,0.19692 -0.99895,0.48081 -1.34375,0.8125 -0.38142,0.37107 -0.65338,0.77076 -0.8125,1.21875 -0.1549,0.42983 -0.21879,0.91327 -0.21875,1.4375 l 0,0.0625 -1.4375,0 -0.34375,0 0,0.34375 0,0.96875 0,0.34375 0.34375,0 1.4375,0 c -7.7e-4,1.78396 -0.02,3.42776 -0.0312,4.8125 -0.0121,1.47936 -10e-6,2.23848 0,2.34375 l 0,0.34375 0.34375,0 1.4375,0 0.34375,0 0,-0.34375 c 0,-0.10507 -0.0192,-0.9224 -0.0312,-2.46875 -0.006,-1.44534 4e-4,-3.01929 0,-4.6875 l 2.71875,0 0.375,0 0,-0.34375 0,-0.96875 0,-0.34375 -0.375,0 -2.71875,0 0,-0.0312 c 0,-0.34201 0.0366,-0.64659 0.125,-0.90625 0.0931,-0.26309 0.2294,-0.43596 0.375,-0.5625 0.22298,-0.19666 0.4727,-0.32549 0.75,-0.40625 0.27354,-0.0796 0.70222,-0.15624 1.25,-0.15625 0.0415,1e-5 0.10061,0 0.15625,0 l 0,0.0625 0.46875,-0.0625 0.15625,0 0,-0.0312 0.0625,0 -0.0625,-0.34375 0,-0.3125 -0.0312,0 -0.125,-0.78125 -0.0625,-0.28125 -0.28125,0 c -0.036,1e-5 -0.11011,1e-5 -0.21875,0 -0.10257,1e-5 -0.20279,1e-5 -0.28125,0 z m 45.34375,0 c -0.75964,1e-5 -1.41615,0.078 -1.96875,0.28125 -0.53543,0.19692 -0.99894,0.48082 -1.34375,0.8125 -0.3814,0.37107 -0.65336,0.77076 -0.8125,1.21875 -0.15489,0.42983 -0.21875,0.91329 -0.21875,1.4375 l 0,0.0625 -1.4375,0 -0.34375,0 0,0.34375 0,0.96875 0,0.34375 0.34375,0 1.4375,0 c -7.5e-4,1.78395 -0.02,3.42776 -0.0312,4.8125 -0.0121,1.47936 -0.0312,2.23882 -0.0312,2.34375 l 0,0.34375 0.375,0 1.40625,0 0.375,0 0,-0.34375 c 0,-0.10506 -0.0192,-0.9224 -0.0312,-2.46875 -0.006,-1.44534 3.9e-4,-3.01929 0,-4.6875 l 2.71875,0 0.34375,0 0,-0.34375 0,-0.96875 0,-0.34375 -0.34375,0 -2.71875,0 0,-0.0312 c 0,-0.342 0.0366,-0.64658 0.125,-0.90625 0.0931,-0.26308 0.22939,-0.43596 0.375,-0.5625 0.22299,-0.19667 0.44145,-0.3255 0.71875,-0.40625 0.27357,-0.0796 0.70222,-0.15624 1.25,-0.15625 0.0415,1e-5 0.10062,0 0.15625,0 l 0,0.0625 0.46875,-0.0625 0.1875,0 0,-0.0312 0.0625,0 -0.0625,-0.34375 0,-0.3125 -0.0625,0 -0.125,-0.78125 -0.0312,-0.28125 -0.3125,0 c -0.036,1e-5 -0.11013,1e-5 -0.21875,0 -0.10256,1e-5 -0.17155,1e-5 -0.25,0 z m 33.4375,0 0,0.34375 0.0312,3.5625 c -0.55222,0.0171 -1.12037,0.0248 -1.6875,0.125 -0.68693,0.11553 -1.29971,0.29446 -1.84375,0.53125 -0.9234,0.38879 -1.64963,0.93809 -2.15625,1.65625 -0.50618,0.71147 -0.75,1.55635 -0.75,2.46875 0,0.79263 0.23231,1.54071 0.6875,2.1875 0.45822,0.65116 1.12106,1.15393 1.96875,1.53125 0.64414,0.28622 1.32121,0.4686 2,0.5625 0.67506,0.0992 1.56846,0.15625 2.71875,0.15625 0.12036,0 0.27363,0.006 0.46875,0 0.19312,0 0.30764,-1e-5 0.34375,0 l 0.34375,0 0,-0.0312 0,-0.34375 c -8.5e-4,-0.0969 9.7e-4,-0.24164 0,-0.34375 -0.006,-0.62207 -0.0209,-1.2783 -0.0312,-2.09375 -0.006,-0.95366 -2e-5,-2.01024 0,-3.1875 -10e-6,-1.48953 -0.0121,-2.9871 0,-4.4375 0.0121,-1.45146 0.0312,-2.21959 0.0312,-2.34375 l 0,-0.34375 -0.34375,0 -1.4375,0 -0.34375,0 z m 93.9375,0 0.0312,0.34375 c 0.0181,1.26027 -10e-6,2.42361 0,3.4375 0.006,1.00995 0.0313,1.83678 0.0312,2.5 0,1.03135 -0.0192,2.33821 -0.0312,3.90625 -0.003,0.78131 0.003,1.37454 0,1.78125 -0.002,0.20336 10e-4,0.35985 0,0.46875 -10e-4,0.1089 -0.004,0.19746 0,0.15625 l -0.0625,0.375 0.40625,0 1.0625,0 0.375,0 0.34375,0 0,-0.34375 c 0,-0.0145 3.6e-4,-0.29585 0,-0.34375 -0.002,-0.23086 -0.0213,-0.60677 -0.0312,-1.65625 -0.0121,-1.26569 2e-5,-2.74689 0,-4.4375 0,-0.77503 -0.006,-1.71657 0,-2.84375 0.006,-1.13242 0.0192,-2.14164 0.0312,-3 l 0,-0.34375 -0.34375,0 -1.4375,0 -0.375,0 z m -165.21875,3.5625 -0.34375,0.0625 c -0.4264,0.10159 -0.95233,0.29663 -1.625,0.5625 -0.51337,0.2029 -1.04004,0.46091 -1.5625,0.71875 l 0,-0.75 0,-0.34375 -0.34375,0 -1.40625,0 -0.34375,0 0,0.34375 c 0.012,0.82511 0.0252,1.69362 0.0312,2.625 0.006,0.93183 0,1.6697 0,2.1875 0,1.28283 0.0119,2.19486 0,2.71875 -0.0121,0.53077 -0.0313,0.8277 -0.0312,0.9375 l 0,0.34375 0.34375,0 1.4375,0 0.34375,0 0,-0.34375 c 0,-0.12153 -0.0131,-0.59541 -0.0312,-1.5 -0.012,-0.90318 -2e-5,-1.68718 0,-2.34375 -10e-6,-0.42819 -0.006,-0.91064 0,-1.40625 0.004,-0.33505 -10e-4,-0.42236 0,-0.5625 0.80104,-0.34582 1.5081,-0.66291 2.125,-0.875 0.52759,-0.17979 0.85165,-0.29416 1.15625,-0.375 l 0.15625,-0.0312 c 0.0446,-0.011 0.14923,-0.0541 0.1875,-0.0625 l 0.34375,-0.0625 -0.0625,-0.34375 -0.0937,-0.34375 -0.1875,-0.84375 -0.0937,-0.3125 z m 45.34375,0 -0.34375,0.0625 c -0.42637,0.10159 -0.95233,0.29663 -1.625,0.5625 -0.51336,0.2029 -1.04003,0.46091 -1.5625,0.71875 l 0,-0.75 0,-0.34375 -0.34375,0 -1.40625,0 -0.375,0 0.0312,0.34375 c 0.012,0.8251 0.0252,1.69362 0.0312,2.625 0.006,0.93183 -1e-5,1.6697 0,2.1875 0,1.28284 -0.0193,2.19489 -0.0312,2.71875 -0.0121,0.53078 10e-6,0.82784 0,0.9375 l 0,0.34375 0.34375,0 1.4375,0 0.34375,0 0,-0.34375 c 0,-0.12148 -0.0131,-0.5954 -0.0312,-1.5 -0.012,-0.90317 -0.0312,-1.68717 -0.0312,-2.34375 0,-0.4282 0.0252,-0.91065 0.0312,-1.40625 0.004,-0.35365 -10e-4,-0.45671 0,-0.59375 0.78484,-0.33794 1.51829,-0.63516 2.125,-0.84375 0.52758,-0.17979 0.85164,-0.29416 1.15625,-0.375 l 0.15625,-0.0312 c 0.0446,-0.011 0.14922,-0.0541 0.1875,-0.0625 l 0.34375,-0.0625 -0.0937,-0.34375 -0.0625,-0.3438 -0.1875,-0.84375 -0.0937,-0.3125 z m -39.875,0.0312 c -0.63887,10e-6 -1.23418,0.11534 -1.8125,0.34375 -0.57867,0.22253 -1.09338,0.54558 -1.53125,0.96875 -0.48555,0.46111 -0.85714,0.97276 -1.09375,1.5625 -0.2287,0.58026 -0.34375,1.2259 -0.34375,1.90625 0,0.70774 0.14125,1.39156 0.40625,2.03125 0.27193,0.64084 0.65803,1.18235 1.15625,1.625 0.4308,0.38036 0.92231,0.67639 1.46875,0.875 0.54635,0.19251 1.13466,0.28124 1.75,0.28125 0.65046,0 1.25215,-0.0794 1.78125,-0.28125 0.52825,-0.19906 1.00866,-0.49638 1.4375,-0.875 0.50914,-0.45284 0.88968,-1.01876 1.15625,-1.65625 0.22108,-0.51612 0.30262,-1.06909 0.34375,-1.625 l 0.0625,0 0,-0.375 0,-0.34375 -0.0625,0 c -0.0349,-0.55996 -0.0823,-1.1064 -0.28125,-1.59375 -0.24236,-0.59985 -0.63418,-1.12179 -1.125,-1.59375 -0.43164,-0.4174 -0.91119,-0.73119 -1.46875,-0.9375 -0.55216,-0.2128 -1.17981,-0.31249 -1.84375,-0.3125 z m 11.5,0 c -0.53574,10e-6 -1.13609,0.13126 -1.78125,0.40625 -0.41241,0.17752 -0.70478,0.37912 -1.03125,0.5625 l 0,-0.40625 0,-0.34375 -0.34375,0 -1.40625,0 -0.375,0 0,0.34375 c 0.0181,0.98078 0.0312,1.85179 0.0312,2.625 0.006,0.77541 0.0312,1.41881 0.0312,1.875 0,1.40015 -0.0193,2.39685 -0.0312,3 -0.0121,0.60305 -0.0313,0.89166 -0.0312,0.96875 l 0,0.34375 0.375,0 1.40625,0 0.375,0 0,-0.34375 c -2e-5,-0.0933 -0.0131,-0.54196 -0.0312,-1.46875 -0.0121,-0.93118 -0.0313,-1.74409 -0.0312,-2.40625 0,-0.38895 -0.006,-0.88668 0,-1.5 0.005,-0.51053 0.0304,-0.71755 0.0312,-0.875 0.48741,-0.27439 0.93632,-0.50779 1.3125,-0.65625 l 0.0312,0 c 0.42443,-0.17274 0.7569,-0.25 1.03125,-0.25 0.33981,0 0.59308,0.0686 0.71875,0.125 0.1442,0.0606 0.25276,0.12575 0.34375,0.25 0.0798,0.10871 0.15322,0.25638 0.1875,0.4375 0.0384,0.20329 0.0569,0.42809 0.0625,0.65625 0.006,0.26242 0,0.68185 0,1.25 0.006,0.56321 -10e-6,0.9734 0,1.25 0,0.83566 0.012,1.54532 0,2.15625 -0.0121,0.61429 -0.0312,0.94682 -0.0312,1.03125 l 0,0.34375 0.34375,0 1.4375,0 0.34375,0 0,-0.34375 c -2e-5,-0.0933 -0.0131,-0.40014 -0.0312,-1.03125 -0.012,-0.62751 0,-1.41861 0,-2.34375 -10e-6,-0.42257 -0.006,-0.85057 0,-1.3125 0.006,-0.47036 0,-0.92128 0,-1.375 -10e-6,-0.10439 0.004,-0.20131 0,-0.28125 0.47423,-0.25227 0.94181,-0.4703 1.3125,-0.59375 0.43486,-0.14289 0.78356,-0.21875 1.0625,-0.21875 0.50785,0 0.82304,0.11014 1,0.28125 0.164,0.15508 0.32686,0.5324 0.34375,1.15625 0.006,0.27974 -10e-6,0.70751 0,1.28125 0.006,0.56887 0,0.97037 0,1.21875 -10e-6,0.63417 0.012,1.31287 0,2.03125 -0.003,0.35961 -0.0283,0.64988 -0.0312,0.84375 -0.003,0.19387 -0.003,0.34219 0,0.3125 l -0.0312,0.375 0.375,0 1.09375,0 0.34375,0 0.34375,0 0,-0.34375 c -1e-5,-0.0305 0.002,-0.26059 0,-0.34375 -0.004,-0.16654 -0.0192,-0.25545 -0.0312,-0.6875 -0.012,-0.64438 -2e-5,-1.43869 0,-2.375 -2e-5,-0.45058 -0.006,-0.88127 0,-1.28125 0.0122,-0.41251 0.0312,-0.90591 0.0312,-1.5 -2e-5,-0.83657 -0.26942,-1.54725 -0.8125,-2.0625 -0.5396,-0.52504 -1.29135,-0.78124 -2.1875,-0.78125 -0.46909,10e-6 -1.01544,0.0974 -1.625,0.3125 -0.53852,0.19199 -1.12989,0.50189 -1.75,0.84375 -0.20304,-0.28872 -0.41306,-0.58764 -0.75,-0.78125 -0.4584,-0.26746 -0.98843,-0.37499 -1.625,-0.375 z m 33.5625,0 c -0.60976,10e-6 -1.21094,0.0907 -1.78125,0.3125 -0.56792,0.22342 -1.04439,0.54966 -1.4375,0.96875 l -0.0312,0 c -0.43671,0.46931 -0.74653,1.00634 -0.96875,1.5625 -0.22366,0.55982 -0.34376,1.16976 -0.34375,1.84375 -10e-6,0.69647 0.13959,1.35574 0.4375,1.9375 0.29474,0.56307 0.66445,1.03357 1.09375,1.40625 0.50098,0.44512 1.12685,0.78495 1.875,1.03125 0.7614,0.24266 1.63176,0.34374 2.625,0.34375 0.37343,0 0.71871,0.0173 1,0 0.2731,-0.0112 0.40368,-0.0201 0.5,-0.0312 l 0.25,-0.0312 0.0625,-0.28125 0.15625,-1.09375 0.0625,-0.4375 -0.4375,0.0312 c -0.0532,0.004 -0.24228,0.0145 -0.53125,0.0312 -0.27536,0.0163 -0.56793,0.0312 -0.90625,0.0312 -0.60895,0 -1.15019,-0.0635 -1.5625,-0.15625 -0.4169,-0.099 -0.77723,-0.25073 -1.09375,-0.4375 -0.50373,-0.29698 -0.86092,-0.63176 -1.09375,-1.0625 -0.17885,-0.33462 -0.20235,-0.74099 -0.25,-1.125 l 5.75,0 0.34375,0 0.34375,0 0,-0.375 0,-0.34375 -0.0625,0 c -0.0325,-0.59921 -0.0814,-1.15707 -0.25,-1.625 -0.20223,-0.56722 -0.4801,-1.0725 -0.875,-1.46875 -0.35576,-0.35375 -0.80137,-0.60849 -1.2813,-0.78115 -0.47969,-0.17254 -1.00001,-0.24999 -1.59375,-0.25 z m 9.4375,0 c -0.60976,10e-6 -1.21096,0.0907 -1.78125,0.3125 -0.56794,0.22343 -1.04439,0.54967 -1.4375,0.96875 -0.43672,0.46931 -0.77779,1.00634 -1,1.5625 -0.22366,0.55982 -0.31251,1.16976 -0.3125,1.84375 0,0.69647 0.13958,1.35573 0.4375,1.9375 0.29475,0.56306 0.66442,1.03356 1.09375,1.40625 0.50097,0.44512 1.12686,0.78495 1.875,1.03125 0.7614,0.24266 1.63176,0.34374 2.625,0.34375 0.37343,0 0.68749,0.0173 0.96875,0 0.27311,-0.0112 0.40366,-0.0201 0.5,-0.0312 l 0.28125,-0.0312 0.0312,-0.28125 0.15625,-1.09375 0.0625,-0.4375 -0.4375,0.0312 c -0.0531,0.004 -0.24227,0.0145 -0.53125,0.0312 -0.27534,0.0163 -0.56796,0.0312 -0.90625,0.0312 -0.60895,0 -1.11893,-0.0635 -1.53125,-0.15625 -0.4169,-0.099 -0.77727,-0.25074 -1.09375,-0.4375 -0.50374,-0.29698 -0.86092,-0.63176 -1.09375,-1.0625 -0.17912,-0.33513 -0.23372,-0.74032 -0.28125,-1.125 l 5.75,0 0.34375,0 0.375,0 0,-0.375 0,-0.34375 -0.0625,0 c -0.0325,-0.59922 -0.0814,-1.15708 -0.25,-1.625 -0.20225,-0.56721 -0.51133,-1.0725 -0.90625,-1.46875 -0.35572,-0.35384 -0.77007,-0.60859 -1.25,-0.78125 -0.47969,-0.17255 -1.03129,-0.24999 -1.625,-0.25 z m 20.03125,0 c -0.63888,10e-6 -1.26541,0.11534 -1.84375,0.34375 -0.57865,0.22253 -1.09339,0.54558 -1.53125,0.96875 -0.48555,0.46111 -0.82588,0.97276 -1.0625,1.5625 -0.2287,0.58027 -0.34373,1.22591 -0.34375,1.90625 0,0.70775 0.11003,1.39157 0.375,2.03125 l 0.0312,0 c 0.27195,0.64085 0.65807,1.18236 1.15625,1.625 0.43079,0.38036 0.92229,0.67639 1.46875,0.875 0.54634,0.19251 1.13467,0.28124 1.75,0.28125 0.65047,0 1.22091,-0.0794 1.75,-0.28125 0.52826,-0.19906 1.00867,-0.49638 1.4375,-0.875 0.50914,-0.45284 0.92094,-1.01875 1.1875,-1.65625 0.22108,-0.51612 0.30263,-1.06909 0.34375,-1.625 l 0.0625,0 0,-0.375 0,-0.34375 -0.0625,0 c -0.0348,-0.56037 -0.11347,-1.10609 -0.3125,-1.59375 -0.24237,-0.59984 -0.60292,-1.12178 -1.09375,-1.59375 -0.43164,-0.4174 -0.94242,-0.73119 -1.5,-0.9375 -0.55216,-0.2128 -1.14857,-0.31249 -1.8125,-0.3125 z m 11.46875,0 c -0.53575,10e-6 -1.10484,0.13126 -1.75,0.40625 -0.40608,0.1748 -0.7085,0.38205 -1.03125,0.5625 l 0,-0.40625 0,-0.34375 -0.375,0 -1.40625,0 -0.34375,0 0,0.34375 c 0.0181,0.98078 0.0312,1.8518 0.0312,2.625 0.006,0.7754 -1e-5,1.41878 0,1.875 0,1.40016 0.012,2.39686 0,3 -0.0121,0.60305 -0.0312,0.89258 -0.0312,0.96875 l 0,0.34375 0.34375,0 1.4375,0 0.34375,0 0,-0.34375 c -2e-5,-0.0932 -0.0131,-0.54196 -0.0312,-1.46875 -0.0121,-0.93117 0,-1.74408 0,-2.40625 0,-0.38896 -0.006,-0.8867 0,-1.5 0.005,-0.4922 -9.9e-4,-0.67993 0,-0.84375 0.50449,-0.28593 0.95684,-0.5348 1.34375,-0.6875 0.42444,-0.17274 0.78814,-0.25 1.0625,-0.25 0.33981,0 0.59305,0.0686 0.71875,0.125 0.1442,0.0606 0.25273,0.12573 0.34375,0.25 0.0798,0.10873 0.12198,0.2564 0.15625,0.4375 0.0385,0.20327 0.0569,0.42809 0.0625,0.65625 0.006,0.26237 0.0312,0.68184 0.0312,1.25 0.006,0.56322 -2e-5,0.97338 0,1.25 -10e-6,0.83567 -0.0192,1.54535 -0.0312,2.15625 -0.0121,0.61429 -10e-6,0.94673 0,1.03125 l 0,0.34375 0.34375,0 1.4375,0 0.34375,0 0,-0.34375 c -2e-5,-0.0934 -0.0131,-0.40015 -0.0312,-1.03125 -0.012,-0.62751 -10e-6,-1.41861 0,-2.34375 -10e-6,-0.42259 -0.006,-0.85059 0,-1.3125 0.006,-0.47037 -2e-5,-0.9213 0,-1.375 -10e-6,-0.10441 0.004,-0.20135 0,-0.28125 0.47276,-0.25129 0.91151,-0.47062 1.28125,-0.59375 0.43485,-0.14289 0.81479,-0.21875 1.09375,-0.21875 0.50785,0 0.82301,0.11012 1,0.28125 0.164,0.15509 0.29562,0.53241 0.3125,1.15625 0.006,0.27973 -2e-5,0.7075 0,1.28125 0.006,0.56886 0.0312,0.97032 0.0312,1.21875 -10e-6,0.63417 -0.0192,1.31288 -0.0312,2.03125 -0.003,0.35962 0.003,0.64988 0,0.84375 -0.003,0.19387 -0.003,0.34214 0,0.3125 l -0.0625,0.375 0.40625,0 1.0625,0 0.375,0 0.34375,0 0,-0.34375 c -10e-6,-0.0303 0.002,-0.26061 0,-0.34375 -0.004,-0.16652 -0.0192,-0.25545 -0.0312,-0.6875 -0.012,-0.64437 -0.0312,-1.43868 -0.0312,-2.375 0,-0.45061 0.0252,-0.88131 0.0312,-1.28125 0.0122,-0.41251 0,-0.90591 0,-1.5 0,-0.83657 -0.2694,-1.54725 -0.8125,-2.0625 -0.53959,-0.52504 -1.29134,-0.78124 -2.1875,-0.78125 -0.46909,10e-6 -0.9842,0.0974 -1.59375,0.3125 -0.53852,0.19199 -1.12988,0.50189 -1.75,0.84375 -0.20304,-0.28872 -0.41306,-0.58764 -0.75,-0.78125 -0.45841,-0.26746 -1.0197,-0.37499 -1.65625,-0.375 z m 38.8125,0 c -0.53575,10e-6 -1.10483,0.13126 -1.75,0.40625 -0.40608,0.1748 -0.70851,0.38205 -1.03125,0.5625 l 0,-0.40625 0,-0.34375 -0.34375,0 -1.4375,0 -0.34375,0 0,0.34375 c 0.0181,0.98078 0.0312,1.85179 0.0312,2.625 0.006,0.77541 0,1.41881 0,1.875 0,1.40016 0.012,2.39687 0,3 -0.0121,0.60305 -0.0313,0.8916 -0.0312,0.96875 l 0,0.34375 0.34375,0 1.4375,0 0.34375,0 0,-0.34375 c 0,-0.0936 -0.0131,-0.54195 -0.0312,-1.46875 -0.0121,-0.93118 -10e-6,-1.7441 0,-2.40625 0,-0.38896 -0.006,-0.88669 0,-1.5 0.005,-0.49219 -9.9e-4,-0.67988 0,-0.84375 0.5045,-0.28593 0.95685,-0.5348 1.34375,-0.6875 0.42442,-0.17274 0.78814,-0.25 1.0625,-0.25 0.33981,0 0.593,0.0686 0.71875,0.125 0.14419,0.0606 0.2527,0.12571 0.34375,0.25 0.0798,0.10872 0.12196,0.25638 0.15625,0.4375 0.0385,0.20326 0.0882,0.42809 0.0937,0.65625 0.006,0.2624 -3e-5,0.68184 0,1.25 0.006,0.56321 -10e-6,0.97339 0,1.25 0,0.83567 0.012,1.54535 0,2.15625 -0.0121,0.61429 -0.0313,0.94616 -0.0312,1.03125 l 0,0.34375 0.34375,0 1.4375,0 0.34375,0 0,-0.34375 c -2e-5,-0.0933 -0.0131,-0.40014 -0.0312,-1.03125 -0.012,-0.6275 2e-5,-1.41861 0,-2.34375 -10e-6,-0.42258 -0.006,-0.85058 0,-1.3125 0.006,-0.47035 10e-6,-0.92127 0,-1.375 -10e-6,-0.10442 0.004,-0.20133 0,-0.28125 0.47425,-0.25227 0.9418,-0.4703 1.3125,-0.59375 0.43485,-0.14289 0.78355,-0.21875 1.0625,-0.21875 0.50785,0 0.82304,0.11014 1,0.28125 0.16399,0.15509 0.29564,0.53242 0.3125,1.15625 0.006,0.27975 0.0313,0.70753 0.0312,1.28125 0.006,0.56884 -4e-5,0.97026 0,1.21875 -3e-5,0.63418 -0.0192,1.31288 -0.0312,2.03125 -0.003,0.35961 0.003,0.64989 0,0.84375 -0.003,0.19386 -0.003,0.34267 0,0.3125 l -0.0312,0.375 0.375,0 1.09375,0 0.34375,0 0.34375,0 0,-0.34375 c 0,-0.0307 0.002,-0.26058 0,-0.34375 -0.004,-0.16657 -0.0192,-0.25546 -0.0312,-0.6875 -0.012,-0.64436 -0.0312,-1.43867 -0.0312,-2.375 -1e-5,-0.45061 0.0252,-0.88133 0.0312,-1.28125 0.0122,-0.41248 0,-0.90589 0,-1.5 -2e-5,-0.83658 -0.26944,-1.54725 -0.8125,-2.0625 -0.5396,-0.52504 -1.29137,-0.78124 -2.1875,-0.78125 -0.4691,10e-6 -0.98419,0.0974 -1.59375,0.3125 -0.53849,0.19198 -1.12989,0.50189 -1.75,0.84375 -0.20304,-0.28873 -0.4131,-0.58764 -0.75,-0.78125 -0.45842,-0.26746 -1.01972,-0.37499 -1.65625,-0.375 z m 15,0 c -0.60975,10e-6 -1.21093,0.0907 -1.78125,0.3125 -0.56792,0.22342 -1.0444,0.54965 -1.4375,0.96875 -0.43671,0.4693 -0.7778,1.00632 -1,1.5625 -0.22366,0.55983 -0.34374,1.16978 -0.34375,1.84375 0,0.69647 0.17084,1.35574 0.46875,1.9375 0.29473,0.56307 0.63318,1.03357 1.0625,1.40625 0.50096,0.44512 1.12684,0.78495 1.875,1.03125 l 0.0312,0 c 0.7614,0.24266 1.63178,0.34374 2.625,0.34375 0.37343,0 0.6875,0.0173 0.96875,0 0.2731,-0.0112 0.40364,-0.0201 0.5,-0.0312 l 0.28125,-0.0312 0.0312,-0.28125 0.15625,-1.09375 0.0625,-0.4375 -0.4375,0.0312 c -0.0532,0.004 -0.24229,0.0145 -0.53125,0.0312 -0.27536,0.0163 -0.56792,0.0312 -0.90625,0.0312 -0.60896,0 -1.11898,-0.0635 -1.53125,-0.15625 -0.41688,-0.099 -0.77721,-0.25073 -1.09375,-0.4375 -0.50373,-0.29698 -0.86091,-0.63175 -1.09375,-1.0625 -0.17912,-0.33513 -0.23372,-0.74032 -0.28125,-1.125 l 5.75,0 0.34375,0 0.375,0 0,-0.375 0,-0.34375 -0.0625,0 c -0.0325,-0.59921 -0.0814,-1.15706 -0.25,-1.625 -0.20224,-0.56721 -0.51135,-1.0725 -0.90625,-1.46875 -0.35572,-0.35385 -0.77007,-0.60859 -1.25,-0.78125 -0.47968,-0.17255 -1.03126,-0.24999 -1.625,-0.25 z m 14.09375,0 c -0.60977,10e-6 -1.21096,0.0907 -1.78125,0.3125 -0.56794,0.22343 -1.04438,0.54967 -1.4375,0.96875 -0.43671,0.46931 -0.77779,1.00634 -1,1.5625 -0.22366,0.55983 -0.34372,1.16978 -0.34375,1.84375 0,0.69648 0.13964,1.35576 0.4375,1.9375 0.29475,0.56306 0.66444,1.03357 1.09375,1.40625 0.50098,0.44512 1.12686,0.78495 1.875,1.03125 0.76139,0.24266 1.66304,0.34374 2.65625,0.34375 0.37343,0 0.68746,0.0173 0.96875,0 0.2731,-0.0112 0.4036,-0.0201 0.5,-0.0312 l 0.25,-0.0312 0.0625,-0.28125 0.15625,-1.09375 0.0625,-0.4375 -0.4375,0.0312 c -0.0531,0.004 -0.24226,0.0145 -0.53125,0.0312 -0.27536,0.0163 -0.56796,0.0312 -0.90625,0.0312 -0.60895,0 -1.15018,-0.0635 -1.5625,-0.15625 -0.41689,-0.099 -0.77729,-0.25075 -1.09375,-0.4375 -0.50373,-0.29699 -0.82971,-0.63178 -1.0625,-1.0625 -0.17912,-0.33512 -0.2337,-0.7403 -0.28125,-1.125 l 5.75,0 0.34375,0 0.34375,0 0,-0.375 0,-0.34375 -0.0625,0 c -0.0325,-0.59922 -0.0814,-1.15708 -0.25,-1.625 -0.20223,-0.56723 -0.48013,-1.07251 -0.875,-1.46875 -0.35571,-0.35383 -0.80126,-0.60858 -1.28125,-0.78125 -0.47968,-0.17255 -1.00004,-0.24999 -1.59375,-0.25 z m 14.40625,0 c -0.60977,10e-6 -1.21097,0.0907 -1.78125,0.3125 -0.56794,0.22343 -1.04439,0.54967 -1.4375,0.96875 -0.43672,0.4693 -0.7778,1.00632 -1,1.5625 -0.22366,0.55983 -0.34373,1.16978 -0.34375,1.84375 0,0.69648 0.17088,1.35575 0.46875,1.9375 0.29475,0.56306 0.6332,1.03357 1.0625,1.40625 0.50098,0.44512 1.12687,0.78495 1.875,1.03125 0.7614,0.24266 1.66303,0.34374 2.65625,0.34375 0.37343,0 0.68752,0.0173 0.96875,0 0.2731,-0.0112 0.40363,-0.0201 0.5,-0.0312 l 0.28125,-0.0312 0.0312,-0.28125 0.15625,-1.09375 0.0625,-0.4375 -0.4375,0.0312 c -0.0532,0.004 -0.24225,0.0145 -0.53125,0.0312 -0.27536,0.0163 -0.56797,0.0312 -0.90625,0.0312 -0.60896,0 -1.11895,-0.0635 -1.53125,-0.15625 -0.41691,-0.099 -0.77728,-0.25074 -1.09375,-0.4375 -0.50374,-0.29698 -0.86091,-0.63175 -1.09375,-1.0625 -0.17912,-0.33513 -0.23371,-0.74031 -0.28125,-1.125 l 5.75,0 0.34375,0 0.34375,0 0.0312,0 -0.0312,-0.375 0,-0.34375 -0.0625,0 c -0.0325,-0.59893 -0.0502,-1.15728 -0.21875,-1.625 -0.20223,-0.5672 -0.5113,-1.07249 -0.90625,-1.46875 -0.35571,-0.35384 -0.80128,-0.60858 -1.28125,-0.78125 -0.47969,-0.17255 -1.00005,-0.24999 -1.59375,-0.25 z m 30.8125,0 c -0.42984,10e-6 -0.91171,0.096 -1.5,0.28125 -0.45138,0.13918 -1.05701,0.42473 -1.65625,0.71875 l 0,-0.4375 0,-0.34375 -0.34375,0 -1.4375,0 -0.34375,0 0,0.34375 c 0.0181,0.88545 0.0312,1.71556 0.0312,2.5 0.006,0.78643 -10e-6,1.47756 0,2.0625 0,1.27166 0.012,2.23175 0,2.875 -0.0121,0.64211 -0.0313,0.9553 -0.0312,1.03125 l 0,0.34375 0.34375,0 1.4375,0 0.34375,0 0,-0.34375 c -2e-5,-0.0913 -0.0131,-0.52189 -0.0312,-1.4375 -0.0121,-0.9144 -3e-5,-1.6984 0,-2.34375 0,-0.49539 -0.006,-1.05431 0,-1.65625 0.005,-0.45224 -10e-4,-0.5998 0,-0.75 0.48765,-0.26576 0.96334,-0.51206 1.4375,-0.6875 0.51901,-0.19202 0.94552,-0.28125 1.25,-0.28125 0.5561,0 0.8472,0.14014 1,0.3125 0.16187,0.18262 0.2956,0.55776 0.3125,1.15625 0.006,0.25658 0.0312,0.68186 0.0312,1.25 0.006,0.5632 2e-5,0.99344 0,1.28125 -10e-6,0.19975 -0.0192,0.71771 -0.0312,1.59375 -0.006,0.87576 0.005,1.42688 0,1.5625 l -0.0312,0.34375 0.375,0 1.09375,0 0.34375,0 0.34375,0 0,-0.34375 c -10e-6,-0.0259 10e-4,-0.27295 0,-0.34375 -0.004,-0.18038 -0.0183,-0.3297 -0.0312,-0.875 -0.0121,-0.76355 -10e-6,-1.36978 0,-1.875 -10e-6,-0.31595 -0.006,-0.74286 0,-1.25 0.0122,-0.51732 -10e-6,-1.10714 0,-1.8125 -10e-6,-0.85179 -0.26787,-1.577 -0.8125,-2.09375 -0.53418,-0.51975 -1.25299,-0.78124 -2.09375,-0.78125 z m 17.59375,0 c -0.60976,10e-6 -1.21096,0.0907 -1.78125,0.3125 -0.56793,0.22343 -1.04439,0.54967 -1.4375,0.96875 -0.43672,0.46931 -0.77778,1.00634 -1,1.5625 -0.22364,0.55981 -0.34378,1.16975 -0.34375,1.84375 0,0.69647 0.17082,1.35573 0.46875,1.9375 0.29475,0.56307 0.66447,1.03358 1.09375,1.40625 0.50097,0.44513 1.12688,0.78495 1.875,1.03125 0.76138,0.24266 1.63175,0.34374 2.625,0.34375 0.37343,0 0.68748,0.0173 0.96875,0 0.27311,-0.0112 0.40363,-0.0201 0.5,-0.0312 l 0.28125,-0.0312 0.0312,-0.28125 0.15625,-1.09375 0.0625,-0.4375 -0.4375,0.0312 c -0.0532,0.004 -0.24225,0.0145 -0.53125,0.0312 -0.27534,0.0163 -0.56796,0.0312 -0.90625,0.0312 -0.60896,0 -1.11893,-0.0635 -1.53125,-0.15625 -0.4169,-0.099 -0.77727,-0.25074 -1.09375,-0.4375 -0.50373,-0.29699 -0.86095,-0.63178 -1.09375,-1.0625 -0.17912,-0.33513 -0.23373,-0.74032 -0.28125,-1.125 l 5.75,0 0.34375,0 0.375,0 0,-0.375 0,-0.34375 -0.0625,0 c -0.0325,-0.59922 -0.0814,-1.15709 -0.25,-1.625 -0.20223,-0.56723 -0.51138,-1.07251 -0.90625,-1.46875 -0.35573,-0.35385 -0.7701,-0.60859 -1.25,-0.78125 -0.47969,-0.17255 -1.03128,-0.24999 -1.625,-0.25 z m -105.15625,0.125 c -0.2663,0.0112 -0.43407,0.0253 -0.53125,0.0312 l -0.28125,0.0312 -0.0312,0.28125 -0.15625,1.125 -0.0625,0.40625 0.4375,-0.0312 c 0.32643,-0.0168 0.56123,-0.02 0.75,-0.0312 0.18368,-0.0106 0.42072,-0.0312 0.6875,-0.0312 0.4225,0 0.78858,0.0207 1.09375,0.0625 0.30185,0.0362 0.57721,0.0985 0.8125,0.1875 0.33561,0.12613 0.56503,0.31583 0.71875,0.53125 0.0953,0.13358 0.10495,0.36738 0.15625,0.5625 -0.65848,0.0599 -1.29943,0.11712 -1.84375,0.21875 -0.66545,0.11968 -1.2005,0.27439 -1.625,0.4375 -0.6662,0.25479 -1.19278,0.59121 -1.59375,1.03125 -0.40376,0.44435 -0.62501,1.01767 -0.625,1.625 0,0.57107 0.18416,1.08065 0.53125,1.5 0.33967,0.40216 0.78683,0.71264 1.3125,0.9375 0.39513,0.17058 0.85272,0.28768 1.375,0.375 0.51937,0.0868 1.01663,0.15624 1.53125,0.15625 0.79631,0 1.45361,-0.0223 1.96875,-0.0625 0.50125,-0.0335 0.75875,-0.0546 0.84375,-0.0625 l 0.34375,-0.0312 0,-0.3125 c -10e-6,-0.0562 -0.006,-0.53547 0,-1.40625 0.005,-0.7761 -5.9e-4,-1.84909 0,-3.03125 l 0,-0.375 0,-0.34375 -0.0625,0 c -0.0253,-0.63608 -0.0498,-1.21543 -0.21875,-1.625 -0.19484,-0.4785 -0.48828,-0.89242 -0.875,-1.21875 -0.41609,-0.347 -0.92811,-0.57476 -1.53125,-0.71875 -0.58953,-0.14817 -1.26503,-0.21874 -2,-0.21875 -0.4689,1e-5 -0.84119,-0.0175 -1.125,0 z m 68.75,0 c -0.94198,10e-6 -1.75539,0.0521 -2.4375,0.15625 -0.68133,0.0992 -1.31926,0.29692 -1.90625,0.5625 -0.82244,0.37153 -1.49762,0.88545 -2,1.53125 -0.51013,0.6557 -0.74998,1.43039 -0.75,2.28125 0,0.83107 0.15827,1.56038 0.53125,2.15625 0.35917,0.57387 0.83146,1.01852 1.40625,1.375 0.57942,0.37337 1.2688,0.64354 2.0625,0.8125 0.77123,0.15854 1.54708,0.24787 2.28125,0.25 -0.0531,0.34468 -0.10958,0.68892 -0.28125,0.9375 -0.2183,0.32043 -0.6185,0.61318 -1.28125,0.84375 -0.42945,0.14635 -0.93016,0.22768 -1.46875,0.28125 -0.54775,0.0599 -1.17762,0.11397 -1.875,0.125 l -0.375,0 0.0312,0.375 0.15625,1.09375 0.0312,0.28125 0.3125,0 c 1.06619,0 1.98279,-0.0675 2.75,-0.21875 0.75855,-0.14379 1.42024,-0.33111 1.96875,-0.59375 0.69903,-0.34725 1.23849,-0.83956 1.625,-1.4375 0.40793,-0.62036 0.59373,-1.43941 0.59375,-2.4375 -10e-6,-0.52048 0.006,-1.09259 0,-1.71875 -0.006,-0.62411 0,-1.24202 0,-1.84375 -10e-6,-0.88678 -0.006,-1.79941 0,-2.78125 0.01,-0.77877 0.0293,-1.07058 0.0312,-1.3125 5.2e-4,-0.0633 0,-0.31589 0,-0.34375 l 0,-0.375 -0.375,0 c -0.12496,10e-6 -0.22891,0 -0.34375,0 -0.0626,0 -0.12786,0 -0.1875,0 -0.16293,10e-6 -0.33106,10e-6 -0.5,0 z m 5.1875,0 c -0.26632,0.0112 -0.43409,0.0253 -0.53125,0.0312 l -0.28125,0.0312 -0.0312,0.28125 -0.15625,1.125 -0.0625,0.40625 0.4375,-0.0312 c 0.32642,-0.0168 0.56121,-0.02 0.75,-0.0312 0.18366,-0.0106 0.4207,-0.0312 0.6875,-0.0312 0.42252,0 0.7886,0.0207 1.09375,0.0625 0.30184,0.0362 0.5772,0.0985 0.8125,0.1875 0.33563,0.12613 0.5651,0.31589 0.71875,0.53125 0.0968,0.1357 0.13614,0.36319 0.1875,0.5625 -0.66095,0.06 -1.32898,0.1168 -1.875,0.21875 -0.66544,0.11968 -1.20051,0.27438 -1.625,0.4375 -0.6662,0.25479 -1.19278,0.5912 -1.59375,1.03125 -0.40379,0.44436 -0.62498,0.98644 -0.625,1.59375 0,0.57107 0.18414,1.1119 0.53125,1.53125 0.33968,0.40217 0.78688,0.71264 1.3125,0.9375 0.39514,0.17058 0.85273,0.28768 1.375,0.375 0.51937,0.0868 1.01665,0.15624 1.53125,0.15625 0.79633,0 1.4536,-0.0223 1.96875,-0.0625 0.50125,-0.0335 0.75877,-0.0546 0.84375,-0.0625 l 0.34375,-0.0312 0,-0.3125 c -10e-6,-0.0561 -0.006,-0.53546 0,-1.40625 0.005,-0.77611 -6.1e-4,-1.8491 0,-3.03125 l 0,-0.375 0,-0.34375 -0.0625,0 c -0.0253,-0.63608 -0.0498,-1.21543 -0.21875,-1.625 -0.19485,-0.47851 -0.48833,-0.89243 -0.875,-1.21875 -0.41608,-0.347 -0.92807,-0.57476 -1.53125,-0.71875 -0.58952,-0.14817 -1.26505,-0.21874 -2,-0.21875 -0.46888,1e-5 -0.84123,-0.0175 -1.125,0 z m -77.78125,0.0625 c -0.83364,10e-6 -1.61968,0.071 -2.40625,0.25 -0.7836,0.17395 -1.48095,0.43459 -2.0625,0.78125 -0.64564,0.38223 -1.15921,0.89234 -1.5625,1.5 -0.41021,0.61202 -0.62501,1.29621 -0.625,2.03125 0,0.81204 0.20872,1.58643 0.65625,2.25 0.44587,0.66111 1.06787,1.17104 1.84375,1.5625 0.56785,0.28328 1.20486,0.51144 1.90625,0.65625 0.70103,0.13895 1.45141,0.18749 2.25,0.1875 0.0724,0 0.17867,-1e-5 0.28125,0 0.10863,0 0.17051,-1e-5 0.21875,0 l 0.34375,0 0,-0.3125 0.0937,-0.8125 0.0312,0 0,-0.3125 0.0312,-0.34375 -0.0312,0 0,-0.0312 -0.3125,0 -0.0312,0 -0.3125,-0.0312 0,0.0312 c -0.0927,1e-5 -0.17279,1e-5 -0.25,0 -0.5749,1e-5 -1.14494,-0.0444 -1.65625,-0.125 -0.50499,-0.0796 -0.92254,-0.19979 -1.3125,-0.375 l -0.0312,0 c -0.49479,-0.21868 -0.86116,-0.51417 -1.15625,-0.90625 -0.27799,-0.38097 -0.43751,-0.84261 -0.4375,-1.4375 0,-0.47242 0.15601,-0.9148 0.46875,-1.34375 0.30937,-0.42434 0.70861,-0.73514 1.25,-0.9375 l 0.0312,0 c 0.42334,-0.16402 0.83544,-0.27502 1.28125,-0.34375 0.45094,-0.0739 1.03123,-0.12499 1.6875,-0.125 0.0423,1e-5 0.0767,1e-5 0.125,0 0.0543,1e-5 0.11397,1e-5 0.15625,0 l 0.375,0 -0.0312,-0.375 -0.0937,-1.125 0,-0.3125 -0.34375,0 c -0.0422,1e-5 -0.0839,1e-5 -0.15625,0 -0.0664,1e-5 -0.15243,1e-5 -0.21875,0 z m 102.65625,0 c -0.83365,10e-6 -1.61967,0.071 -2.40625,0.25 -0.78361,0.17395 -1.48095,0.43459 -2.0625,0.78125 -0.64565,0.38223 -1.19047,0.89234 -1.59375,1.5 -0.41022,0.61202 -0.59377,1.2962 -0.59375,2.03125 0,0.81204 0.20871,1.58642 0.65625,2.25 0.44586,0.66111 1.0679,1.17104 1.84375,1.5625 0.56786,0.28328 1.20489,0.51144 1.90625,0.65625 0.70105,0.13895 1.4514,0.18749 2.25,0.1875 0.0724,0 0.17866,-1e-5 0.28125,0 0.10861,0 0.1705,-1e-5 0.21875,0 l 0.3125,0 0.0312,-0.3125 0.0937,-0.8125 0.0312,0 0,-0.3125 0.0312,-0.34375 -0.0312,0 0,-0.0312 -0.3125,0 -0.0312,0 -0.3125,-0.0312 0,0.0312 c -0.0952,1e-5 -0.2023,1e-5 -0.28125,0 -0.57488,1e-5 -1.11369,-0.0444 -1.625,-0.125 -0.50499,-0.0796 -0.95376,-0.19979 -1.34375,-0.375 -0.49478,-0.21868 -0.86116,-0.51417 -1.15625,-0.90625 -0.27799,-0.38096 -0.4375,-0.8426 -0.4375,-1.4375 0,-0.47243 0.15601,-0.91481 0.46875,-1.34375 0.3094,-0.42436 0.7086,-0.73515 1.25,-0.9375 0.42331,-0.16402 0.86669,-0.27502 1.3125,-0.34375 0.45092,-0.0739 1.03124,-0.12499 1.6875,-0.125 0.0423,1e-5 0.0767,1e-5 0.125,0 0.0543,1e-5 0.11398,1e-5 0.15625,0 l 0.34375,0 0,-0.375 -0.0937,-1.125 0,-0.3125 -0.34375,0 c -0.0422,1e-5 -0.0838,1e-5 -0.15625,0 -0.0664,1e-5 -0.15243,1e-5 -0.21875,0 z m -165.40625,1.5 c 0.60749,10e-6 1.06494,0.17036 1.40625,0.5 0.24983,0.23445 0.35104,0.61942 0.46875,1 l -3.90625,0 c 0.16147,-0.37249 0.31836,-0.75885 0.59375,-1 0.38792,-0.34447 0.83095,-0.5 1.4375,-0.5 z m 9.46875,0 c 0.60747,10e-6 1.03371,0.17037 1.375,0.5 0.24983,0.23445 0.35103,0.61941 0.46875,1 l -3.90625,0 c 0.16147,-0.37249 0.31837,-0.75885 0.59375,-1 0.38794,-0.34448 0.8622,-0.5 1.46875,-0.5 z m 85.3125,0 c 0.60749,10e-6 1.03371,0.17037 1.375,0.5 0.24984,0.23445 0.35103,0.61942 0.46875,1 l -3.90625,0 c 0.16148,-0.37249 0.31838,-0.75885 0.59375,-1 0.38792,-0.34447 0.86221,-0.5 1.46875,-0.5 z m 14.0625,0 c 0.60749,10e-6 1.06491,0.17035 1.40625,0.5 0.24983,0.23445 0.35104,0.61942 0.46875,1 l -3.90625,0 c 0.16147,-0.37249 0.31836,-0.75885 0.59375,-1 0.38793,-0.34447 0.83098,-0.5 1.4375,-0.5 z m 14.4375,0 c 0.6075,10e-6 1.03365,0.17034 1.375,0.5 0.24983,0.23445 0.35104,0.61942 0.46875,1 l -3.90625,0 c 0.16147,-0.37249 0.31836,-0.75886 0.59375,-1 0.38792,-0.34447 0.86223,-0.5 1.46875,-0.5 z m 48.40625,0 c 0.6075,10e-6 1.03367,0.17035 1.375,0.5 0.24983,0.23445 0.35102,0.61941 0.46875,1 l -3.90625,0 c 0.16147,-0.37249 0.31836,-0.75885 0.59375,-1 0.38791,-0.34447 0.86224,-0.5 1.46875,-0.5 z M 396.84375,192.5 c 0.31096,1e-5 0.62513,0.0532 0.90625,0.15625 0.28602,0.098 0.52036,0.22746 0.71875,0.40625 l 0,0.0312 c 0.34325,0.30264 0.58754,0.64799 0.75,1.09375 0.17275,0.45881 0.25,0.9231 0.25,1.40625 -10e-6,0.46037 -0.0851,0.89549 -0.25,1.3125 -0.16355,0.41349 -0.38115,0.77414 -0.6875,1.0625 -0.21288,0.20169 -0.45954,0.36128 -0.75,0.46875 -0.28386,0.10697 -0.59503,0.15625 -0.9375,0.15625 -0.30992,0 -0.6038,-0.0365 -0.875,-0.125 -0.27118,-0.0935 -0.48591,-0.23889 -0.6875,-0.40625 -0.37577,-0.31232 -0.6473,-0.6747 -0.8125,-1.09375 -0.17009,-0.43644 -0.25,-0.90643 -0.25,-1.4375 -10e-6,-0.46034 0.0841,-0.91399 0.25,-1.34375 0.17121,-0.42913 0.37753,-0.73733 0.65625,-1 l 0,-0.0312 c 0.24367,-0.23542 0.52022,-0.39583 0.78125,-0.5 0.25732,-0.10266 0.55549,-0.15624 0.9375,-0.15625 z m 74.53125,0 c 0.31096,1e-5 0.59387,0.0532 0.875,0.15625 0.28602,0.098 0.52035,0.22746 0.71875,0.40625 l 0.0312,0.0312 c 0.34324,0.30264 0.58756,0.648 0.75,1.09375 0.17276,0.4588 0.24998,0.92309 0.25,1.40625 -1e-5,0.46036 -0.0851,0.89547 -0.25,1.3125 -0.16354,0.41348 -0.38116,0.77413 -0.6875,1.0625 -0.21288,0.20169 -0.45953,0.36128 -0.75,0.46875 -0.28385,0.10697 -0.59501,0.15625 -0.9375,0.15625 -0.3099,0 -0.60378,-0.0365 -0.875,-0.125 -0.27118,-0.0934 -0.51713,-0.23888 -0.71875,-0.40625 -0.37576,-0.31231 -0.61602,-0.67468 -0.78125,-1.09375 -0.17008,-0.43645 -0.28124,-0.90643 -0.28125,-1.4375 0,-0.46035 0.0841,-0.91399 0.25,-1.34375 0.17121,-0.42912 0.40879,-0.73732 0.6875,-1 l 0,-0.0312 c 0.24367,-0.23541 0.48898,-0.39583 0.75,-0.5 0.25731,-0.10266 0.58671,-0.15624 0.96875,-0.15625 z m 105.0625,0.15625 c 0.008,0.52423 0.0312,1.04076 0.0312,1.53125 0.005,0.46414 -10e-4,0.81204 0,1.15625 3.1e-4,0.10233 0,0.25204 0,0.34375 l 0,0.34375 c -8.7e-4,0.59684 0.005,1.16566 0,1.625 -0.004,0.35034 -0.0299,0.43787 -0.0312,0.59375 -0.50963,-0.002 -1.01451,-0.0629 -1.46875,-0.15625 -0.46346,-0.0965 -0.84656,-0.22506 -1.1875,-0.375 -0.49524,-0.21885 -0.86778,-0.52081 -1.15625,-0.90625 -0.27338,-0.37214 -0.43753,-0.79047 -0.4375,-1.34375 0,-0.53363 0.15042,-0.98823 0.4375,-1.40625 0.28362,-0.41294 0.68675,-0.74398 1.25,-0.96875 0.4449,-0.17636 0.8631,-0.28151 1.25,-0.34375 0.36423,-0.0577 0.82421,-0.0886 1.3125,-0.0937 z m -113.75,0.21875 c 0,0.13537 -10e-6,0.27227 0,0.40625 0,0.14515 0,0.27422 0,0.40625 0,0.11172 -10e-6,0.24141 0,0.34375 l 0,0.34375 c -5.2e-4,1.37798 -0.0258,2.53983 -0.0312,3.25 -0.004,0.54709 0.001,0.6847 0,0.875 -0.50606,-0.007 -1.00596,-0.0364 -1.46875,-0.125 -0.49333,-0.10081 -0.9266,-0.24608 -1.3125,-0.4375 -0.43153,-0.2122 -0.77454,-0.50311 -1.0625,-0.875 -0.27173,-0.35092 -0.40624,-0.77115 -0.40625,-1.28125 0,-0.58164 0.14807,-1.05502 0.4375,-1.46875 0.2921,-0.42248 0.69754,-0.73368 1.25,-0.96875 0.34882,-0.14852 0.76986,-0.28359 1.28125,-0.375 0.40799,-0.0721 0.86072,-0.0787 1.3125,-0.0937 z m 49.4375,2.8125 c 0.002,0.21525 0,0.4451 0,0.625 -10e-6,0.15145 0,0.2509 0,0.375 l 0,0.34375 0,0.34375 c -10e-4,0.36665 0.004,0.72832 0,0.96875 l 0,0.0312 c 0,0.13562 0,0.1324 0,0.21875 -0.0707,0.002 -0.15074,-0.002 -0.21875,0 -0.17249,0.005 -0.32228,10e-6 -0.4375,0 -0.38686,0 -0.74528,-0.0249 -1.09375,-0.0625 -0.33755,-0.0423 -0.63424,-0.10021 -0.90625,-0.1875 -0.34495,-0.10968 -0.60655,-0.25844 -0.78125,-0.4375 -0.15825,-0.16618 -0.21876,-0.37656 -0.21875,-0.6875 0,-0.25863 0.0853,-0.41672 0.28125,-0.59375 0.23201,-0.20484 0.48475,-0.36591 0.78125,-0.46875 0.41954,-0.15005 0.9479,-0.26229 1.59375,-0.34375 0.48035,-0.0646 0.73867,-0.10219 1,-0.125 z m 73.9375,0 c 0.002,0.21525 -2e-5,0.44506 0,0.625 -10e-6,0.15145 0,0.2509 0,0.375 l 0,0.34375 0,0.34375 c -10e-4,0.36665 0.004,0.7283 0,0.96875 l 0,0.0312 c 0,0.13562 0,0.13243 0,0.21875 -0.0707,0.002 -0.15073,-0.002 -0.21875,0 -0.1725,0.005 -0.32226,10e-6 -0.4375,0 -0.38686,0 -0.74532,-0.0249 -1.09375,-0.0625 -0.33755,-0.0423 -0.63426,-0.10021 -0.90625,-0.1875 -0.34494,-0.10968 -0.60654,-0.25843 -0.78125,-0.4375 -0.15825,-0.16618 -0.21877,-0.37656 -0.21875,-0.6875 0,-0.25863 0.0853,-0.41672 0.28125,-0.59375 0.232,-0.20483 0.48477,-0.36591 0.78125,-0.46875 0.41955,-0.15005 0.94791,-0.26229 1.59375,-0.34375 0.48033,-0.0646 0.73866,-0.10219 1,-0.125 z" id="path3669" style="font-size:19.75634766px;font-style:normal;font-variant:normal;font-weight:normal;font-stretch:normal;text-align:start;line-height:100%;writing-mode:lr-tb;text-anchor:start;fill:#000000;fill-opacity:1;stroke:none;font-family:Skia"/>
      </g>
      <path d="m 392.98882,430.89682 c -0.75965,1e-5 -1.41616,0.078 -1.96875,0.28125 -0.53543,0.19692 -0.99895,0.48081 -1.34375,0.8125 -0.38142,0.37107 -0.65338,0.77076 -0.8125,1.21875 -0.1549,0.42983 -0.21879,0.91327 -0.21875,1.4375 l 0,0.0625 -1.4375,0 -0.34375,0 0,0.34375 0,0.96875 0,0.34375 0.34375,0 1.4375,0 c -7.7e-4,1.78396 -0.02,3.42776 -0.0312,4.8125 -0.0121,1.47936 -1e-5,2.23848 0,2.34375 l 0,0.34375 0.34375,0 1.4375,0 0.34375,0 0,-0.34375 c 0,-0.10507 -0.0192,-0.9224 -0.0312,-2.46875 -0.006,-1.44534 4e-4,-3.01929 0,-4.6875 l 2.71875,0 0.375,0 0,-0.34375 0,-0.96875 0,-0.34375 -0.375,0 -2.71875,0 0,-0.0312 c 0,-0.34201 0.0366,-0.64659 0.125,-0.90625 0.0931,-0.26309 0.2294,-0.43596 0.375,-0.5625 0.22298,-0.19666 0.4727,-0.32549 0.75,-0.40625 0.27354,-0.0796 0.70222,-0.15624 1.25,-0.15625 0.0415,1e-5 0.10061,0 0.15625,0 l 0,0.0625 0.46875,-0.0625 0.15625,0 0,-0.0312 0.0625,0 -0.0625,-0.34375 0,-0.3125 -0.0312,0 -0.125,-0.78125 -0.0625,-0.28125 -0.28125,0 c -0.036,10e-6 -0.11011,10e-6 -0.21875,0 -0.10257,10e-6 -0.20279,10e-6 -0.28125,0 z m 45.34375,0 c -0.75964,1e-5 -1.41615,0.078 -1.96875,0.28125 -0.53543,0.19692 -0.99894,0.48082 -1.34375,0.8125 -0.3814,0.37107 -0.65336,0.77076 -0.8125,1.21875 -0.15489,0.42983 -0.21875,0.91329 -0.21875,1.4375 l 0,0.0625 -1.4375,0 -0.34375,0 0,0.34375 0,0.96875 0,0.34375 0.34375,0 1.4375,0 c -7.5e-4,1.78395 -0.02,3.42776 -0.0312,4.8125 -0.0121,1.47936 -0.0312,2.23882 -0.0312,2.34375 l 0,0.34375 0.375,0 1.40625,0 0.375,0 0,-0.34375 c 0,-0.10506 -0.0192,-0.9224 -0.0312,-2.46875 -0.006,-1.44534 3.9e-4,-3.01929 0,-4.6875 l 2.71875,0 0.34375,0 0,-0.34375 0,-0.96875 0,-0.34375 -0.34375,0 -2.71875,0 0,-0.0312 c 0,-0.342 0.0366,-0.64658 0.125,-0.90625 0.0931,-0.26308 0.22939,-0.43596 0.375,-0.5625 0.22299,-0.19667 0.44145,-0.3255 0.71875,-0.40625 0.27357,-0.0797 0.70222,-0.15624 1.25,-0.15625 0.0415,1e-5 0.10062,0 0.15625,0 l 0,0.0625 0.46875,-0.0625 0.1875,0 0,-0.0312 0.0625,0 -0.0625,-0.34375 0,-0.3125 -0.0625,0 -0.125,-0.78125 -0.0312,-0.28125 -0.3125,0 c -0.036,10e-6 -0.11013,10e-6 -0.21875,0 -0.10256,10e-6 -0.17155,10e-6 -0.25,0 z m 33.4375,0 0,0.34375 0.0312,3.5625 c -0.55222,0.017 -1.12037,0.0249 -1.6875,0.125 -0.68693,0.11553 -1.29971,0.29446 -1.84375,0.53125 -0.9234,0.38879 -1.64963,0.93809 -2.15625,1.65625 -0.50618,0.71147 -0.75,1.55635 -0.75,2.46875 0,0.79263 0.23231,1.54071 0.6875,2.1875 0.45822,0.65116 1.12106,1.15393 1.96875,1.53125 0.64414,0.28622 1.32121,0.4686 2,0.5625 0.67506,0.0992 1.56846,0.15625 2.71875,0.15625 0.12036,0 0.27363,0.006 0.46875,0 0.19312,0 0.30764,-10e-6 0.34375,0 l 0.34375,0 0,-0.0312 0,-0.34375 c -8.5e-4,-0.0969 9.7e-4,-0.24164 0,-0.34375 -0.006,-0.62207 -0.0209,-1.2783 -0.0312,-2.09375 -0.006,-0.95366 -2e-5,-2.01024 0,-3.1875 -10e-6,-1.48953 -0.0121,-2.9871 0,-4.4375 0.0121,-1.45146 0.0312,-2.21959 0.0312,-2.34375 l 0,-0.34375 -0.34375,0 -1.4375,0 -0.34375,0 z m 93.9375,0 0.0312,0.34375 c 0.0181,1.26027 -1e-5,2.42361 0,3.4375 0.006,1.00995 0.0313,1.83678 0.0312,2.5 0,1.03135 -0.0192,2.33821 -0.0312,3.90625 -0.003,0.78131 0.003,1.37454 0,1.78125 -0.002,0.20336 10e-4,0.35985 0,0.46875 -0.001,0.1089 -0.004,0.19746 0,0.15625 l -0.0625,0.375 0.40625,0 1.0625,0 0.375,0 0.34375,0 0,-0.34375 c 0,-0.0145 3.6e-4,-0.29585 0,-0.34375 -0.002,-0.23086 -0.0213,-0.60677 -0.0312,-1.65625 -0.0121,-1.26569 2e-5,-2.74689 0,-4.4375 0,-0.77503 -0.006,-1.71657 0,-2.84375 0.006,-1.13242 0.0192,-2.14164 0.0312,-3 l 0,-0.34375 -0.34375,0 -1.4375,0 -0.375,0 z m -165.21875,3.5625 -0.34375,0.0625 c -0.4264,0.10159 -0.95233,0.29663 -1.625,0.5625 -0.51337,0.2029 -1.04004,0.46091 -1.5625,0.71875 l 0,-0.75 0,-0.34375 -0.34375,0 -1.40625,0 -0.34375,0 0,0.34375 c 0.012,0.82511 0.0252,1.69362 0.0312,2.625 0.006,0.93183 0,1.6697 0,2.1875 0,1.28283 0.0119,2.19486 0,2.71875 -0.0121,0.53077 -0.0313,0.8277 -0.0312,0.9375 l 0,0.34375 0.34375,0 1.4375,0 0.34375,0 0,-0.34375 c 0,-0.12153 -0.0131,-0.59541 -0.0312,-1.5 -0.012,-0.90318 -2e-5,-1.68718 0,-2.34375 -1e-5,-0.42819 -0.006,-0.91064 0,-1.40625 0.004,-0.33505 -0.001,-0.42236 0,-0.5625 0.80104,-0.34582 1.5081,-0.66291 2.125,-0.875 0.52759,-0.17979 0.85165,-0.29416 1.15625,-0.375 l 0.15625,-0.0312 c 0.0446,-0.011 0.14923,-0.0541 0.1875,-0.0625 l 0.34375,-0.0625 -0.0625,-0.34375 -0.0937,-0.34375 -0.1875,-0.84375 -0.0937,-0.3125 z m 45.34375,0 -0.34375,0.0625 c -0.42637,0.10159 -0.95233,0.29663 -1.625,0.5625 -0.51336,0.2029 -1.04003,0.46091 -1.5625,0.71875 l 0,-0.75 0,-0.34375 -0.34375,0 -1.40625,0 -0.375,0 0.0312,0.34375 c 0.0121,0.8251 0.0252,1.69362 0.0312,2.625 0.006,0.93183 -10e-6,1.6697 0,2.1875 0,1.28284 -0.0193,2.19489 -0.0312,2.71875 -0.0121,0.53078 1e-5,0.82784 0,0.9375 l 0,0.34375 0.34375,0 1.4375,0 0.34375,0 0,-0.34375 c 0,-0.12148 -0.0131,-0.5954 -0.0312,-1.5 -0.012,-0.90317 -0.0312,-1.68717 -0.0312,-2.34375 0,-0.4282 0.0252,-0.91065 0.0312,-1.40625 0.004,-0.35365 -10e-4,-0.45671 0,-0.59375 0.78484,-0.33794 1.51829,-0.63516 2.125,-0.84375 0.52758,-0.17979 0.85164,-0.29416 1.15625,-0.375 l 0.15625,-0.0312 c 0.0446,-0.011 0.14922,-0.0541 0.1875,-0.0625 l 0.34375,-0.0625 -0.0937,-0.34375 -0.0625,-0.34375 -0.1875,-0.84375 -0.0937,-0.3125 z m -39.875,0.0312 c -0.63887,10e-6 -1.23418,0.11534 -1.8125,0.34375 -0.57867,0.22253 -1.09338,0.54558 -1.53125,0.96875 -0.48555,0.46111 -0.85714,0.97276 -1.09375,1.5625 -0.2287,0.58026 -0.34375,1.2259 -0.34375,1.90625 0,0.70774 0.14125,1.39156 0.40625,2.03125 0.27193,0.64084 0.65803,1.18235 1.15625,1.625 0.4308,0.38036 0.92231,0.67639 1.46875,0.875 0.54635,0.19251 1.13466,0.28124 1.75,0.28125 0.65046,0 1.25215,-0.0794 1.78125,-0.28125 0.52825,-0.19906 1.00866,-0.49638 1.4375,-0.875 0.50914,-0.45284 0.88968,-1.01876 1.15625,-1.65625 0.22108,-0.51612 0.30262,-1.06909 0.34375,-1.625 l 0.0625,0 0,-0.375 0,-0.34375 -0.0625,0 c -0.0349,-0.55996 -0.0823,-1.1064 -0.28125,-1.59375 -0.24236,-0.59985 -0.63418,-1.12179 -1.125,-1.59375 -0.43164,-0.4174 -0.91119,-0.73119 -1.46875,-0.9375 -0.55216,-0.2128 -1.17981,-0.31249 -1.84375,-0.3125 z m 11.5,0 c -0.53574,10e-6 -1.13609,0.13126 -1.78125,0.40625 -0.41241,0.17752 -0.70478,0.37912 -1.03125,0.5625 l 0,-0.40625 0,-0.34375 -0.34375,0 -1.40625,0 -0.375,0 0,0.34375 c 0.0181,0.98078 0.0312,1.85179 0.0312,2.625 0.006,0.77541 0.0312,1.41881 0.0312,1.875 0,1.40015 -0.0193,2.39685 -0.0312,3 -0.0121,0.60305 -0.0313,0.89166 -0.0312,0.96875 l 0,0.34375 0.375,0 1.40625,0 0.375,0 0,-0.34375 c -2e-5,-0.0933 -0.0131,-0.54196 -0.0312,-1.46875 -0.0121,-0.93118 -0.0313,-1.74409 -0.0312,-2.40625 0,-0.38895 -0.006,-0.88668 0,-1.5 0.005,-0.51053 0.0304,-0.71755 0.0312,-0.875 0.48741,-0.27439 0.93632,-0.50779 1.3125,-0.65625 l 0.0312,0 c 0.42443,-0.17274 0.7569,-0.25 1.03125,-0.25 0.33981,0 0.59308,0.0686 0.71875,0.125 0.1442,0.0606 0.25276,0.12575 0.34375,0.25 0.0798,0.10871 0.15322,0.25638 0.1875,0.4375 0.0384,0.20329 0.0569,0.42809 0.0625,0.65625 0.006,0.26242 0,0.68185 0,1.25 0.006,0.56321 -10e-6,0.9734 0,1.25 0,0.83566 0.012,1.54532 0,2.15625 -0.0121,0.61429 -0.0312,0.94682 -0.0312,1.03125 l 0,0.34375 0.34375,0 1.4375,0 0.34375,0 0,-0.34375 c -2e-5,-0.0933 -0.0131,-0.40014 -0.0312,-1.03125 -0.012,-0.62751 0,-1.41861 0,-2.34375 -1e-5,-0.42257 -0.006,-0.85057 0,-1.3125 0.006,-0.47036 0,-0.92128 0,-1.375 -1e-5,-0.10439 0.004,-0.20131 0,-0.28125 0.47423,-0.25227 0.94181,-0.4703 1.3125,-0.59375 0.43486,-0.14289 0.78356,-0.21875 1.0625,-0.21875 0.50785,0 0.82304,0.11014 1,0.28125 0.164,0.15508 0.32686,0.5324 0.34375,1.15625 0.006,0.27974 -1e-5,0.70751 0,1.28125 0.006,0.56887 0,0.97037 0,1.21875 -1e-5,0.63417 0.012,1.31287 0,2.03125 -0.003,0.35961 -0.0282,0.64988 -0.0312,0.84375 -0.003,0.19387 -0.003,0.34219 0,0.3125 l -0.0312,0.375 0.375,0 1.09375,0 0.34375,0 0.34375,0 0,-0.34375 c -10e-6,-0.0305 0.002,-0.26059 0,-0.34375 -0.004,-0.16654 -0.0192,-0.25545 -0.0312,-0.6875 -0.012,-0.64438 -2e-5,-1.43869 0,-2.375 -2e-5,-0.45058 -0.006,-0.88127 0,-1.28125 0.0122,-0.41251 0.0312,-0.90591 0.0312,-1.5 -2e-5,-0.83657 -0.26942,-1.54725 -0.8125,-2.0625 -0.5396,-0.52504 -1.29135,-0.78124 -2.1875,-0.78125 -0.46909,10e-6 -1.01544,0.0974 -1.625,0.3125 -0.53852,0.19199 -1.12989,0.50189 -1.75,0.84375 -0.20304,-0.28872 -0.41306,-0.58764 -0.75,-0.78125 -0.4584,-0.26746 -0.98843,-0.37499 -1.625,-0.375 z m 33.5625,0 c -0.60976,10e-6 -1.21094,0.0907 -1.78125,0.3125 -0.56792,0.22342 -1.04439,0.54966 -1.4375,0.96875 l -0.0312,0 c -0.43671,0.46931 -0.74653,1.00634 -0.96875,1.5625 -0.22366,0.55982 -0.34376,1.16976 -0.34375,1.84375 -1e-5,0.69647 0.13959,1.35574 0.4375,1.9375 0.29474,0.56307 0.66445,1.03357 1.09375,1.40625 0.50098,0.44512 1.12685,0.78495 1.875,1.03125 0.7614,0.24266 1.63176,0.34374 2.625,0.34375 0.37343,0 0.71871,0.0173 1,0 0.2731,-0.0112 0.40368,-0.0201 0.5,-0.0312 l 0.25,-0.0312 0.0625,-0.28125 0.15625,-1.09375 0.0625,-0.4375 -0.4375,0.0312 c -0.0532,0.004 -0.24228,0.0145 -0.53125,0.0312 -0.27536,0.0163 -0.56793,0.0312 -0.90625,0.0312 -0.60895,0 -1.15019,-0.0635 -1.5625,-0.15625 -0.4169,-0.099 -0.77723,-0.25073 -1.09375,-0.4375 -0.50373,-0.29698 -0.86092,-0.63176 -1.09375,-1.0625 -0.17885,-0.33462 -0.20235,-0.74099 -0.25,-1.125 l 5.75,0 0.34375,0 0.34375,0 0,-0.375 0,-0.34375 -0.0625,0 c -0.0325,-0.59921 -0.0814,-1.15707 -0.25,-1.625 -0.20223,-0.56722 -0.4801,-1.0725 -0.875,-1.46875 -0.35571,-0.35385 -0.80132,-0.60859 -1.28125,-0.78125 -0.47969,-0.17254 -1.00001,-0.24999 -1.59375,-0.25 z m 9.4375,0 c -0.60976,10e-6 -1.21096,0.0907 -1.78125,0.3125 -0.56794,0.22343 -1.04439,0.54967 -1.4375,0.96875 -0.43672,0.46931 -0.77779,1.00634 -1,1.5625 -0.22366,0.55982 -0.31251,1.16976 -0.3125,1.84375 0,0.69647 0.13958,1.35573 0.4375,1.9375 0.29475,0.56306 0.66442,1.03356 1.09375,1.40625 0.50097,0.44512 1.12686,0.78495 1.875,1.03125 0.7614,0.24266 1.63176,0.34374 2.625,0.34375 0.37343,0 0.68749,0.0173 0.96875,0 0.27311,-0.0112 0.40366,-0.0201 0.5,-0.0312 l 0.28125,-0.0312 0.0312,-0.28125 0.15625,-1.09375 0.0625,-0.4375 -0.4375,0.0312 c -0.0531,0.004 -0.24227,0.0145 -0.53125,0.0312 -0.27534,0.0163 -0.56796,0.0312 -0.90625,0.0312 -0.60895,0 -1.11893,-0.0635 -1.53125,-0.15625 -0.4169,-0.099 -0.77727,-0.25074 -1.09375,-0.4375 -0.50374,-0.29698 -0.86092,-0.63176 -1.09375,-1.0625 -0.17912,-0.33513 -0.23372,-0.74032 -0.28125,-1.125 l 5.75,0 0.34375,0 0.375,0 0,-0.375 0,-0.34375 -0.0625,0 c -0.0325,-0.59922 -0.0814,-1.15708 -0.25,-1.625 -0.20225,-0.56721 -0.51133,-1.0725 -0.90625,-1.46875 -0.35572,-0.35384 -0.77007,-0.60859 -1.25,-0.78125 -0.47969,-0.17255 -1.03129,-0.24999 -1.625,-0.25 z m 20.03125,0 c -0.63888,10e-6 -1.26541,0.11534 -1.84375,0.34375 -0.57865,0.22253 -1.09339,0.54558 -1.53125,0.96875 -0.48555,0.46111 -0.82588,0.97276 -1.0625,1.5625 -0.2287,0.58027 -0.34373,1.22591 -0.34375,1.90625 0,0.70775 0.11003,1.39157 0.375,2.03125 l 0.0312,0 c 0.27195,0.64085 0.65807,1.18236 1.15625,1.625 0.43079,0.38036 0.92229,0.67639 1.46875,0.875 0.54634,0.19251 1.13467,0.28124 1.75,0.28125 0.65047,0 1.22091,-0.0794 1.75,-0.28125 0.52826,-0.19906 1.00867,-0.49638 1.4375,-0.875 0.50914,-0.45284 0.92094,-1.01875 1.1875,-1.65625 0.22108,-0.51612 0.30263,-1.06909 0.34375,-1.625 l 0.0625,0 0,-0.375 0,-0.34375 -0.0625,0 c -0.0348,-0.56037 -0.11347,-1.10609 -0.3125,-1.59375 -0.24237,-0.59984 -0.60292,-1.12178 -1.09375,-1.59375 -0.43164,-0.4174 -0.94242,-0.73119 -1.5,-0.9375 -0.55216,-0.2128 -1.14857,-0.31249 -1.8125,-0.3125 z m 11.46875,0 c -0.53575,10e-6 -1.10484,0.13126 -1.75,0.40625 -0.40608,0.1748 -0.7085,0.38205 -1.03125,0.5625 l 0,-0.40625 0,-0.34375 -0.375,0 -1.40625,0 -0.34375,0 0,0.34375 c 0.0181,0.98078 0.0312,1.8518 0.0312,2.625 0.006,0.7754 -10e-6,1.41878 0,1.875 0,1.40016 0.012,2.39686 0,3 -0.0121,0.60305 -0.0312,0.89258 -0.0312,0.96875 l 0,0.34375 0.34375,0 1.4375,0 0.34375,0 0,-0.34375 c -2e-5,-0.0932 -0.0131,-0.54196 -0.0312,-1.46875 -0.0121,-0.93117 0,-1.74408 0,-2.40625 0,-0.38896 -0.006,-0.8867 0,-1.5 0.005,-0.4922 -9.9e-4,-0.67993 0,-0.84375 0.50449,-0.28593 0.95684,-0.5348 1.34375,-0.6875 0.42444,-0.17274 0.78814,-0.25 1.0625,-0.25 0.33981,0 0.59305,0.0686 0.71875,0.125 0.1442,0.0606 0.25273,0.12573 0.34375,0.25 0.0798,0.10873 0.12198,0.2564 0.15625,0.4375 0.0385,0.20327 0.0569,0.42809 0.0625,0.65625 0.006,0.26237 0.0312,0.68184 0.0312,1.25 0.006,0.56322 -2e-5,0.97338 0,1.25 -10e-6,0.83567 -0.0192,1.54535 -0.0312,2.15625 -0.0121,0.61429 -1e-5,0.94673 0,1.03125 l 0,0.34375 0.34375,0 1.4375,0 0.34375,0 0,-0.34375 c -2e-5,-0.0934 -0.0131,-0.40015 -0.0312,-1.03125 -0.012,-0.62751 -1e-5,-1.41861 0,-2.34375 -1e-5,-0.42259 -0.006,-0.85059 0,-1.3125 0.006,-0.47037 -2e-5,-0.9213 0,-1.375 -1e-5,-0.10441 0.004,-0.20135 0,-0.28125 0.47276,-0.25129 0.91151,-0.47062 1.28125,-0.59375 0.43485,-0.14289 0.81479,-0.21875 1.09375,-0.21875 0.50785,0 0.82301,0.11012 1,0.28125 0.164,0.15509 0.29562,0.53241 0.3125,1.15625 0.006,0.27973 -2e-5,0.7075 0,1.28125 0.006,0.56886 0.0312,0.97032 0.0312,1.21875 -1e-5,0.63417 -0.0192,1.31288 -0.0312,2.03125 -0.003,0.35962 0.003,0.64988 0,0.84375 -0.003,0.19387 -0.003,0.34214 0,0.3125 l -0.0625,0.375 0.40625,0 1.0625,0 0.375,0 0.34375,0 0,-0.34375 c -1e-5,-0.0303 0.002,-0.26061 0,-0.34375 -0.004,-0.16652 -0.0192,-0.25545 -0.0312,-0.6875 -0.012,-0.64437 -0.0312,-1.43868 -0.0312,-2.375 0,-0.45061 0.0252,-0.88131 0.0312,-1.28125 0.0122,-0.41251 0,-0.90591 0,-1.5 0,-0.83657 -0.2694,-1.54725 -0.8125,-2.0625 -0.53959,-0.52504 -1.29134,-0.78124 -2.1875,-0.78125 -0.46909,10e-6 -0.9842,0.0974 -1.59375,0.3125 -0.53852,0.19199 -1.12988,0.50189 -1.75,0.84375 -0.20304,-0.28872 -0.41306,-0.58764 -0.75,-0.78125 -0.45841,-0.26746 -1.0197,-0.37499 -1.65625,-0.375 z m 38.8125,0 c -0.53575,10e-6 -1.10483,0.13126 -1.75,0.40625 -0.40608,0.1748 -0.70851,0.38205 -1.03125,0.5625 l 0,-0.40625 0,-0.34375 -0.34375,0 -1.4375,0 -0.34375,0 0,0.34375 c 0.0181,0.98078 0.0312,1.85179 0.0312,2.625 0.006,0.77541 0,1.41881 0,1.875 0,1.40016 0.012,2.39687 0,3 -0.0121,0.60305 -0.0313,0.8916 -0.0312,0.96875 l 0,0.34375 0.34375,0 1.4375,0 0.34375,0 0,-0.34375 c 0,-0.0936 -0.0131,-0.54195 -0.0312,-1.46875 -0.0121,-0.93118 -10e-6,-1.7441 0,-2.40625 0,-0.38896 -0.006,-0.88669 0,-1.5 0.005,-0.49219 -9.9e-4,-0.67988 0,-0.84375 0.5045,-0.28593 0.95685,-0.5348 1.34375,-0.6875 0.42442,-0.17274 0.78814,-0.25 1.0625,-0.25 0.33981,0 0.593,0.0686 0.71875,0.125 0.14419,0.0606 0.2527,0.12571 0.34375,0.25 0.0798,0.10872 0.12196,0.25638 0.15625,0.4375 0.0385,0.20326 0.0881,0.42809 0.0937,0.65625 0.006,0.2624 -3e-5,0.68184 0,1.25 0.006,0.56321 -1e-5,0.97339 0,1.25 0,0.83567 0.012,1.54535 0,2.15625 -0.0121,0.61429 -0.0313,0.94616 -0.0312,1.03125 l 0,0.34375 0.34375,0 1.4375,0 0.34375,0 0,-0.34375 c -2e-5,-0.0933 -0.0131,-0.40014 -0.0312,-1.03125 -0.012,-0.6275 2e-5,-1.41861 0,-2.34375 -10e-6,-0.42258 -0.006,-0.85058 0,-1.3125 0.006,-0.47035 10e-6,-0.92127 0,-1.375 -10e-6,-0.10442 0.004,-0.20133 0,-0.28125 0.47425,-0.25227 0.9418,-0.4703 1.3125,-0.59375 0.43485,-0.14289 0.78355,-0.21875 1.0625,-0.21875 0.50785,0 0.82304,0.11014 1,0.28125 0.16399,0.15509 0.29564,0.53242 0.3125,1.15625 0.006,0.27975 0.0313,0.70753 0.0312,1.28125 0.006,0.56884 -4e-5,0.97026 0,1.21875 -3e-5,0.63418 -0.0192,1.31288 -0.0312,2.03125 -0.003,0.35961 0.003,0.64989 0,0.84375 -0.003,0.19386 -0.003,0.34267 0,0.3125 l -0.0312,0.375 0.375,0 1.09375,0 0.34375,0 0.34375,0 0,-0.34375 c 0,-0.0307 0.002,-0.26058 0,-0.34375 -0.004,-0.16657 -0.0192,-0.25546 -0.0312,-0.6875 -0.012,-0.64436 -0.0312,-1.43867 -0.0312,-2.375 -10e-6,-0.45061 0.0252,-0.88133 0.0312,-1.28125 0.0122,-0.41248 0,-0.90589 0,-1.5 -2e-5,-0.83658 -0.26944,-1.54725 -0.8125,-2.0625 -0.5396,-0.52504 -1.29137,-0.78124 -2.1875,-0.78125 -0.4691,10e-6 -0.98419,0.0974 -1.59375,0.3125 -0.53849,0.19198 -1.12989,0.50189 -1.75,0.84375 -0.20304,-0.28873 -0.4131,-0.58764 -0.75,-0.78125 -0.45842,-0.26746 -1.01972,-0.37499 -1.65625,-0.375 z m 15,0 c -0.60975,10e-6 -1.21093,0.0907 -1.78125,0.3125 -0.56792,0.22342 -1.0444,0.54965 -1.4375,0.96875 -0.43671,0.4693 -0.7778,1.00632 -1,1.5625 -0.22366,0.55983 -0.34374,1.16978 -0.34375,1.84375 0,0.69647 0.17084,1.35574 0.46875,1.9375 0.29473,0.56307 0.63318,1.03357 1.0625,1.40625 0.50096,0.44512 1.12684,0.78495 1.875,1.03125 l 0.0312,0 c 0.7614,0.24266 1.63178,0.34374 2.625,0.34375 0.37343,0 0.6875,0.0173 0.96875,0 0.2731,-0.0112 0.40364,-0.0201 0.5,-0.0312 l 0.28125,-0.0312 0.0312,-0.28125 0.15625,-1.09375 0.0625,-0.4375 -0.4375,0.0312 c -0.0532,0.004 -0.24229,0.0145 -0.53125,0.0312 -0.27536,0.0163 -0.56792,0.0312 -0.90625,0.0312 -0.60896,0 -1.11898,-0.0635 -1.53125,-0.15625 -0.41688,-0.099 -0.77721,-0.25073 -1.09375,-0.4375 -0.50373,-0.29698 -0.86091,-0.63175 -1.09375,-1.0625 -0.17912,-0.33513 -0.23372,-0.74032 -0.28125,-1.125 l 5.75,0 0.34375,0 0.375,0 0,-0.375 0,-0.34375 -0.0625,0 c -0.0325,-0.59921 -0.0814,-1.15706 -0.25,-1.625 -0.20224,-0.56721 -0.51135,-1.0725 -0.90625,-1.46875 -0.35572,-0.35385 -0.77007,-0.60859 -1.25,-0.78125 -0.47968,-0.17255 -1.03126,-0.24999 -1.625,-0.25 z m 14.09375,0 c -0.60977,10e-6 -1.21096,0.0907 -1.78125,0.3125 -0.56794,0.22343 -1.04438,0.54967 -1.4375,0.96875 -0.43671,0.46931 -0.77779,1.00634 -1,1.5625 -0.22366,0.55983 -0.34372,1.16978 -0.34375,1.84375 0,0.69648 0.13964,1.35576 0.4375,1.9375 0.29475,0.56306 0.66444,1.03357 1.09375,1.40625 0.50098,0.44512 1.12686,0.78495 1.875,1.03125 0.76139,0.24266 1.66304,0.34374 2.65625,0.34375 0.37343,0 0.68746,0.0173 0.96875,0 0.2731,-0.0112 0.4036,-0.0201 0.5,-0.0312 l 0.25,-0.0312 0.0625,-0.28125 0.15625,-1.09375 0.0625,-0.4375 -0.4375,0.0312 c -0.0532,0.004 -0.24226,0.0145 -0.53125,0.0312 -0.27536,0.0163 -0.56796,0.0312 -0.90625,0.0312 -0.60895,0 -1.15018,-0.0635 -1.5625,-0.15625 -0.41689,-0.099 -0.77729,-0.25075 -1.09375,-0.4375 -0.50373,-0.29699 -0.82971,-0.63178 -1.0625,-1.0625 -0.17912,-0.33512 -0.2337,-0.7403 -0.28125,-1.125 l 5.75,0 0.34375,0 0.34375,0 0,-0.375 0,-0.34375 -0.0625,0 c -0.0325,-0.59922 -0.0814,-1.15708 -0.25,-1.625 -0.20223,-0.56723 -0.48013,-1.07251 -0.875,-1.46875 -0.35571,-0.35383 -0.80126,-0.60858 -1.28125,-0.78125 -0.47968,-0.17255 -1.00004,-0.24999 -1.59375,-0.25 z m 14.40625,0 c -0.60977,10e-6 -1.21097,0.0907 -1.78125,0.3125 -0.56794,0.22343 -1.04439,0.54967 -1.4375,0.96875 -0.43672,0.4693 -0.7778,1.00632 -1,1.5625 -0.22366,0.55983 -0.34373,1.16978 -0.34375,1.84375 0,0.69648 0.17088,1.35575 0.46875,1.9375 0.29475,0.56306 0.6332,1.03357 1.0625,1.40625 0.50098,0.44512 1.12687,0.78495 1.875,1.03125 0.7614,0.24266 1.66303,0.34374 2.65625,0.34375 0.37343,0 0.68752,0.0173 0.96875,0 0.2731,-0.0112 0.40363,-0.0201 0.5,-0.0312 l 0.28125,-0.0312 0.0312,-0.28125 0.15625,-1.09375 0.0625,-0.4375 -0.4375,0.0312 c -0.0532,0.004 -0.24225,0.0145 -0.53125,0.0312 -0.27536,0.0163 -0.56797,0.0312 -0.90625,0.0312 -0.60896,0 -1.11895,-0.0635 -1.53125,-0.15625 -0.41691,-0.099 -0.77728,-0.25074 -1.09375,-0.4375 -0.50374,-0.29698 -0.86091,-0.63175 -1.09375,-1.0625 -0.17912,-0.33513 -0.23371,-0.74031 -0.28125,-1.125 l 5.75,0 0.34375,0 0.34375,0 0.0312,0 -0.0312,-0.375 0,-0.34375 -0.0625,0 c -0.0325,-0.59893 -0.0502,-1.15728 -0.21875,-1.625 -0.20223,-0.5672 -0.5113,-1.07249 -0.90625,-1.46875 -0.35571,-0.35384 -0.80128,-0.60858 -1.28125,-0.78125 -0.47969,-0.17255 -1.00005,-0.24999 -1.59375,-0.25 z m 30.8125,0 c -0.42984,10e-6 -0.91171,0.096 -1.5,0.28125 -0.45138,0.13918 -1.05701,0.42473 -1.65625,0.71875 l 0,-0.4375 0,-0.34375 -0.34375,0 -1.4375,0 -0.34375,0 0,0.34375 c 0.0181,0.88545 0.0312,1.71556 0.0312,2.5 0.006,0.78643 -1e-5,1.47756 0,2.0625 0,1.27166 0.012,2.23175 0,2.875 -0.0121,0.64211 -0.0313,0.9553 -0.0312,1.03125 l 0,0.34375 0.34375,0 1.4375,0 0.34375,0 0,-0.34375 c -2e-5,-0.0913 -0.0131,-0.52189 -0.0312,-1.4375 -0.0121,-0.9144 -3e-5,-1.6984 0,-2.34375 0,-0.49539 -0.006,-1.05431 0,-1.65625 0.005,-0.45224 -10e-4,-0.5998 0,-0.75 0.48765,-0.26576 0.96334,-0.51206 1.4375,-0.6875 0.51901,-0.19202 0.94552,-0.28125 1.25,-0.28125 0.5561,0 0.8472,0.14014 1,0.3125 0.16187,0.18262 0.2956,0.55776 0.3125,1.15625 0.006,0.25658 0.0312,0.68186 0.0312,1.25 0.006,0.5632 2e-5,0.99344 0,1.28125 -1e-5,0.19975 -0.0192,0.71771 -0.0312,1.59375 -0.006,0.87576 0.005,1.42688 0,1.5625 l -0.0312,0.34375 0.375,0 1.09375,0 0.34375,0 0.34375,0 0,-0.34375 c -10e-6,-0.0259 10e-4,-0.27295 0,-0.34375 -0.004,-0.18038 -0.0183,-0.3297 -0.0312,-0.875 -0.0121,-0.76355 -10e-6,-1.36978 0,-1.875 -10e-6,-0.31595 -0.006,-0.74286 0,-1.25 0.0122,-0.51732 -10e-6,-1.10714 0,-1.8125 -10e-6,-0.85179 -0.26787,-1.577 -0.8125,-2.09375 -0.53418,-0.51975 -1.25299,-0.78124 -2.09375,-0.78125 z m 17.59375,0 c -0.60976,10e-6 -1.21096,0.0907 -1.78125,0.3125 -0.56793,0.22343 -1.04439,0.54967 -1.4375,0.96875 -0.43672,0.46931 -0.77778,1.00634 -1,1.5625 -0.22364,0.55981 -0.34378,1.16975 -0.34375,1.84375 0,0.69647 0.17082,1.35573 0.46875,1.9375 0.29475,0.56307 0.66447,1.03358 1.09375,1.40625 0.50097,0.44513 1.12688,0.78495 1.875,1.03125 0.76138,0.24266 1.63175,0.34374 2.625,0.34375 0.37343,0 0.68748,0.0173 0.96875,0 0.27311,-0.0112 0.40363,-0.0201 0.5,-0.0312 l 0.28125,-0.0312 0.0312,-0.28125 0.15625,-1.09375 0.0625,-0.4375 -0.4375,0.0312 c -0.0532,0.004 -0.24225,0.0145 -0.53125,0.0312 -0.27534,0.0163 -0.56796,0.0312 -0.90625,0.0312 -0.60896,0 -1.11893,-0.0635 -1.53125,-0.15625 -0.4169,-0.099 -0.77727,-0.25074 -1.09375,-0.4375 -0.50373,-0.29699 -0.86095,-0.63178 -1.09375,-1.0625 -0.17912,-0.33513 -0.23373,-0.74032 -0.28125,-1.125 l 5.75,0 0.34375,0 0.375,0 0,-0.375 0,-0.34375 -0.0625,0 c -0.0325,-0.59922 -0.0814,-1.15709 -0.25,-1.625 -0.20223,-0.56723 -0.51138,-1.07251 -0.90625,-1.46875 -0.35573,-0.35385 -0.7701,-0.60859 -1.25,-0.78125 -0.47969,-0.17255 -1.03128,-0.24999 -1.625,-0.25 z m -105.15625,0.125 c -0.2663,0.0112 -0.43407,0.0253 -0.53125,0.0312 l -0.28125,0.0312 -0.0312,0.28125 -0.15625,1.125 -0.0625,0.40625 0.4375,-0.0312 c 0.32643,-0.0168 0.56123,-0.02 0.75,-0.0312 0.18368,-0.0106 0.42072,-0.0312 0.6875,-0.0312 0.4225,0 0.78858,0.0207 1.09375,0.0625 0.30185,0.0362 0.57721,0.0985 0.8125,0.1875 0.33561,0.12613 0.56503,0.31583 0.71875,0.53125 0.0953,0.13358 0.10495,0.36738 0.15625,0.5625 -0.65848,0.0599 -1.29943,0.11712 -1.84375,0.21875 -0.66545,0.11968 -1.2005,0.27439 -1.625,0.4375 -0.6662,0.25479 -1.19278,0.59121 -1.59375,1.03125 -0.40376,0.44435 -0.62501,1.01767 -0.625,1.625 0,0.57107 0.18416,1.08065 0.53125,1.5 0.33967,0.40216 0.78683,0.71264 1.3125,0.9375 0.39513,0.17058 0.85272,0.28768 1.375,0.375 0.51937,0.0868 1.01663,0.15624 1.53125,0.15625 0.79631,0 1.45361,-0.0223 1.96875,-0.0625 0.50125,-0.0335 0.75875,-0.0546 0.84375,-0.0625 l 0.34375,-0.0312 0,-0.3125 c -10e-6,-0.0562 -0.006,-0.53547 0,-1.40625 0.005,-0.7761 -5.9e-4,-1.84909 0,-3.03125 l 0,-0.375 0,-0.34375 -0.0625,0 c -0.0253,-0.63608 -0.0498,-1.21543 -0.21875,-1.625 -0.19484,-0.4785 -0.48828,-0.89242 -0.875,-1.21875 -0.41609,-0.347 -0.92811,-0.57476 -1.53125,-0.71875 -0.58953,-0.14817 -1.26503,-0.21874 -2,-0.21875 -0.4689,1e-5 -0.84119,-0.0175 -1.125,0 z m 68.75,0 c -0.94198,10e-6 -1.75539,0.0521 -2.4375,0.15625 -0.68133,0.0992 -1.31926,0.29692 -1.90625,0.5625 -0.82244,0.37153 -1.49762,0.88545 -2,1.53125 -0.51013,0.6557 -0.74998,1.43039 -0.75,2.28125 0,0.83107 0.15827,1.56038 0.53125,2.15625 0.35917,0.57387 0.83146,1.01852 1.40625,1.375 0.57942,0.37337 1.2688,0.64354 2.0625,0.8125 0.77123,0.15854 1.54708,0.24787 2.28125,0.25 -0.0531,0.34468 -0.10958,0.68892 -0.28125,0.9375 -0.2183,0.32043 -0.6185,0.61318 -1.28125,0.84375 -0.42945,0.14635 -0.93016,0.22768 -1.46875,0.28125 -0.54775,0.0599 -1.17762,0.11397 -1.875,0.125 l -0.375,0 0.0312,0.375 0.15625,1.09375 0.0312,0.28125 0.3125,0 c 1.06619,0 1.98279,-0.0675 2.75,-0.21875 0.75855,-0.14379 1.42024,-0.33111 1.96875,-0.59375 0.69903,-0.34725 1.23849,-0.83956 1.625,-1.4375 0.40793,-0.62036 0.59373,-1.43941 0.59375,-2.4375 -10e-6,-0.52048 0.006,-1.09259 0,-1.71875 -0.006,-0.62411 0,-1.24202 0,-1.84375 -10e-6,-0.88678 -0.006,-1.79941 0,-2.78125 0.01,-0.77877 0.0293,-1.07058 0.0312,-1.3125 5.2e-4,-0.0633 0,-0.31589 0,-0.34375 l 0,-0.375 -0.375,0 c -0.12496,10e-6 -0.22891,0 -0.34375,0 -0.0626,0 -0.12786,0 -0.1875,0 -0.16293,10e-6 -0.33106,10e-6 -0.5,0 z m 5.1875,0 c -0.26632,0.0112 -0.43409,0.0253 -0.53125,0.0312 l -0.28125,0.0312 -0.0312,0.28125 -0.15625,1.125 -0.0625,0.40625 0.4375,-0.0312 c 0.32642,-0.0168 0.56121,-0.02 0.75,-0.0312 0.18366,-0.0106 0.4207,-0.0312 0.6875,-0.0312 0.42252,0 0.7886,0.0207 1.09375,0.0625 0.30184,0.0362 0.5772,0.0985 0.8125,0.1875 0.33563,0.12613 0.5651,0.31589 0.71875,0.53125 0.0968,0.1357 0.13614,0.36319 0.1875,0.5625 -0.66095,0.06 -1.32898,0.1168 -1.875,0.21875 -0.66544,0.11968 -1.20051,0.27438 -1.625,0.4375 -0.6662,0.25479 -1.19278,0.5912 -1.59375,1.03125 -0.40379,0.44436 -0.62498,0.98644 -0.625,1.59375 0,0.57107 0.18414,1.1119 0.53125,1.53125 0.33968,0.40217 0.78688,0.71264 1.3125,0.9375 0.39514,0.17058 0.85273,0.28768 1.375,0.375 0.51937,0.0868 1.01665,0.15624 1.53125,0.15625 0.79633,0 1.4536,-0.0223 1.96875,-0.0625 0.50125,-0.0335 0.75877,-0.0546 0.84375,-0.0625 l 0.34375,-0.0312 0,-0.3125 c -10e-6,-0.0561 -0.006,-0.53546 0,-1.40625 0.005,-0.77611 -6.1e-4,-1.8491 0,-3.03125 l 0,-0.375 0,-0.34375 -0.0625,0 c -0.0253,-0.63608 -0.0498,-1.21543 -0.21875,-1.625 -0.19485,-0.47851 -0.48833,-0.89243 -0.875,-1.21875 -0.41608,-0.347 -0.92807,-0.57476 -1.53125,-0.71875 -0.58952,-0.14817 -1.26505,-0.21874 -2,-0.21875 -0.46888,1e-5 -0.84123,-0.0175 -1.125,0 z m -77.78125,0.0625 c -0.83364,10e-6 -1.61968,0.071 -2.40625,0.25 -0.7836,0.17395 -1.48095,0.43459 -2.0625,0.78125 -0.64564,0.38223 -1.15921,0.89234 -1.5625,1.5 -0.41021,0.61202 -0.62501,1.29621 -0.625,2.03125 0,0.81204 0.20872,1.58643 0.65625,2.25 0.44587,0.66111 1.06787,1.17104 1.84375,1.5625 0.56785,0.28328 1.20486,0.51144 1.90625,0.65625 0.70103,0.13895 1.45141,0.18749 2.25,0.1875 0.0724,0 0.17867,-1e-5 0.28125,0 0.10863,0 0.17051,-1e-5 0.21875,0 l 0.34375,0 0,-0.3125 0.0937,-0.8125 0.0312,0 0,-0.3125 0.0312,-0.34375 -0.0312,0 0,-0.0312 -0.3125,0 -0.0312,0 -0.3125,-0.0312 0,0.0312 c -0.0927,1e-5 -0.17279,1e-5 -0.25,0 -0.5749,1e-5 -1.14494,-0.0444 -1.65625,-0.125 -0.50499,-0.0796 -0.92254,-0.19979 -1.3125,-0.375 l -0.0312,0 c -0.49479,-0.21868 -0.86116,-0.51417 -1.15625,-0.90625 -0.27799,-0.38097 -0.43751,-0.84261 -0.4375,-1.4375 0,-0.47242 0.15601,-0.9148 0.46875,-1.34375 0.30937,-0.42434 0.70861,-0.73514 1.25,-0.9375 l 0.0312,0 c 0.42334,-0.16402 0.83544,-0.27502 1.28125,-0.34375 0.45094,-0.0739 1.03123,-0.12499 1.6875,-0.125 0.0423,1e-5 0.0767,1e-5 0.125,0 0.0543,1e-5 0.11397,1e-5 0.15625,0 l 0.375,0 -0.0312,-0.375 -0.0937,-1.125 0,-0.3125 -0.34375,0 c -0.0422,1e-5 -0.0839,1e-5 -0.15625,0 -0.0664,1e-5 -0.15243,1e-5 -0.21875,0 z m 102.65625,0 c -0.83365,10e-6 -1.61967,0.071 -2.40625,0.25 -0.78361,0.17395 -1.48095,0.43459 -2.0625,0.78125 -0.64565,0.38223 -1.19047,0.89234 -1.59375,1.5 -0.41022,0.61202 -0.59377,1.2962 -0.59375,2.03125 0,0.81204 0.20871,1.58642 0.65625,2.25 0.44586,0.66111 1.0679,1.17104 1.84375,1.5625 0.56786,0.28328 1.20489,0.51144 1.90625,0.65625 0.70105,0.13895 1.4514,0.18749 2.25,0.1875 0.0724,0 0.17866,-1e-5 0.28125,0 0.10861,0 0.1705,-1e-5 0.21875,0 l 0.3125,0 0.0312,-0.3125 0.0937,-0.8125 0.0312,0 0,-0.3125 0.0312,-0.34375 -0.0312,0 0,-0.0312 -0.3125,0 -0.0312,0 -0.3125,-0.0312 0,0.0312 c -0.0952,1e-5 -0.2023,1e-5 -0.28125,0 -0.57488,1e-5 -1.11369,-0.0444 -1.625,-0.125 -0.50499,-0.0796 -0.95376,-0.19979 -1.34375,-0.375 -0.49478,-0.21868 -0.86116,-0.51417 -1.15625,-0.90625 -0.27799,-0.38096 -0.4375,-0.8426 -0.4375,-1.4375 0,-0.47243 0.15601,-0.91481 0.46875,-1.34375 0.3094,-0.42436 0.7086,-0.73515 1.25,-0.9375 0.42331,-0.16402 0.86669,-0.27502 1.3125,-0.34375 0.45092,-0.0739 1.03124,-0.12499 1.6875,-0.125 0.0423,1e-5 0.0767,1e-5 0.125,0 0.0543,1e-5 0.11398,1e-5 0.15625,0 l 0.34375,0 0,-0.375 -0.0937,-1.125 0,-0.3125 -0.34375,0 c -0.0422,1e-5 -0.0838,1e-5 -0.15625,0 -0.0664,1e-5 -0.15243,1e-5 -0.21875,0 z m -165.40625,1.5 c 0.60749,10e-6 1.06494,0.17036 1.40625,0.5 0.24983,0.23445 0.35104,0.61942 0.46875,1 l -3.90625,0 c 0.16147,-0.37249 0.31836,-0.75885 0.59375,-1 0.38792,-0.34447 0.83095,-0.5 1.4375,-0.5 z m 9.46875,0 c 0.60747,10e-6 1.03371,0.17037 1.375,0.5 0.24983,0.23445 0.35103,0.61941 0.46875,1 l -3.90625,0 c 0.16147,-0.37249 0.31837,-0.75885 0.59375,-1 0.38794,-0.34448 0.8622,-0.5 1.46875,-0.5 z m 85.3125,0 c 0.60749,10e-6 1.03371,0.17037 1.375,0.5 0.24984,0.23445 0.35103,0.61942 0.46875,1 l -3.90625,0 c 0.16148,-0.37249 0.31838,-0.75885 0.59375,-1 0.38792,-0.34447 0.86221,-0.5 1.46875,-0.5 z m 14.0625,0 c 0.60749,10e-6 1.06491,0.17035 1.40625,0.5 0.24983,0.23445 0.35104,0.61942 0.46875,1 l -3.90625,0 c 0.16147,-0.37249 0.31836,-0.75885 0.59375,-1 0.38793,-0.34447 0.83098,-0.5 1.4375,-0.5 z m 14.4375,0 c 0.6075,10e-6 1.03365,0.17034 1.375,0.5 0.24983,0.23445 0.35104,0.61942 0.46875,1 l -3.90625,0 c 0.16147,-0.37249 0.31836,-0.75886 0.59375,-1 0.38792,-0.34447 0.86223,-0.5 1.46875,-0.5 z m 48.40625,0 c 0.6075,10e-6 1.03367,0.17035 1.375,0.5 0.24983,0.23445 0.35102,0.61941 0.46875,1 l -3.90625,0 c 0.16147,-0.37249 0.31836,-0.75885 0.59375,-1 0.38791,-0.34447 0.86224,-0.5 1.46875,-0.5 z m -216.65625,0.0625 c 0.31096,10e-6 0.62513,0.0532 0.90625,0.15625 0.28602,0.098 0.52036,0.22746 0.71875,0.40625 l 0,0.0312 c 0.34325,0.30264 0.58754,0.64799 0.75,1.09375 0.17275,0.45881 0.25,0.9231 0.25,1.40625 -10e-6,0.46037 -0.085,0.89549 -0.25,1.3125 -0.16355,0.41349 -0.38115,0.77414 -0.6875,1.0625 -0.21288,0.20169 -0.45954,0.36128 -0.75,0.46875 -0.28386,0.10697 -0.59503,0.15625 -0.9375,0.15625 -0.30992,0 -0.6038,-0.0365 -0.875,-0.125 -0.27118,-0.0935 -0.48591,-0.23889 -0.6875,-0.40625 -0.37577,-0.31232 -0.6473,-0.6747 -0.8125,-1.09375 -0.17009,-0.43644 -0.25,-0.90643 -0.25,-1.4375 -10e-6,-0.46034 0.0841,-0.91399 0.25,-1.34375 0.17121,-0.42913 0.37753,-0.73733 0.65625,-1 l 0,-0.0312 c 0.24367,-0.23542 0.52022,-0.39583 0.78125,-0.5 0.25732,-0.10266 0.55549,-0.15624 0.9375,-0.15625 z m 74.53125,0 c 0.31096,10e-6 0.59387,0.0532 0.875,0.15625 0.28602,0.098 0.52035,0.22746 0.71875,0.40625 l 0.0312,0.0312 c 0.34324,0.30264 0.58756,0.648 0.75,1.09375 0.17276,0.4588 0.24998,0.92309 0.25,1.40625 -10e-6,0.46036 -0.0851,0.89547 -0.25,1.3125 -0.16354,0.41348 -0.38116,0.77413 -0.6875,1.0625 -0.21288,0.20169 -0.45953,0.36128 -0.75,0.46875 -0.28385,0.10697 -0.59501,0.15625 -0.9375,0.15625 -0.3099,0 -0.60378,-0.0365 -0.875,-0.125 -0.27118,-0.0935 -0.51713,-0.23888 -0.71875,-0.40625 -0.37576,-0.31231 -0.61602,-0.67468 -0.78125,-1.09375 -0.17008,-0.43645 -0.28124,-0.90643 -0.28125,-1.4375 0,-0.46035 0.0841,-0.91399 0.25,-1.34375 0.17121,-0.42912 0.40879,-0.73732 0.6875,-1 l 0,-0.0312 c 0.24367,-0.23541 0.48898,-0.39583 0.75,-0.5 0.25731,-0.10266 0.58671,-0.15624 0.96875,-0.15625 z m 105.0625,0.15625 c 0.008,0.52423 0.0312,1.04076 0.0312,1.53125 0.005,0.46414 -0.001,0.81204 0,1.15625 3.1e-4,0.10233 0,0.25204 0,0.34375 l 0,0.34375 c -8.7e-4,0.59684 0.005,1.16566 0,1.625 -0.004,0.35034 -0.0299,0.43787 -0.0312,0.59375 -0.50963,-0.002 -1.01451,-0.0629 -1.46875,-0.15625 -0.46346,-0.0965 -0.84656,-0.22506 -1.1875,-0.375 -0.49524,-0.21885 -0.86778,-0.52081 -1.15625,-0.90625 -0.27338,-0.37214 -0.43753,-0.79047 -0.4375,-1.34375 0,-0.53363 0.15042,-0.98823 0.4375,-1.40625 0.28362,-0.41294 0.68675,-0.74398 1.25,-0.96875 0.4449,-0.17636 0.8631,-0.28151 1.25,-0.34375 0.36423,-0.0577 0.82421,-0.0886 1.3125,-0.0937 z m -113.75,0.21875 c 0,0.13537 -10e-6,0.27227 0,0.40625 0,0.14515 0,0.27422 0,0.40625 0,0.11172 -10e-6,0.24141 0,0.34375 l 0,0.34375 c -5.2e-4,1.37798 -0.0258,2.53983 -0.0312,3.25 -0.004,0.54709 10e-4,0.6847 0,0.875 -0.50606,-0.007 -1.00596,-0.0364 -1.46875,-0.125 -0.49333,-0.10081 -0.9266,-0.24608 -1.3125,-0.4375 -0.43153,-0.2122 -0.77454,-0.50311 -1.0625,-0.875 -0.27173,-0.35092 -0.40624,-0.77115 -0.40625,-1.28125 0,-0.58164 0.14807,-1.05502 0.4375,-1.46875 0.2921,-0.42248 0.69754,-0.73368 1.25,-0.96875 0.34882,-0.14852 0.76986,-0.28359 1.28125,-0.375 0.40799,-0.0721 0.86072,-0.0787 1.3125,-0.0937 z m 49.4375,2.8125 c 0.002,0.21525 0,0.4451 0,0.625 -1e-5,0.15145 0,0.2509 0,0.375 l 0,0.34375 0,0.34375 c -10e-4,0.36665 0.004,0.72832 0,0.96875 l 0,0.0312 c 0,0.13562 0,0.1324 0,0.21875 -0.0707,0.002 -0.15074,-0.002 -0.21875,0 -0.17249,0.005 -0.32228,10e-6 -0.4375,0 -0.38686,0 -0.74528,-0.0249 -1.09375,-0.0625 -0.33755,-0.0423 -0.63424,-0.10021 -0.90625,-0.1875 -0.34495,-0.10968 -0.60655,-0.25844 -0.78125,-0.4375 -0.15825,-0.16618 -0.21876,-0.37656 -0.21875,-0.6875 0,-0.25863 0.0853,-0.41672 0.28125,-0.59375 0.23201,-0.20484 0.48475,-0.36591 0.78125,-0.46875 0.41954,-0.15005 0.9479,-0.26229 1.59375,-0.34375 0.48035,-0.0646 0.73867,-0.10219 1,-0.125 z m 73.9375,0 c 0.002,0.21525 -2e-5,0.44506 0,0.625 -1e-5,0.15145 0,0.2509 0,0.375 l 0,0.34375 0,0.34375 c -10e-4,0.36665 0.004,0.7283 0,0.96875 l 0,0.0312 c 0,0.13562 0,0.13243 0,0.21875 -0.0707,0.002 -0.15073,-0.002 -0.21875,0 -0.1725,0.005 -0.32226,10e-6 -0.4375,0 -0.38686,0 -0.74532,-0.0249 -1.09375,-0.0625 -0.33755,-0.0423 -0.63426,-0.10021 -0.90625,-0.1875 -0.34494,-0.10968 -0.60654,-0.25843 -0.78125,-0.4375 -0.15825,-0.16618 -0.21877,-0.37656 -0.21875,-0.6875 0,-0.25863 0.0853,-0.41672 0.28125,-0.59375 0.232,-0.20483 0.48477,-0.36591 0.78125,-0.46875 0.41955,-0.15005 0.94791,-0.26229 1.59375,-0.34375 0.48033,-0.0646 0.73866,-0.10219 1,-0.125 z" id="path3671" style="font-size:19.75634766px;font-style:normal;font-variant:normal;font-weight:normal;font-stretch:normal;text-align:start;line-height:100%;writing-mode:lr-tb;text-anchor:start;fill:#666666;fill-opacity:1;stroke:none;font-family:Skia"/>
      <path d="m 557.65699,425.5827 -6.8294,0 0,-59.35444 c 0,-0.40286 -0.13428,-1.03592 -0.42204,-1.86082 -0.55633,-1.59225 -1.55388,-2.80083 -3.01185,-3.62573 -1.17021,-0.63306 -2.5898,-0.94 -4.2396,-0.94 -0.0767,0 -0.21102,0.0384 -0.42204,0.0959 -0.21102,0.0768 -0.34531,0.11511 -0.42205,0.11511 -0.40285,0 -1.03591,0.24939 -1.86082,0.72898 -1.38122,0.74816 -2.3596,1.86082 -2.91592,3.31879 -0.40286,0.90163 -0.61388,1.63061 -0.61388,2.16776 l 0,59.35444 -6.82941,0 0,-59.35444 c 0,-0.0576 -0.0384,-0.36449 -0.1151,-0.92082 -0.21102,-0.84409 -0.5947,-1.66899 -1.15102,-2.49389 -1.24694,-1.72654 -2.82001,-2.74327 -4.77675,-3.01184 0.21102,0 -0.26857,0 -1.43878,0 -0.0767,0 -0.21102,0 -0.42204,0 -0.21102,0 -0.34531,0 -0.40286,0 -0.3453,0 -0.97837,0.24939 -1.88,0.72898 -2.01429,1.03592 -3.14613,2.66654 -3.43389,4.89185 -0.0576,0.0767 -0.0959,0.17265 -0.0959,0.30694 l 0,59.85322 -7.05961,0 0,-59.54628 c 0,-1.38123 0.30694,-2.83919 0.92082,-4.35471 0.28775,-0.63306 0.67143,-1.34286 1.15102,-2.18694 0.95919,-1.72654 2.43633,-3.20368 4.41226,-4.41226 1.95674,-1.20857 4.02858,-1.88001 6.17716,-2.01429 0.53715,-0.0767 1.3045,-0.1151 2.28286,-0.0959 0.0575,-0.0192 0.23021,0.0192 0.51796,0.0959 0.26857,0.0575 0.44123,0.0959 0.51796,0.0959 0.61388,0 1.78409,0.34531 3.52981,1.03592 0.26857,0.0767 0.57551,0.21102 0.92082,0.42204 1.18939,0.69062 2.43633,1.72654 3.74083,3.10777 1.11265,-1.17021 2.07184,-2.03348 2.91592,-2.58981 2.20613,-1.45796 5.08369,-2.18694 8.59431,-2.16776 0.0767,-0.0192 0.24939,0.0192 0.51796,0.0959 0.28775,0.0575 0.46041,0.0959 0.53714,0.0959 0.61388,0 1.72654,0.30694 3.31879,0.94001 3.66409,1.45795 6.11961,3.97103 7.36655,7.57756 0.61388,1.86083 0.92081,3.31878 0.92081,4.35471 l 0,59.54628 0,0 0,0 z" id="path2594" style="fill:#bfff80;fill-rule:evenodd;display:inline"/>
      <polygon points="128.488,23.656 131.432,23.656 131.432,40.96 128.488,40.96 128.488,23.656 " transform="matrix(2.3979656,0,0,2.3979656,256.06967,327.36203)" id="polygon2596" style="fill:#bfff80;fill-rule:evenodd;display:inline"/>
      <path d="m 605.1559,425.5827 -6.82941,0 0,-28.12334 c 0,-0.13429 -0.0408,-0.47959 -0.1151,-1.03592 -0.55632,-2.62817 -2.16776,-4.31634 -4.87266,-5.08369 -0.42204,-0.13429 -1.24935,-0.21102 -2.49389,-0.21102 -0.0767,0 -0.2302,0.0384 -0.46041,0.1151 -0.24939,0.0767 -0.36209,0.0959 -0.36209,0.0959 -0.34771,0 -1.01913,0.24939 -1.97593,0.72899 -1.88,0.90163 -2.97347,2.49388 -3.31878,4.77674 -0.0767,0.0767 -0.1175,0.17265 -0.1175,0.30694 l 0,28.43028 -7.05721,0 0,-41.4944 7.05721,0 c -0.0552,0.63546 -0.0552,1.17021 0,1.6498 2.37878,-1.09346 4.91343,-1.6498 7.61834,-1.6498 0.0743,0 0.26617,0.0408 0.63306,0.11751 0.3477,0.0552 0.55633,0.0935 0.61388,0.0935 1.45796,0 3.24445,0.65224 5.31389,1.97592 1.74812,1.03832 3.14853,2.41715 4.18206,4.14608 1.45795,2.28287 2.18694,4.50817 2.18694,6.63757 l 0,28.5238 -0.002,0 z" id="path2598" style="fill:#bfff80;fill-rule:evenodd;display:inline"/>
      <path d="m 625.70167,391.12873 -6.84859,0 0,21.38986 c 0.0767,0.19183 0.15347,0.51795 0.21102,0.92081 0.49878,2.22532 1.84404,3.74323 4.04777,4.56573 0.47959,0.13428 0.74816,0.21102 0.8249,0.21102 0.0767,0 0.0959,0.0384 0.0959,0.0959 0,0 0.0384,0 0.1151,0 0.0767,0 0.21103,0.0384 0.42205,0.1151 0.19184,0.0767 0.34771,0.0959 0.40286,0.0959 0.0767,0 0.19183,0 0.36448,0 0.17266,0 0.28776,0 0.3645,0 l 0,7.05961 c -2.84159,-0.13668 -5.37144,-0.86327 -7.57757,-2.16776 -1.66898,-0.97837 -3.05022,-2.3596 -4.14608,-4.16287 -1.45557,-2.34041 -2.18455,-4.64246 -2.18455,-6.84619 l 0,-49.07437 7.05721,0 0,20.64169 6.84859,0 0,7.15553 0.002,0 0,0 z" id="path2600" style="fill:#bfff80;fill-rule:evenodd;display:inline"/>
      <path d="m 566.65416,379.77196 c -1.41959,0 -2.7049,-1.09347 -2.7049,-2.57061 l 0,-0.63307 0,0 0,-7.78859 -0.78653,0 0,-2.64736 4.1245,0.0192 0.61388,0 c 1.43877,0 2.7049,1.07429 2.7049,2.55144 l 0,11.069 -3.95185,0 0,0 0,0 z" id="path2604" style="fill:#bfff80;fill-rule:evenodd;display:inline"/>
      <g id="g3524" style="fill:#ffffff">
        <polygon points="64.168,23.48 66.376,23.48 66.376,40.96 64.168,40.96 64.168,23.48 " transform="matrix(2.3979656,0,0,2.3979656,256.06967,327.36203)" id="polygon2586" style="fill:#ffffff;fill-rule:evenodd;display:inline"/>
        <path d="m 441.94078,425.5827 -5.29471,0 0,-31.7107 c 0,-1.43877 -0.51796,-2.68572 -1.55389,-3.72164 -1.03591,-1.03592 -2.28286,-1.55148 -3.72163,-1.55148 -1.45797,0 -2.70491,0.51795 -3.74083,1.55148 -1.03592,1.03592 -1.55389,2.28287 -1.55389,3.72164 l 0,31.7107 -5.27552,0 0,-31.7107 c 0,-2.89674 1.01674,-5.39063 3.08858,-7.46006 2.07184,-2.07185 4.56573,-3.11017 7.48166,-3.11017 2.89674,0 5.39062,1.03832 7.46246,3.11017 2.07184,2.06943 3.10777,4.56332 3.10777,7.46006 l 0,31.7107 0,0 z" id="path2588" style="fill:#ffffff;fill-rule:evenodd;display:inline"/>
        <path d="m 467.03309,415.01007 c 0,2.91592 -1.03592,5.39063 -3.08858,7.46247 -2.07184,2.06945 -4.56573,3.10776 -7.48165,3.10776 -2.89674,0 -5.39063,-1.03831 -7.46247,-3.10776 -2.07184,-2.07184 -3.10776,-4.54655 -3.10776,-7.46247 l 0,-31.7083 5.2947,0 0,31.7107 c 0,1.45796 0.51796,2.68572 1.55388,3.72164 1.03592,1.03832 2.28287,1.55389 3.72165,1.55389 1.45796,0 2.7049,-0.51797 3.74082,-1.55389 1.03592,-1.03592 1.55388,-2.26128 1.55388,-3.72164 l 0,-31.7107 5.27553,0 0,31.7083 0,0 z" id="path2590" style="fill:#ffffff;fill-rule:evenodd;display:inline"/>
        <polygon points="89.624,23.328 92.056,23.328 94.04,28.8 96.024,23.328 98.448,23.328 95.248,32.144 98.448,40.96 98.448,40.96 96.024,40.96 94.04,35.488 92.056,40.96 89.624,40.96 92.824,32.144 " transform="matrix(2.3979656,0,0,2.3979656,256.06967,327.36203)" id="polygon2592" style="fill:#ffffff;fill-rule:evenodd;display:inline"/>
        <path d="m 412.71809,380.13646 c -1.41959,0 -2.68572,-1.09348 -2.68572,-2.57062 l 0,-0.63306 0,0 0,-7.7886 -0.80572,0 0,-2.64735 2.6916,0.0192 0.61388,0 c 1.41959,0 2.68571,1.07429 2.68571,2.55144 l 0,11.06901 -2.49975,0 0,0 0,0 z" id="path2602" style="fill:#ffffff;fill-rule:evenodd;display:inline"/>
        <path d="m 388.46926,352.8768 0,62 c 0,2.91592 1.02191,5.39691 3.09375,7.46875 1.94604,1.94379 4.27802,2.97534 6.96875,3.09375 l 0,0.0312 0.53125,0 5.375,0 0,-5.3125 -5.375,0 c -1.72641,0 -2.71408,-0.49039 -3.75,-1.46875 -1.03591,-0.95679 -1.5625,-2.1067 -1.5625,-3.46875 l 0,-62.34375 -5.28125,0 z" id="polygon3803" style="fill:#ffffff;fill-rule:evenodd;display:inline"/>
      </g>
      <path d="m 331.79042,510.93347 c -21.29012,0 -39.7658,-16.13992 -39.7658,-37.41096 l -0.0191,-21.99227 0,-6.58604 -13.49776,0 0,-36.6513 56.92036,0.26806 17.80557,0.0383 c 21.30926,0 39.76579,16.12071 39.76579,37.41086 l 0,64.92334 -61.20904,0 0,0 0,0 z" transform="matrix(1.0429295,0,0,1.0429295,-46.853192,-90.016462)" id="path3543" style="opacity:0.26000001;fill:#000000;fill-opacity:1;fill-rule:evenodd;stroke:none;stroke-width:1;marker:none;visibility:visible;display:inline;overflow:visible;filter:url(#filter3573);enable-background:accumulate"/>
      <path d="m 354.82505,425.26498 c 0,-14.72024 0,-49.44521 0,-49.44521 0,-16.51906 -14.4866,-29.9098 -32.36077,-29.9098 l -18.55166,0 0,-0.0399 -50.17518,-0.21924 0,18.04093 c 0,0 4.09686,0 7.7022,0 5.37631,0 6.32609,3.71136 6.32609,8.84831 l 0.0399,31.89432 c 0,16.51907 14.48666,29.90979 32.34088,29.90979 l 44.08203,0 c 5.65135,0 10.59654,-3.57895 10.59654,-9.07924 z" id="path2576" style="fill:url(#linearGradient3538);fill-opacity:1;fill-rule:evenodd;display:inline"/>
      <path d="m 142.9375,500.53125 c -10.75182,-7.40935 -18.36682,-15.92034 -24.78125,-27.1875 -12.64444,-23.35809 -9.68791,-34.95326 -41,-37.6875 -9.036289,0 -15.051217,-2 -24.5625,-2 l 0,3.3125 c 10e-7,10e-6 3.758681,1.90749 7.0625,1.90749 4.926697,1e-5 5.78125,3.41765 5.78125,8.125 l 0.03125,29.15501 c -3e-6,15.13758 13.295158,27.40625 29.65625,27.40625 l 40.375,0 c 2.96358,0 5.62572,-1.16787 7.4375,-3.03125 z" transform="matrix(1.0484996,0,0,1.0484996,200.58,-95.364589)" id="path3419" style="opacity:0.17514122;fill:url(#linearGradient4136);fill-opacity:1;fill-rule:nonzero;display:inline;filter:url(#filter3291)"/>
      <path d="m 105.51844,438.54009 c -3.83671,0 -7.245744,1.42445 -9.984837,4.1914 -2.737725,2.76548 -4.1752,6.21796 -4.17519,10.11421 l 0,19.69466 8.932957,0 0,-19.69466 c 0,-1.49338 0.48728,-2.66108 1.55355,-3.73818 1.06977,-1.08055 2.2026,-1.56971 3.67352,-1.56971 1.50175,0 2.61758,0.4867 3.68969,1.56971 1.06628,1.0771 1.55356,2.2448 1.55356,3.73818 l 0,19.69466 8.93297,0 0,-19.69466 c 0,-1.49338 0.48728,-2.66108 1.55356,-3.73818 1.07211,-1.08301 2.18794,-1.56971 3.68971,-1.56971 1.47093,0 2.60373,0.48916 3.6735,1.56971 1.06627,1.0771 1.55356,2.2448 1.55356,3.73818 l 0.0486,23.01222 c 0,4.90894 -4.67486,9.04618 -10.68071,9.04618 l -28.805549,-0.11326 c -4.634707,0 -8.593128,-4.51117 -8.593128,-10.30852 l 0,-43.33528 -8.447462,0 0,45.00209 c 0,4.77471 1.747181,8.96178 5.146164,12.3476 2.905193,2.8676 6.399074,4.56445 10.324689,4.98427 l 0,0.16191 32.074486,0 c 4.92872,0 9.25884,-1.83265 12.75212,-5.38904 l 0.0162,0 c 2.97102,-3.05245 4.70787,-6.70998 5.12997,-10.82624 l -0.0324,-24.58193 c 0,-3.89625 -1.43744,-7.34873 -4.17521,-10.11421 -2.73906,-2.76695 -6.14812,-4.1914 -9.98482,-4.1914 -3.76604,0 -7.06133,1.40042 -9.72593,3.96479 -2.65681,-2.56014 -5.92908,-3.96479 -9.69356,-3.96479 z" transform="matrix(1.0484996,0,0,1.0484996,200.58,-95.364589)" id="path2620" style="fill:#000000;fill-opacity:0.08040203;fill-rule:evenodd;stroke:none;stroke-width:4.7667098;marker:none;visibility:visible;display:inline;overflow:visible;filter:url(#filter3546);enable-background:accumulate"/>
      <path d="m 310.46807,364.69038 c -4.02279,0 -7.59716,1.49353 -10.4691,4.39468 -2.87051,2.8996 -4.3777,6.51953 -4.37769,10.60474 l 0,20.64985 9.36621,0 0,-20.64985 c 0,-1.5658 0.51091,-2.79014 1.62889,-3.91948 1.12166,-1.13295 2.30943,-1.64584 3.85169,-1.64584 1.57458,0 2.74453,0.51031 3.86864,1.64584 1.11799,1.12934 1.62891,2.35368 1.62891,3.91948 l 0,20.64985 9.3662,0 0,-20.64985 c 0,-1.5658 0.51092,-2.79014 1.62892,-3.91948 1.1241,-1.13553 2.29405,-1.64584 3.86866,-1.64584 1.54227,0 2.73001,0.51289 3.85165,1.64584 1.11799,1.12934 1.62891,2.35368 1.62891,3.91948 l 0.0509,24.12831 c 0,5.14702 -4.90159,9.48491 -11.19872,9.48491 l -30.2026,-0.11875 c -4.85949,0 -9.00989,-4.72996 -9.00989,-10.80848 l 0,-45.43702 -8.85716,0 0,47.18467 c 0,5.00628 1.83192,9.39642 5.39575,12.94646 3.04609,3.00667 6.70943,4.95566 10.82542,5.39584 l 33.6301,-8e-5 c 5.16776,0 9.70788,-1.92153 13.37059,-5.6504 l 0.017,0 c 3.1151,-3.2005 4.9362,-7.03541 5.37877,-11.35131 l -0.0339,-25.77415 c 0,-4.08521 -1.50714,-7.70514 -4.37769,-10.60474 -2.87191,-2.90115 -6.44631,-4.39468 -10.46908,-4.39468 -3.94869,0 -7.4038,1.46834 -10.19764,4.15708 -2.78567,-2.68431 -6.21663,-4.15708 -10.16369,-4.15708 z" id="path4130" style="fill:#ffffff;fill-opacity:1;fill-rule:evenodd;stroke:none;stroke-width:1;marker:none;visibility:visible;display:inline;overflow:visible;enable-background:accumulate"/>
      <path d="m 304.96011,413.21566 0,9.25 22,0 c 5.16774,0 9.68104,-1.92738 13.34374,-5.65625 l 0.0313,0 c 3.11511,-3.20051 4.93243,-7.02785 5.375,-11.34375 l 0,-5.25 -9.34375,0 0,3.59375 c 0,5.14705 -4.89038,9.46875 -11.18751,9.46875 l -20.21874,-0.0625 z" id="path4132" style="opacity:0.3;fill:#52a800;fill-opacity:1;fill-rule:evenodd;stroke:none;stroke-width:1;marker:none;visibility:visible;display:inline;overflow:visible;enable-background:accumulate"/>
      <path d="m 299.85338,441.19135 c -21.29012,0 -39.76579,-16.13992 -39.76579,-37.41096 l -0.0191,-25.82763 0,-6.58603 -13.49775,0 0,-32.81595 56.92035,0.26806 17.80558,0.0383 c 21.30925,0 39.76578,16.12071 39.76578,37.41085 l 0,64.92335 -61.20904,0 0,0 0,0 z m 52.53596,-17.41567 c 0,-14.14342 0,-47.50768 0,-47.50768 0,-15.87175 -13.91893,-28.73777 -31.0927,-28.73777 l -17.82471,0 0,-0.0383 -48.20903,-0.21065 0,15.41237 c 0,0 1.93631,0 5.40037,0 3.6664,0 8.0782,3.44547 8.0782,8.50158 l 0.0383,32.56616 c 0,15.87176 13.919,28.73776 31.0736,28.73776 l 42.35465,0 c 5.42989,0 10.18131,-3.43871 10.18131,-8.72347 z" id="path6141" style="fill:#ffffff;fill-opacity:1;fill-rule:evenodd;stroke:none;stroke-width:1;marker:none;visibility:visible;display:inline;overflow:visible;enable-background:accumulate"/>
    </g>
    <text x="337.79297" y="1011.9819" transform="scale(1.1483401,0.8708222)" id="text2311" xml:space="preserve" style="font-size:19.75634766px;font-style:normal;font-variant:normal;font-weight:bold;font-stretch:normal;text-align:start;line-height:100%;writing-mode:lr-tb;text-anchor:start;fill:#ffffff;fill-opacity:1;stroke:none;font-family:Skia"><tspan x="337.79297" y="1011.9819" id="tspan2313">from freedom came elegance</tspan></text>
  </g>
</svg>