<?xml version="1.0" encoding="UTF-8"?>
<!DOCTYPE svg PUBLIC "-//W3C//DTD SVG 1.1//EN" "http://www.w3.org/Graphics/SVG/1.1/DTD/svg11.dtd">
<svg version="1.2" width="500mm" height="250mm" viewBox="0 0 50000 25000" preserveAspectRatio="xMidYMid" fill-rule="evenodd" stroke-width="28.222" stroke-linejoin="round" xmlns="http://www.w3.org/2000/svg" xmlns:ooo="http://xml.openoffice.org/svg/export" xmlns:xlink="http://www.w3.org/1999/xlink" xmlns:presentation="http://sun.com/xmlns/staroffice/presentation" xmlns:smil="http://www.w3.org/2001/SMIL20/" xmlns:anim="urn:oasis:names:tc:opendocument:xmlns:animation:1.0" xml:space="preserve">
 <defs class="ClipPathGroup">
  <clipPath id="presentation_clip_path" clipPathUnits="userSpaceOnUse">
   <rect x="0" y="0" width="50000" height="25000"/>
  </clipPath>
  <clipPath id="presentation_clip_path_shrink" clipPathUnits="userSpaceOnUse">
   <rect x="50" y="25" width="49900" height="24950"/>
  </clipPath>
 </defs>
 <defs class="TextShapeIndex">
  <g ooo:slide="id1" ooo:id-list="id3"/>
 </defs>
 <defs class="EmbeddedBulletChars">
  <g id="bullet-char-template-57356" transform="scale(0.00048828125,-0.00048828125)">
   <path d="M 580,1141 L 1163,571 580,0 -4,571 580,1141 Z"/>
  </g>
  <g id="bullet-char-template-57354" transform="scale(0.00048828125,-0.00048828125)">
   <path d="M 8,1128 L 1137,1128 1137,0 8,0 8,1128 Z"/>
  </g>
  <g id="bullet-char-template-10146" transform="scale(0.00048828125,-0.00048828125)">
   <path d="M 174,0 L 602,739 174,1481 1456,739 174,0 Z M 1358,739 L 309,1346 659,739 1358,739 Z"/>
  </g>
  <g id="bullet-char-template-10132" transform="scale(0.00048828125,-0.00048828125)">
   <path d="M 2015,739 L 1276,0 717,0 1260,543 174,543 174,936 1260,936 717,1481 1274,1481 2015,739 Z"/>
  </g>
  <g id="bullet-char-template-10007" transform="scale(0.00048828125,-0.00048828125)">
   <path d="M 0,-2 C -7,14 -16,27 -25,37 L 356,567 C 262,823 215,952 215,954 215,979 228,992 255,992 264,992 276,990 289,987 310,991 331,999 354,1012 L 381,999 492,748 772,1049 836,1024 860,1049 C 881,1039 901,1025 922,1006 886,937 835,863 770,784 769,783 710,716 594,584 L 774,223 C 774,196 753,168 711,139 L 727,119 C 717,90 699,76 672,76 641,76 570,178 457,381 L 164,-76 C 142,-110 111,-127 72,-127 30,-127 9,-110 8,-76 1,-67 -2,-52 -2,-32 -2,-23 -1,-13 0,-2 Z"/>
  </g>
  <g id="bullet-char-template-10004" transform="scale(0.00048828125,-0.00048828125)">
   <path d="M 285,-33 C 182,-33 111,30 74,156 52,228 41,333 41,471 41,549 55,616 82,672 116,743 169,778 240,778 293,778 328,747 346,684 L 369,508 C 377,444 397,411 428,410 L 1163,1116 C 1174,1127 1196,1133 1229,1133 1271,1133 1292,1118 1292,1087 L 1292,965 C 1292,929 1282,901 1262,881 L 442,47 C 390,-6 338,-33 285,-33 Z"/>
  </g>
  <g id="bullet-char-template-9679" transform="scale(0.00048828125,-0.00048828125)">
   <path d="M 813,0 C 632,0 489,54 383,161 276,268 223,411 223,592 223,773 276,916 383,1023 489,1130 632,1184 813,1184 992,1184 1136,1130 1245,1023 1353,916 1407,772 1407,592 1407,412 1353,268 1245,161 1136,54 992,0 813,0 Z"/>
  </g>
  <g id="bullet-char-template-8226" transform="scale(0.00048828125,-0.00048828125)">
   <path d="M 346,457 C 273,457 209,483 155,535 101,586 74,649 74,723 74,796 101,859 155,911 209,963 273,989 346,989 419,989 480,963 531,910 582,859 608,796 608,723 608,648 583,586 532,535 482,483 420,457 346,457 Z"/>
  </g>
  <g id="bullet-char-template-8211" transform="scale(0.00048828125,-0.00048828125)">
   <path d="M -4,459 L 1135,459 1135,606 -4,606 -4,459 Z"/>
  </g>
  <g id="bullet-char-template-61548" transform="scale(0.00048828125,-0.00048828125)">
   <path d="M 173,740 C 173,903 231,1043 346,1159 462,1274 601,1332 765,1332 928,1332 1067,1274 1183,1159 1299,1043 1357,903 1357,740 1357,577 1299,437 1183,322 1067,206 928,148 765,148 601,148 462,206 346,322 231,437 173,577 173,740 Z"/>
  </g>
 </defs>
 <g>
  <g id="id2" class="Master_Slide">
   <g id="bg-id2" class="Background"/>
   <g id="bo-id2" class="BackgroundObjects"/>
  </g>
 </g>
 <g class="SlideGroup">
  <g>
   <g id="container-id1">
    <g id="id1" class="Slide" clip-path="url(#presentation_clip_path)">
     <g class="Page">
      <g class="com.sun.star.drawing.CustomShape">
       <desc>Feral Gamemode
       </desc>
       <g id="id3">
        <rect class="BoundingBox" stroke="none" fill="none" x="999" y="7750" width="48001" height="10000"/>
        <g style="opacity: 0.850980392156863">
         <g>
          <defs>
           <linearGradient id="gradient1" x1="10500" y1="-1750" x2="39499" y2="27249" gradientUnits="userSpaceOnUse">
            <stop offset="0" style="stop-color:rgb(0,169,51)"/>
            <stop offset="0.5" style="stop-color:rgb(241,13,12)"/>
            <stop offset="1" style="stop-color:rgb(0,169,51)"/>
           </linearGradient>
          </defs>
          <path style="fill:url(#gradient1)" d="M 4963,17444 L 7156,10263 5411,10263 4125,15516 2745,10263 1000,10263 3229,17444 4963,17444 Z M 9739,13056 L 9739,7750 8087,7750 8087,17444 9739,17444 9739,15090 10399,14279 11921,17444 13855,17444 11531,12976 13701,10263 11826,10263 9739,13056 Z M 14916,17444 L 18784,17444 19141,17434 19468,17403 19770,17350 20046,17276 20300,17178 20421,17121 20536,17058 20646,16987 20753,16911 20855,16828 20954,16740 21049,16644 21140,16541 21225,16432 21306,16316 21381,16195 21451,16069 21515,15939 21574,15805 21626,15667 21672,15527 21711,15384 21744,15240 21769,15094 21788,14947 21799,14799 21803,14652 21798,14475 21782,14302 21756,14133 21718,13970 21670,13811 21610,13654 21540,13503 21457,13355 21364,13211 21259,13071 21141,12934 21012,12800 20871,12670 20719,12542 20376,12297 20670,12070 20919,11843 21026,11729 21122,11615 21209,11498 21285,11381 21351,11259 21406,11136 21454,11008 21491,10877 21519,10740 21540,10600 21552,10454 21556,10302 21553,10175 21543,10048 21525,9921 21502,9795 21473,9670 21436,9546 21395,9424 21348,9303 21295,9186 21236,9070 21172,8958 21103,8849 21029,8744 20949,8643 20865,8546 20777,8454 20582,8283 20480,8207 20376,8137 20267,8073 20155,8015 20039,7964 19918,7917 19662,7843 19383,7791 19079,7760 18749,7750 14916,7750 14916,17444 Z M 16685,9412 L 18607,9412 18758,9417 18898,9429 19030,9451 19151,9482 19263,9521 19365,9567 19458,9623 19542,9688 19616,9761 19680,9842 19734,9931 19779,10029 19813,10135 19837,10249 19853,10371 19858,10502 19853,10635 19837,10759 19813,10876 19779,10983 19734,11082 19680,11173 19616,11255 19542,11328 19458,11393 19365,11450 19263,11498 19151,11537 19030,11568 18898,11589 18758,11602 18607,11606 16685,11606 16685,9412 Z M 16685,13268 L 18796,13268 18953,13273 19100,13289 19237,13312 19363,13348 19481,13392 19589,13447 19686,13512 19774,13586 19851,13670 19918,13764 19975,13867 20021,13981 20058,14105 20084,14237 20100,14379 20105,14532 20100,14681 20084,14823 20058,14954 20021,15074 19975,15187 19918,15290 19851,15382 19774,15467 19686,15539 19589,15604 19481,15658 19363,15702 19237,15738 19100,15763 18953,15778 18796,15782 16685,15782 16685,13268 Z M 28643,17218 L 28546,17108 28465,17003 28400,16900 28372,16850 28349,16799 28328,16748 28311,16695 28297,16642 28286,16586 28276,16529 28271,16468 28266,16341 28266,12351 28256,12085 28225,11835 28173,11604 28102,11389 28009,11190 27895,11009 27762,10845 27608,10698 27434,10568 27241,10456 27027,10361 26794,10282 26540,10222 26266,10178 25973,10152 25660,10143 25346,10152 25052,10182 24778,10230 24522,10298 24286,10385 24069,10492 23870,10618 23692,10763 23532,10928 23390,11113 23267,11317 23164,11540 23079,11783 23012,12046 22965,12328 22935,12630 24527,12630 24546,12496 24568,12373 24596,12263 24631,12162 24671,12071 24718,11992 24774,11921 24837,11859 24909,11806 24989,11761 25080,11725 25180,11695 25293,11674 25415,11658 25695,11646 25918,11658 26019,11671 26112,11691 26198,11717 26277,11748 26348,11784 26412,11826 26467,11873 26516,11927 26557,11986 26590,12050 26617,12120 26635,12196 26646,12278 26650,12364 26649,12409 26645,12452 26639,12494 26631,12535 26620,12576 26608,12615 26592,12653 26575,12688 26556,12723 26534,12756 26511,12788 26486,12819 26459,12847 26430,12874 26399,12900 26367,12923 26291,12967 26225,13002 26155,13031 26069,13057 25956,13085 25803,13115 25329,13202 24669,13335 24440,13385 24226,13448 24027,13522 23843,13608 23674,13706 23521,13815 23382,13937 23258,14071 23149,14217 23055,14376 22975,14548 22909,14731 22859,14929 22822,15137 22801,15359 22794,15595 22803,15832 22829,16058 22873,16273 22931,16476 23007,16667 23098,16843 23203,17007 23323,17157 23456,17290 23603,17407 23762,17510 23933,17594 24116,17662 24309,17709 24513,17739 24728,17749 24859,17746 24989,17733 25119,17714 25245,17687 25370,17651 25495,17608 25618,17557 25739,17497 25859,17429 25977,17354 26210,17177 26439,16969 26662,16726 26664,16855 26670,16965 26681,17061 26690,17104 26700,17145 26711,17184 26724,17222 26739,17258 26757,17295 26799,17368 26851,17444 28643,17444 28643,17218 Z M 26650,14558 L 26645,14754 26628,14940 26601,15114 26563,15276 26515,15427 26457,15566 26388,15692 26309,15806 26222,15908 26123,15996 26015,16073 25899,16134 25773,16183 25637,16219 25494,16240 25341,16247 25240,16244 25144,16232 25053,16213 24967,16187 24887,16154 24815,16114 24747,16067 24685,16015 24631,15955 24582,15889 24541,15819 24507,15742 24480,15659 24461,15573 24449,15479 24445,15382 24448,15281 24457,15186 24473,15097 24496,15015 24525,14939 24563,14868 24607,14802 24660,14741 24721,14685 24789,14632 24866,14586 24952,14541 25047,14501 25151,14464 25389,14399 25955,14279 26221,14220 26317,14195 26395,14171 26462,14147 26523,14121 26583,14090 26650,14053 26650,14558 Z M 34953,12577 L 34936,12300 34897,12037 34834,11790 34751,11557 34644,11341 34516,11140 34368,10957 34200,10791 34012,10643 33803,10513 33577,10402 33332,10310 33070,10237 32791,10185 32493,10153 32181,10143 31886,10153 31605,10185 31340,10237 31090,10309 30858,10400 30643,10511 30446,10640 30267,10787 30106,10950 29965,11131 29845,11327 29745,11540 29666,11768 29610,12011 29575,12267 29563,12537 29569,12714 29586,12883 29616,13045 29656,13197 29707,13340 29767,13473 29801,13536 29837,13596 29876,13653 29917,13707 30001,13796 30088,13875 30182,13947 30290,14017 30416,14083 30566,14152 30955,14305 32924,14997 33067,15052 33185,15109 33236,15138 33281,15169 33321,15201 33357,15235 33387,15269 33412,15307 33433,15346 33451,15388 33463,15432 33472,15479 33477,15528 33479,15582 33474,15663 33458,15738 33431,15810 33395,15878 33349,15941 33293,15998 33227,16051 33153,16099 33070,16142 32978,16180 32877,16212 32767,16239 32650,16260 32525,16275 32252,16287 32093,16284 31945,16272 31807,16253 31679,16226 31561,16190 31454,16147 31405,16122 31358,16094 31315,16066 31273,16034 31212,15979 31184,15951 31159,15921 31135,15890 31114,15857 31093,15822 31074,15786 31057,15745 31040,15701 31010,15604 30981,15490 30955,15356 29339,15356 29359,15643 29402,15913 29468,16165 29557,16398 29668,16613 29802,16809 29957,16987 30135,17146 30335,17287 30558,17410 30801,17513 31067,17598 31355,17664 31665,17712 31995,17740 32347,17749 32668,17739 32971,17709 33254,17659 33516,17590 33760,17500 33984,17390 34089,17328 34190,17260 34285,17189 34376,17111 34461,17029 34543,16940 34620,16848 34692,16750 34760,16648 34821,16542 34878,16432 34929,16319 34975,16202 35015,16082 35050,15959 35078,15835 35100,15707 35116,15578 35127,15448 35130,15316 35124,15145 35110,14982 35086,14827 35052,14680 35008,14540 34955,14408 34892,14283 34819,14167 34736,14058 34643,13956 34541,13863 34428,13776 34307,13698 34174,13627 34032,13563 33880,13507 31792,12829 31635,12771 31508,12716 31454,12688 31407,12659 31366,12631 31331,12600 31301,12568 31276,12534 31256,12498 31240,12459 31229,12418 31221,12372 31216,12323 31215,12271 31219,12198 31232,12127 31253,12061 31283,11998 31320,11940 31364,11886 31417,11835 31476,11789 31541,11748 31614,11711 31692,11680 31777,11654 31867,11634 31963,11619 32064,11610 32170,11606 32314,11610 32447,11621 32572,11640 32687,11667 32794,11700 32891,11742 32979,11791 33056,11848 33126,11912 33187,11984 33238,12063 33281,12151 33314,12246 33338,12348 33354,12459 33361,12577 34953,12577 Z M 41794,17218 L 41697,17108 41616,17003 41550,16900 41523,16850 41499,16799 41478,16748 41461,16695 41447,16642 41436,16586 41427,16529 41422,16468 41417,16341 41417,12351 41406,12085 41375,11835 41324,11604 41252,11389 41159,11190 41046,11009 40912,10845 40759,10698 40585,10568 40392,10456 40177,10361 39944,10282 39690,10222 39416,10178 39123,10152 38810,10143 38496,10152 38202,10182 37928,10230 37673,10298 37436,10385 37219,10492 37021,10618 36842,10763 36682,10928 36541,11113 36417,11317 36314,11540 36229,11783 36163,12046 36115,12328 36086,12630 37678,12630 37696,12496 37718,12373 37746,12263 37781,12162 37821,12071 37869,11992 37924,11921 37987,11859 38059,11806 38140,11761 38231,11725 38331,11695 38443,11674 38565,11658 38845,11646 39069,11658 39170,11671 39263,11691 39349,11717 39427,11748 39498,11784 39562,11826 39617,11873 39666,11927 39707,11986 39741,12050 39767,12120 39785,12196 39796,12278 39800,12364 39799,12409 39795,12452 39789,12494 39781,12535 39770,12576 39758,12615 39743,12653 39726,12688 39706,12723 39684,12756 39661,12788 39637,12819 39609,12847 39580,12874 39550,12900 39517,12923 39442,12967 39375,13002 39305,13031 39219,13057 39106,13085 38953,13115 38479,13202 37819,13335 37590,13385 37377,13448 37177,13522 36993,13608 36825,13706 36671,13815 36533,13937 36408,14071 36299,14217 36205,14376 36125,14548 36059,14731 36009,14929 35973,15137 35951,15359 35944,15595 35953,15832 35980,16058 36023,16273 36082,16476 36158,16667 36248,16843 36354,17007 36473,17157 36606,17290 36753,17407 36913,17510 37083,17594 37266,17662 37459,17709 37664,17739 37878,17749 38009,17746 38140,17733 38269,17714 38395,17687 38521,17651 38645,17608 38768,17557 38890,17497 39009,17429 39127,17354 39361,17177 39589,16969 39812,16726 39815,16855 39821,16965 39832,17061 39840,17104 39850,17145 39861,17184 39874,17222 39889,17258 39908,17295 39949,17368 40002,17444 41794,17444 41794,17218 Z M 39800,14558 L 39795,14754 39778,14940 39751,15114 39713,15276 39665,15427 39607,15566 39539,15692 39460,15806 39372,15908 39274,15996 39166,16073 39049,16134 38923,16183 38788,16219 38644,16240 38491,16247 38390,16244 38294,16232 38203,16213 38117,16187 38038,16154 37965,16114 37897,16067 37835,16015 37781,15955 37732,15889 37691,15819 37658,15742 37630,15659 37611,15573 37599,15479 37595,15382 37598,15281 37607,15186 37623,15097 37646,15015 37676,14939 37713,14868 37758,14802 37810,14741 37871,14685 37940,14632 38016,14586 38102,14541 38197,14501 38301,14464 38539,14399 39105,14279 39371,14220 39467,14195 39546,14171 39612,14147 39673,14121 39734,14090 39800,14053 39800,14558 Z M 44612,7750 L 42961,7750 42961,17444 44612,17444 44612,7750 Z M 48999,10410 L 48080,10410 48080,8481 46428,8481 46428,10410 45614,10410 45614,11646 46428,11646 46428,16061 46434,16267 46453,16458 46485,16637 46528,16801 46585,16954 46653,17092 46735,17217 46829,17329 46936,17428 47057,17513 47189,17585 47334,17645 47492,17690 47663,17723 47847,17743 48044,17749 48309,17741 48431,17731 48549,17716 48662,17696 48774,17671 48886,17640 48999,17603 48999,16301 48797,16330 48712,16338 48622,16341 48545,16338 48474,16333 48410,16322 48354,16308 48303,16287 48259,16261 48239,16245 48220,16228 48203,16208 48188,16188 48160,16140 48136,16084 48118,16020 48103,15947 48093,15865 48085,15772 48080,15555 48080,11646 48999,11646 48999,10410 Z"/>
         </g>
        </g>
       </g>
      </g>
     </g>
    </g>
   </g>
  </g>
 </g>
</svg>