<?xml version="1.0" encoding="UTF-8" standalone="no"?>
<svg
   version="1.2"
   width="500mm"
   height="250mm"
   viewBox="0 0 50000 25000"
   preserveAspectRatio="xMidYMid"
   fill-rule="evenodd"
   stroke-width="28.222"
   stroke-linejoin="round"
   xml:space="preserve"
   id="svg77"
   sodipodi:docname="ggg.svg"
   inkscape:version="1.1.2 (0a00cf5339, 2022-02-04, custom)"
   xmlns:inkscape="http://www.inkscape.org/namespaces/inkscape"
   xmlns:sodipodi="http://sodipodi.sourceforge.net/DTD/sodipodi-0.dtd"
   xmlns="http://www.w3.org/2000/svg"
   xmlns:svg="http://www.w3.org/2000/svg"
   xmlns:ooo="http://xml.openoffice.org/svg/export"><sodipodi:namedview
   id="namedview79"
   pagecolor="#ffffff"
   bordercolor="#666666"
   borderopacity="1.0"
   inkscape:pageshadow="2"
   inkscape:pageopacity="0.0"
   inkscape:pagecheckerboard="0"
   inkscape:document-units="mm"
   showgrid="false"
   inkscape:lockguides="true"
   showguides="false"
   inkscape:zoom="0.69109167"
   inkscape:cx="1010.7198"
   inkscape:cy="473.16444"
   inkscape:window-width="1600"
   inkscape:window-height="831"
   inkscape:window-x="0"
   inkscape:window-y="32"
   inkscape:window-maximized="1"
   inkscape:current-layer="svg77" />
 <defs
   class="ClipPathGroup"
   id="defs8">
  <clipPath
   id="presentation_clip_path"
   clipPathUnits="userSpaceOnUse">
   <rect
   x="0"
   y="0"
   width="50000"
   height="25000"
   id="rect2" />
  </clipPath>
  <clipPath
   id="presentation_clip_path_shrink"
   clipPathUnits="userSpaceOnUse">
   <rect
   x="50"
   y="25"
   width="49900"
   height="24950"
   id="rect5" />
  </clipPath>
 </defs>
 <defs
   class="TextShapeIndex"
   id="defs12">
  <g
   ooo:slide="id1"
   ooo:id-list="id3"
   id="g10" />
 </defs>
 <defs
   class="EmbeddedBulletChars"
   id="defs44">
  <g
   id="bullet-char-template-57356"
   transform="scale(0.00048828125,-0.00048828125)">
   <path
   d="M 580,1141 L 1163,571 580,0 -4,571 580,1141 Z"
   id="path14" />
  </g>
  <g
   id="bullet-char-template-57354"
   transform="scale(0.00048828125,-0.00048828125)">
   <path
   d="M 8,1128 L 1137,1128 1137,0 8,0 8,1128 Z"
   id="path17" />
  </g>
  <g
   id="bullet-char-template-10146"
   transform="scale(0.00048828125,-0.00048828125)">
   <path
   d="M 174,0 L 602,739 174,1481 1456,739 174,0 Z M 1358,739 L 309,1346 659,739 1358,739 Z"
   id="path20" />
  </g>
  <g
   id="bullet-char-template-10132"
   transform="scale(0.00048828125,-0.00048828125)">
   <path
   d="M 2015,739 L 1276,0 717,0 1260,543 174,543 174,936 1260,936 717,1481 1274,1481 2015,739 Z"
   id="path23" />
  </g>
  <g
   id="bullet-char-template-10007"
   transform="scale(0.00048828125,-0.00048828125)">
   <path
   d="M 0,-2 C -7,14 -16,27 -25,37 L 356,567 C 262,823 215,952 215,954 215,979 228,992 255,992 264,992 276,990 289,987 310,991 331,999 354,1012 L 381,999 492,748 772,1049 836,1024 860,1049 C 881,1039 901,1025 922,1006 886,937 835,863 770,784 769,783 710,716 594,584 L 774,223 C 774,196 753,168 711,139 L 727,119 C 717,90 699,76 672,76 641,76 570,178 457,381 L 164,-76 C 142,-110 111,-127 72,-127 30,-127 9,-110 8,-76 1,-67 -2,-52 -2,-32 -2,-23 -1,-13 0,-2 Z"
   id="path26" />
  </g>
  <g
   id="bullet-char-template-10004"
   transform="scale(0.00048828125,-0.00048828125)">
   <path
   d="M 285,-33 C 182,-33 111,30 74,156 52,228 41,333 41,471 41,549 55,616 82,672 116,743 169,778 240,778 293,778 328,747 346,684 L 369,508 C 377,444 397,411 428,410 L 1163,1116 C 1174,1127 1196,1133 1229,1133 1271,1133 1292,1118 1292,1087 L 1292,965 C 1292,929 1282,901 1262,881 L 442,47 C 390,-6 338,-33 285,-33 Z"
   id="path29" />
  </g>
  <g
   id="bullet-char-template-9679"
   transform="scale(0.00048828125,-0.00048828125)">
   <path
   d="M 813,0 C 632,0 489,54 383,161 276,268 223,411 223,592 223,773 276,916 383,1023 489,1130 632,1184 813,1184 992,1184 1136,1130 1245,1023 1353,916 1407,772 1407,592 1407,412 1353,268 1245,161 1136,54 992,0 813,0 Z"
   id="path32" />
  </g>
  <g
   id="bullet-char-template-8226"
   transform="scale(0.00048828125,-0.00048828125)">
   <path
   d="M 346,457 C 273,457 209,483 155,535 101,586 74,649 74,723 74,796 101,859 155,911 209,963 273,989 346,989 419,989 480,963 531,910 582,859 608,796 608,723 608,648 583,586 532,535 482,483 420,457 346,457 Z"
   id="path35" />
  </g>
  <g
   id="bullet-char-template-8211"
   transform="scale(0.00048828125,-0.00048828125)">
   <path
   d="M -4,459 L 1135,459 1135,606 -4,606 -4,459 Z"
   id="path38" />
  </g>
  <g
   id="bullet-char-template-61548"
   transform="scale(0.00048828125,-0.00048828125)">
   <path
   d="M 173,740 C 173,903 231,1043 346,1159 462,1274 601,1332 765,1332 928,1332 1067,1274 1183,1159 1299,1043 1357,903 1357,740 1357,577 1299,437 1183,322 1067,206 928,148 765,148 601,148 462,206 346,322 231,437 173,577 173,740 Z"
   id="path41" />
  </g>
 </defs>
 <g
   id="g49">
  <g
   id="id2"
   class="Master_Slide">
   <g
   id="bg-id2"
   class="Background" />
   <g
   id="bo-id2"
   class="BackgroundObjects" />
  </g>
 </g>
 <g
   class="SlideGroup"
   id="g75"
   transform="matrix(1.041645,0,0,0.720072,-1040.6033,2067.0399)">
  <g
   id="g73">
   <g
   id="container-id1">
    <g
   id="id1"
   class="Slide"
   clip-path="url(#presentation_clip_path)">
     <g
   class="Page"
   id="g69">
      <g
   class="com.sun.star.drawing.CustomShape"
   id="g67">
       <desc
   id="desc51">Feral Gamemode
       </desc>
       <g
   id="id3">
        <rect
   class="BoundingBox"
   stroke="none"
   fill="none"
   x="999"
   y="7750"
   width="48001"
   height="9999"
   id="rect53" />
        <g
   id="g64">
         <defs
   id="defs60">
          <linearGradient
   id="gradient1"
   x1="24999"
   y1="7750"
   x2="24999"
   y2="17748"
   gradientUnits="userSpaceOnUse">
           <stop
   offset="0"
   style="stop-color:rgb(255,64,0)"
   id="stop55" />
           <stop
   offset="1"
   style="stop-color:rgb(255,64,0)"
   id="stop57" />
          </linearGradient>
         </defs>
         <path
   style="fill:url(#gradient1)"
   d="M 1898,13339 H 3810 V 11701 H 1898 V 9542 H 4067 V 7907 H 1000 v 9540 h 898 z m 5411,1150 3,-102 2,-79 1,-133 -2,-261 -7,-257 -10,-250 -14,-239 -18,-230 -22,-221 -25,-206 -27,-195 -44,-234 -52,-221 -56,-211 -65,-194 -70,-184 -76,-168 -81,-155 -87,-139 -92,-127 -98,-108 -101,-93 -105,-77 -111,-62 -114,-45 -118,-26 -120,-9 -171,18 -161,51 -152,81 -142,116 -133,146 -124,177 -112,205 -103,235 -92,261 -80,290 -69,314 -56,341 -45,365 -32,389 -20,412 -7,433 6,414 21,394 31,370 45,347 56,325 68,301 79,275 90,250 102,221 111,197 122,166 131,139 141,108 150,80 159,49 168,15 135,-11 131,-31 126,-48 122,-71 118,-89 112,-106 107,-124 101,-139 95,-157 87,-173 81,-188 73,-204 66,-216 57,-233 48,-243 40,-257 h -827 l -20,102 -25,97 -26,91 -29,86 -33,80 -34,73 -38,66 -39,60 -43,55 -44,47 -47,40 -48,33 -51,27 -54,17 -54,11 -56,5 -45,-3 -43,-8 -42,-11 -40,-18 -40,-24 -38,-27 -38,-33 -35,-36 -34,-42 -33,-46 -31,-51 -30,-53 -27,-60 -27,-64 -25,-69 -23,-70 -28,-102 -22,-109 -19,-121 -16,-137 -13,-158 -10,-177 -13,-440 z m -2157,-1217 12,-197 16,-183 19,-171 23,-159 26,-144 31,-133 33,-119 39,-106 41,-93 45,-80 50,-69 52,-55 56,-44 61,-31 64,-18 67,-6 70,6 67,20 63,33 59,45 54,57 52,71 47,84 43,95 40,109 34,119 32,133 27,144 22,155 20,168 14,179 10,190 z m 2728,-2892 v 7067 h 838 v -3757 l 3,-194 9,-182 15,-170 19,-157 26,-146 32,-131 37,-119 44,-107 48,-95 55,-82 60,-68 67,-58 72,-42 78,-33 83,-18 89,-6 63,2 60,9 64,18 77,24 v -1859 l -31,-6 -24,-5 -23,-2 h -24 l -71,7 -70,20 -69,31 -67,44 -64,55 -63,66 -61,80 -59,91 -57,102 -53,112 -52,124 -48,135 -46,144 -43,155 -39,164 -37,175 v -1388 z m 5123,6844 -50,-109 -40,-104 -34,-99 -13,-49 -12,-51 -11,-51 -8,-50 -8,-54 -6,-55 -5,-55 -3,-60 -2,-126 v -3925 l -5,-261 -16,-246 -26,-228 -37,-212 -46,-195 -58,-179 -68,-162 -77,-143 -89,-129 -98,-110 -109,-93 -118,-78 -130,-60 -139,-44 -149,-24 -159,-9 -159,9 -150,29 -139,48 -129,67 -121,84 -110,106 -101,124 -91,144 -81,161 -72,182 -63,201 -52,219 -43,239 -34,259 -24,279 -15,296 h 809 l 9,-130 12,-122 14,-108 17,-100 21,-89 24,-79 28,-71 33,-60 36,-53 41,-44 46,-36 51,-28 57,-22 62,-16 142,-11 114,11 52,13 46,20 44,25 40,31 36,35 32,42 28,47 26,53 20,57 17,64 13,69 11,73 5,80 2,86 -1,44 -1,42 -3,42 -5,42 -6,38 -6,40 -8,37 -9,36 -9,33 -11,33 -12,31 -12,31 -15,29 -14,24 -16,27 -16,22 -39,44 -34,33 -36,29 -43,27 -58,26 -77,31 -241,84 -335,131 -117,51 -108,59 -102,73 -93,87 -86,95 -78,108 -70,120 -63,132 -55,144 -48,157 -40,169 -34,181 -25,192 -19,206 -11,219 -4,233 4,232 15,223 21,213 30,199 39,188 45,173 54,161 61,146 68,133 75,115 80,100 87,84 93,66 98,46 105,31 108,9 67,-4 66,-11 66,-20 64,-27 64,-35 63,-42 62,-51 62,-58 60,-66 61,-75 118,-173 116,-205 114,-239 1,126 3,108 5,93 4,44 5,40 6,38 6,37 8,36 9,35 22,73 26,75 h 911 z m -1012,-2618 -3,195 -8,182 -15,172 -19,159 -24,149 -30,137 -35,124 -40,113 -44,99 -51,89 -54,73 -59,62 -64,48 -69,33 -73,23 -78,6 -52,-4 -48,-11 -47,-18 -42,-26 -41,-34 -37,-37 -35,-47 -31,-53 -28,-57 -24,-65 -21,-70 -17,-76 -14,-79 -10,-87 -6,-92 -2,-96 2,-99 4,-93 8,-86 13,-82 15,-75 18,-71 23,-64 27,-60 30,-56 35,-53 39,-46 44,-42 48,-40 53,-38 120,-64 288,-117 136,-58 49,-24 39,-24 34,-25 31,-24 31,-31 34,-35 z m 2444,-6699 h -839 v 9540 h 839 z m 6353,4409 h -1751 v 1638 h 995 l -10,192 -16,173 -18,161 -23,149 -30,139 -33,133 -39,128 -47,128 -42,104 -44,100 -48,95 -48,86 -52,82 -53,75 -55,69 -57,64 -59,55 -59,49 -61,40 -61,35 -63,27 -63,20 -64,11 -64,4 -134,-15 -129,-49 -124,-77 -116,-106 -110,-133 -102,-162 -95,-186 -87,-210 -78,-234 -69,-255 -60,-276 -50,-295 -39,-314 -29,-330 -18,-347 -6,-361 5,-376 17,-356 25,-336 36,-314 46,-292 56,-273 64,-247 74,-226 84,-201 92,-175 100,-151 108,-126 118,-97 125,-71 132,-42 140,-16 115,9 110,29 104,44 101,64 94,82 89,98 83,117 40,64 37,69 45,88 40,91 36,95 33,106 30,118 29,132 29,151 29,175 h 845 l -28,-361 -41,-345 -56,-323 -69,-306 -81,-285 -94,-263 -107,-242 -117,-219 -129,-197 -139,-172 -150,-148 -159,-122 -168,-97 -177,-69 -187,-44 -193,-13 -231,24 -221,68 -211,113 -198,157 -188,200 -173,236 -161,275 -147,312 -132,347 -116,381 -100,411 -83,440 -67,472 -48,495 -29,522 -10,547 10,533 29,511 48,492 66,464 83,441 99,411 114,383 130,349 143,315 156,281 168,241 179,203 191,162 201,117 208,71 218,24 212,-22 99,-26 96,-40 92,-51 89,-62 85,-75 81,-87 79,-99 77,-113 73,-126 71,-137 70,-153 66,-166 129,-374 108,1257 h 540 z m 3565,4908 -50,-109 -41,-104 -33,-99 -13,-49 -12,-51 -11,-51 -9,-50 -8,-54 -5,-55 -5,-55 -3,-60 -2,-126 v -3925 l -5,-261 -16,-246 -26,-228 -37,-212 -47,-195 -57,-179 -68,-162 -77,-143 -89,-129 -99,-110 -108,-93 -119,-78 -129,-60 -139,-44 -149,-24 -159,-9 -159,9 -150,29 -139,48 -129,67 -121,84 -110,106 -101,124 -91,144 -81,161 -72,182 -63,201 -52,219 -43,239 -34,259 -24,279 -15,296 h 809 l 9,-130 12,-122 14,-108 17,-100 21,-89 24,-79 28,-71 33,-60 36,-53 41,-44 46,-36 51,-28 57,-22 61,-16 143,-11 114,11 51,13 47,20 44,25 40,31 36,35 32,42 28,47 26,53 20,57 17,64 13,69 10,73 6,80 2,86 -1,44 -1,42 -4,42 -5,42 -5,38 -6,40 -8,37 -9,36 -9,33 -11,33 -12,31 -13,31 -14,29 -14,24 -16,27 -16,22 -39,44 -34,33 -36,29 -43,27 -58,26 -77,31 -241,84 -335,131 -117,51 -108,59 -102,73 -93,87 -86,95 -78,108 -70,120 -63,132 -55,144 -48,157 -41,169 -33,181 -25,192 -20,206 -10,219 -4,233 4,232 14,223 22,213 30,199 39,188 45,173 54,161 61,146 68,133 75,115 80,100 87,84 93,66 98,46 104,31 109,9 67,-4 66,-11 65,-20 65,-27 64,-35 63,-42 62,-51 62,-58 60,-66 61,-75 118,-173 116,-205 114,-239 1,126 3,108 5,93 4,44 5,40 6,38 6,37 8,36 9,35 22,73 26,75 h 911 z m -1012,-2618 -4,195 -8,182 -14,172 -19,159 -24,149 -30,137 -35,124 -40,113 -44,99 -51,89 -55,73 -58,62 -64,48 -69,33 -73,23 -78,6 -52,-4 -48,-11 -47,-18 -43,-26 -40,-34 -38,-37 -34,-47 -31,-53 -28,-57 -24,-65 -21,-70 -18,-76 -13,-79 -10,-87 -6,-92 -2,-96 2,-99 4,-93 8,-86 12,-82 16,-75 18,-71 23,-64 26,-60 31,-56 35,-53 39,-46 43,-42 49,-40 53,-38 120,-64 288,-117 136,-58 48,-24 40,-24 34,-25 31,-24 31,-31 34,-35 z m 1564,-4226 v 7067 h 839 v -4239 l 2,-159 8,-153 12,-142 17,-132 21,-124 27,-115 30,-104 36,-93 39,-84 43,-73 47,-64 51,-51 56,-40 58,-29 62,-18 66,-6 52,4 48,11 47,20 43,29 40,35 38,42 34,49 31,55 28,64 24,69 21,75 18,82 13,86 10,93 6,98 2,104 v 4710 h 839 v -4239 l 2,-157 8,-151 12,-141 17,-133 22,-124 26,-113 30,-104 36,-95 39,-84 43,-75 47,-62 51,-53 56,-42 59,-29 61,-18 66,-6 52,4 49,11 46,20 44,29 40,35 38,42 33,49 32,55 28,64 24,69 22,75 17,82 13,86 10,93 6,98 2,104 v 4710 h 839 v -5000 l -4,-250 -14,-239 -22,-224 -30,-208 -38,-194 -48,-180 -55,-163 -62,-148 -69,-133 -78,-115 -85,-100 -92,-82 -98,-64 -105,-46 -112,-29 -118,-9 -149,16 -71,17 -68,27 -65,35 -63,42 -60,51 -59,60 -57,68 -55,78 -53,86 -52,93 -51,104 -48,115 -97,255 -31,-122 -34,-115 -39,-109 -42,-99 -46,-95 -49,-84 -52,-80 -55,-71 -58,-62 -61,-55 -62,-47 -66,-39 -68,-29 -70,-22 -73,-14 -74,-4 -134,13 -63,16 -59,24 -59,29 -57,40 -54,46 -54,53 -52,64 -52,71 -50,82 -51,91 -100,212 -102,252 v -876 z m 8107,4109 3,-102 2,-79 1,-133 -2,-261 -7,-257 -11,-250 -14,-239 -18,-230 -21,-221 -26,-206 -27,-195 -43,-234 -52,-221 -57,-211 -65,-194 -70,-184 -76,-168 -81,-155 -87,-139 -92,-127 -97,-108 -102,-93 -105,-77 -110,-62 -115,-45 -117,-26 -121,-9 -170,18 -161,51 -152,81 -143,116 -133,146 -123,177 -113,205 -102,235 -92,261 -80,290 -69,314 -57,341 -45,365 -32,389 -19,412 -7,433 6,414 20,394 31,370 45,347 57,325 68,301 79,275 90,250 101,221 112,197 121,166 132,139 141,108 150,80 159,49 168,15 135,-11 130,-31 127,-48 122,-71 117,-89 113,-106 107,-124 100,-139 95,-157 88,-173 81,-188 73,-204 65,-216 57,-233 49,-243 39,-257 h -826 l -21,102 -24,97 -26,91 -30,86 -32,80 -35,73 -37,66 -40,60 -42,55 -45,47 -46,40 -49,33 -51,27 -53,17 -54,11 -57,5 -44,-3 -44,-8 -41,-11 -41,-18 -39,-24 -39,-27 -37,-33 -36,-36 -33,-42 -34,-46 -30,-51 -31,-53 -27,-60 -26,-64 -26,-69 -23,-70 -27,-102 -22,-109 -20,-121 -16,-137 -12,-158 -10,-177 -13,-440 z m -2157,-1217 12,-197 15,-183 19,-171 24,-159 26,-144 30,-133 34,-119 38,-106 42,-93 44,-80 50,-69 53,-55 55,-44 61,-31 64,-18 68,-6 70,6 67,20 63,33 58,45 55,57 52,71 46,84 44,95 39,109 35,119 31,133 28,144 22,155 19,168 14,179 10,190 z m 2709,-2892 v 7067 h 839 v -4239 l 2,-159 8,-153 12,-142 17,-132 21,-124 27,-115 30,-104 36,-93 39,-84 43,-73 47,-64 51,-51 56,-40 58,-29 62,-18 66,-6 52,4 48,11 47,20 43,29 40,35 38,42 34,49 31,55 28,64 24,69 21,75 18,82 13,86 10,93 6,98 2,104 v 4710 h 839 v -4239 l 2,-157 8,-151 12,-141 17,-133 22,-124 26,-113 30,-104 36,-95 39,-84 43,-75 47,-62 51,-53 56,-42 59,-29 61,-18 66,-6 52,4 49,11 46,20 44,29 40,35 38,42 33,49 32,55 28,64 24,69 22,75 17,82 13,86 10,93 6,98 2,104 v 4710 h 839 v -5000 l -4,-250 -14,-239 -21,-224 -31,-208 -38,-194 -48,-180 -55,-163 -62,-148 -69,-133 -78,-115 -85,-100 -92,-82 -98,-64 -105,-46 -112,-29 -118,-9 -149,16 -71,17 -68,27 -65,35 -63,42 -60,51 -59,60 -57,68 -55,78 -53,86 -52,93 -51,104 -48,115 -97,255 -31,-122 -34,-115 -39,-109 -42,-99 -46,-95 -49,-84 -52,-80 -55,-71 -58,-62 -61,-55 -62,-47 -66,-39 -68,-29 -70,-22 -73,-14 -74,-4 -134,13 -62,16 -60,24 -59,29 -57,40 -54,46 -54,53 -52,64 -52,71 -50,82 -51,91 -100,212 -102,252 v -876 z m 6770,-117 -181,16 -171,50 -162,80 -152,113 -141,142 -132,172 -119,201 -109,228 -97,255 -86,283 -73,308 -60,331 -47,357 -35,380 -21,401 -7,425 7,427 21,402 35,381 47,358 60,332 74,308 85,281 97,256 110,228 120,199 132,173 142,142 153,110 162,80 172,51 182,15 182,-15 171,-49 162,-82 153,-110 142,-142 132,-168 120,-199 110,-226 98,-252 85,-279 74,-303 61,-328 48,-351 35,-374 21,-396 7,-416 -7,-438 -20,-412 -35,-389 -46,-363 -60,-339 -73,-312 -85,-285 -97,-257 -110,-230 -120,-201 -132,-171 -143,-141 -154,-111 -165,-82 -174,-48 z m 6,1478 86,11 80,31 77,51 72,71 66,88 63,106 58,124 53,142 46,159 42,173 35,188 31,204 23,216 16,230 11,242 3,254 -4,243 -10,233 -17,221 -24,210 -31,199 -36,184 -42,170 -47,155 -54,142 -58,122 -63,108 -67,89 -71,70 -75,51 -79,31 -84,11 -83,-11 -80,-31 -76,-51 -72,-68 -66,-89 -63,-108 -58,-124 -53,-139 -47,-158 -42,-170 -35,-188 -31,-199 -23,-215 -17,-225 -10,-239 -4,-250 4,-250 10,-239 17,-226 23,-213 31,-201 35,-186 42,-170 47,-157 53,-142 58,-122 63,-108 66,-88 72,-69 76,-51 80,-31 z m 4280,5706 h 839 V 7907 h -839 v 3389 l -41,-128 -41,-119 -44,-111 -45,-102 -47,-93 -50,-84 -51,-75 -54,-69 -56,-59 -58,-51 -61,-45 -64,-35 -66,-27 -69,-19 -147,-16 -143,18 -137,55 -132,91 -127,124 -118,152 -113,186 -104,213 -95,239 -87,263 -77,288 -66,309 -57,330 -45,347 -32,365 -19,381 -7,394 6,358 18,356 28,350 41,341 50,330 59,309 68,292 77,268 44,126 47,122 51,115 54,106 57,100 60,93 63,84 65,77 67,69 69,62 70,51 71,44 73,33 73,24 74,16 74,4 147,-15 69,-18 66,-26 64,-36 61,-42 58,-49 56,-59 54,-67 51,-75 50,-84 47,-91 45,-101 44,-111 41,-117 41,-129 z m -707,-5653 78,11 75,29 70,51 66,68 63,89 58,106 54,122 49,139 44,155 38,171 34,185 27,200 22,212 16,226 10,236 3,250 -3,237 -10,226 -17,214 -22,204 -28,192 -34,180 -38,163 -45,153 -48,135 -54,120 -59,104 -62,86 -66,68 -70,51 -74,29 -77,11 -77,-11 -74,-31 -70,-51 -67,-68 -62,-89 -59,-104 -53,-122 -49,-137 -45,-152 -38,-169 -33,-181 -29,-192 -22,-208 -16,-217 -10,-228 -3,-239 3,-244 10,-232 16,-219 22,-210 29,-197 33,-181 38,-171 45,-153 49,-139 53,-122 59,-106 62,-88 67,-69 70,-51 74,-31 z m 5080,2695 3,-102 2,-79 1,-133 -2,-261 -7,-257 -10,-250 -14,-239 -18,-230 -21,-221 -26,-206 -27,-195 -44,-234 -51,-221 -57,-211 -65,-194 -70,-184 -76,-168 -81,-155 -87,-139 -92,-127 -97,-108 -102,-93 -105,-77 -111,-62 -114,-45 -118,-26 -120,-9 -170,18 -161,51 -152,81 -143,116 -133,146 -124,177 -112,205 -102,235 -93,261 -80,290 -68,314 -57,341 -45,365 -32,389 -19,412 -8,433 7,414 20,394 31,370 45,347 57,325 67,301 79,275 91,250 101,221 111,197 122,166 132,139 140,108 150,80 159,49 169,15 134,-11 131,-31 127,-48 121,-71 118,-89 112,-106 108,-124 100,-139 95,-157 87,-173 81,-188 73,-204 66,-216 57,-233 49,-243 39,-257 h -827 l -20,102 -24,97 -27,91 -29,86 -32,80 -35,73 -37,66 -40,60 -42,55 -45,47 -47,40 -48,33 -51,27 -54,17 -53,11 -57,5 -45,-3 -43,-8 -42,-11 -40,-18 -40,-24 -38,-27 -38,-33 -35,-36 -34,-42 -33,-46 -30,-51 -31,-53 -27,-60 -26,-64 -26,-69 -23,-70 -27,-102 -23,-109 -19,-121 -16,-137 -12,-158 -10,-177 -14,-440 z m -2156,-1217 12,-197 15,-183 19,-171 23,-159 27,-144 30,-133 34,-119 38,-106 42,-93 44,-80 50,-69 53,-55 55,-44 61,-31 64,-18 68,-6 70,6 66,20 63,33 59,45 55,57 51,71 47,84 44,95 39,109 35,119 31,133 27,144 23,155 19,168 14,179 10,190 z"
   id="path62" />
        </g>
       </g>
      </g>
     </g>
    </g>
   </g>
  </g>
 </g>
</svg>
