<?xml version="1.0" encoding="UTF-8"?>
<!DOCTYPE svg PUBLIC "-//W3C//DTD SVG 1.1//EN" "http://www.w3.org/Graphics/SVG/1.1/DTD/svg11.dtd">
<svg version="1.2" width="500mm" height="250mm" viewBox="0 0 50000 25000" preserveAspectRatio="xMidYMid" fill-rule="evenodd" stroke-width="28.222" stroke-linejoin="round" xmlns="http://www.w3.org/2000/svg" xmlns:ooo="http://xml.openoffice.org/svg/export" xmlns:xlink="http://www.w3.org/1999/xlink" xmlns:presentation="http://sun.com/xmlns/staroffice/presentation" xmlns:smil="http://www.w3.org/2001/SMIL20/" xmlns:anim="urn:oasis:names:tc:opendocument:xmlns:animation:1.0" xml:space="preserve">
 <defs class="ClipPathGroup">
  <clipPath id="presentation_clip_path" clipPathUnits="userSpaceOnUse">
   <rect x="0" y="0" width="50000" height="25000"/>
  </clipPath>
  <clipPath id="presentation_clip_path_shrink" clipPathUnits="userSpaceOnUse">
   <rect x="50" y="25" width="49900" height="24950"/>
  </clipPath>
 </defs>
 <defs class="TextShapeIndex">
  <g ooo:slide="id1" ooo:id-list="id3"/>
 </defs>
 <defs class="EmbeddedBulletChars">
  <g id="bullet-char-template-57356" transform="scale(0.00048828125,-0.00048828125)">
   <path d="M 580,1141 L 1163,571 580,0 -4,571 580,1141 Z"/>
  </g>
  <g id="bullet-char-template-57354" transform="scale(0.00048828125,-0.00048828125)">
   <path d="M 8,1128 L 1137,1128 1137,0 8,0 8,1128 Z"/>
  </g>
  <g id="bullet-char-template-10146" transform="scale(0.00048828125,-0.00048828125)">
   <path d="M 174,0 L 602,739 174,1481 1456,739 174,0 Z M 1358,739 L 309,1346 659,739 1358,739 Z"/>
  </g>
  <g id="bullet-char-template-10132" transform="scale(0.00048828125,-0.00048828125)">
   <path d="M 2015,739 L 1276,0 717,0 1260,543 174,543 174,936 1260,936 717,1481 1274,1481 2015,739 Z"/>
  </g>
  <g id="bullet-char-template-10007" transform="scale(0.00048828125,-0.00048828125)">
   <path d="M 0,-2 C -7,14 -16,27 -25,37 L 356,567 C 262,823 215,952 215,954 215,979 228,992 255,992 264,992 276,990 289,987 310,991 331,999 354,1012 L 381,999 492,748 772,1049 836,1024 860,1049 C 881,1039 901,1025 922,1006 886,937 835,863 770,784 769,783 710,716 594,584 L 774,223 C 774,196 753,168 711,139 L 727,119 C 717,90 699,76 672,76 641,76 570,178 457,381 L 164,-76 C 142,-110 111,-127 72,-127 30,-127 9,-110 8,-76 1,-67 -2,-52 -2,-32 -2,-23 -1,-13 0,-2 Z"/>
  </g>
  <g id="bullet-char-template-10004" transform="scale(0.00048828125,-0.00048828125)">
   <path d="M 285,-33 C 182,-33 111,30 74,156 52,228 41,333 41,471 41,549 55,616 82,672 116,743 169,778 240,778 293,778 328,747 346,684 L 369,508 C 377,444 397,411 428,410 L 1163,1116 C 1174,1127 1196,1133 1229,1133 1271,1133 1292,1118 1292,1087 L 1292,965 C 1292,929 1282,901 1262,881 L 442,47 C 390,-6 338,-33 285,-33 Z"/>
  </g>
  <g id="bullet-char-template-9679" transform="scale(0.00048828125,-0.00048828125)">
   <path d="M 813,0 C 632,0 489,54 383,161 276,268 223,411 223,592 223,773 276,916 383,1023 489,1130 632,1184 813,1184 992,1184 1136,1130 1245,1023 1353,916 1407,772 1407,592 1407,412 1353,268 1245,161 1136,54 992,0 813,0 Z"/>
  </g>
  <g id="bullet-char-template-8226" transform="scale(0.00048828125,-0.00048828125)">
   <path d="M 346,457 C 273,457 209,483 155,535 101,586 74,649 74,723 74,796 101,859 155,911 209,963 273,989 346,989 419,989 480,963 531,910 582,859 608,796 608,723 608,648 583,586 532,535 482,483 420,457 346,457 Z"/>
  </g>
  <g id="bullet-char-template-8211" transform="scale(0.00048828125,-0.00048828125)">
   <path d="M -4,459 L 1135,459 1135,606 -4,606 -4,459 Z"/>
  </g>
  <g id="bullet-char-template-61548" transform="scale(0.00048828125,-0.00048828125)">
   <path d="M 173,740 C 173,903 231,1043 346,1159 462,1274 601,1332 765,1332 928,1332 1067,1274 1183,1159 1299,1043 1357,903 1357,740 1357,577 1299,437 1183,322 1067,206 928,148 765,148 601,148 462,206 346,322 231,437 173,577 173,740 Z"/>
  </g>
 </defs>
 <g>
  <g id="id2" class="Master_Slide">
   <g id="bg-id2" class="Background"/>
   <g id="bo-id2" class="BackgroundObjects"/>
  </g>
 </g>
 <g class="SlideGroup">
  <g>
   <g id="container-id1">
    <g id="id1" class="Slide" clip-path="url(#presentation_clip_path)">
     <g class="Page">
      <g class="com.sun.star.drawing.CustomShape">
       <desc>Feral Gamemode
       </desc>
       <g id="id3">
        <rect class="BoundingBox" stroke="none" fill="none" x="999" y="7750" width="48001" height="10000"/>
        <g style="opacity: 0.850980392156863">
         <g>
          <defs>
           <linearGradient id="gradient1" x1="1000" y1="12749" x2="48999" y2="12749" gradientUnits="userSpaceOnUse">
            <stop offset="0" style="stop-color:rgb(42,96,153)"/>
            <stop offset="1" style="stop-color:rgb(255,0,0)"/>
           </linearGradient>
          </defs>
          <path style="fill:url(#gradient1)" d="M 2365,9449 L 3557,15447 4922,15447 6097,9449 6097,15447 7462,15447 7462,7750 5405,7750 4240,13874 3038,7750 1000,7750 1000,15447 2365,15447 2365,9449 Z M 12751,15267 L 12675,15180 12613,15095 12563,15015 12542,14975 12523,14935 12508,14894 12495,14852 12483,14809 12474,14765 12468,14720 12463,14673 12460,14571 12460,11404 12452,11193 12428,10994 12388,10811 12332,10639 12261,10481 12174,10338 12071,10208 11953,10091 11818,9988 11669,9899 11504,9823 11323,9761 11127,9713 10916,9678 10689,9658 10447,9651 10206,9658 9979,9681 9767,9719 9570,9774 9387,9842 9220,9927 9067,10027 8929,10143 8805,10274 8696,10420 8601,10582 8522,10760 8455,10953 8404,11161 8368,11386 8345,11625 9574,11625 9587,11518 9606,11421 9627,11333 9653,11253 9684,11181 9721,11117 9764,11061 9813,11013 9868,10970 9931,10935 10000,10905 10078,10883 10164,10865 10259,10853 10475,10844 10647,10853 10726,10864 10797,10879 10864,10899 10925,10924 10979,10953 11028,10986 11072,11024 11109,11066 11140,11114 11167,11164 11187,11220 11202,11280 11210,11346 11213,11414 11212,11450 11209,11484 11205,11517 11198,11550 11189,11582 11179,11613 11168,11643 11155,11671 11139,11698 11123,11726 11106,11750 11086,11774 11065,11797 11042,11819 11019,11838 10994,11857 10936,11892 10884,11920 10830,11942 10764,11963 10677,11985 10559,12010 10193,12079 9683,12185 9507,12225 9341,12275 9188,12333 9046,12401 8916,12478 8797,12566 8690,12663 8594,12770 8510,12886 8437,13011 8376,13147 8325,13294 8286,13450 8258,13616 8241,13792 8236,13979 8243,14167 8264,14346 8296,14518 8342,14679 8400,14829 8471,14970 8552,15100 8644,15219 8747,15325 8861,15419 8983,15499 9116,15567 9256,15620 9407,15658 9564,15681 9729,15690 9831,15686 9931,15678 10030,15661 10129,15640 10226,15612 10321,15577 10416,15536 10510,15490 10603,15435 10693,15375 10873,15235 11050,15069 11222,14876 11223,14979 11228,15067 11236,15143 11242,15177 11251,15209 11259,15240 11269,15271 11281,15299 11294,15329 11327,15385 11367,15447 12751,15447 12751,15267 Z M 11213,13155 L 11209,13312 11195,13458 11175,13597 11145,13726 11109,13846 11064,13956 11011,14056 10950,14147 10881,14228 10806,14298 10723,14358 10632,14408 10535,14446 10431,14474 10320,14491 10201,14497 10123,14493 10049,14485 9979,14469 9913,14449 9851,14422 9795,14391 9743,14353 9695,14312 9653,14265 9617,14212 9585,14157 9559,14095 9538,14030 9523,13960 9514,13887 9511,13810 9513,13730 9520,13655 9532,13584 9550,13519 9573,13458 9601,13402 9636,13350 9677,13301 9723,13256 9776,13215 9836,13177 9901,13142 9975,13110 10056,13081 10238,13029 10675,12934 10880,12887 10955,12868 11016,12849 11067,12829 11115,12807 11162,12784 11213,12754 11213,13155 Z M 13616,9745 L 13616,15447 14891,15447 14891,12026 14896,11902 14909,11784 14932,11672 14963,11566 15003,11467 15051,11375 15106,11290 15169,11213 15240,11143 15317,11083 15402,11030 15494,10987 15591,10951 15695,10927 15804,10911 15919,10906 16018,10910 16111,10923 16198,10943 16278,10972 16351,11008 16418,11052 16480,11105 16534,11166 16582,11234 16624,11310 16659,11394 16688,11486 16710,11586 16726,11694 16736,11808 16739,11931 16739,15447 18013,15447 18013,11625 18005,11394 17985,11176 17951,10973 17903,10782 17843,10606 17770,10444 17684,10296 17585,10163 17474,10045 17351,9942 17216,9853 17069,9781 16909,9724 16740,9684 16558,9659 16365,9651 16127,9664 16013,9680 15906,9704 15802,9733 15703,9771 15607,9816 15515,9868 15428,9927 15342,9995 15260,10071 15182,10154 15105,10245 15032,10344 14960,10453 14891,10569 14891,9745 13616,9745 Z M 22227,9745 L 22227,10622 22093,10389 21953,10190 21881,10103 21808,10022 21733,9951 21656,9887 21577,9830 21497,9783 21414,9742 21329,9709 21241,9684 21151,9665 21058,9654 20962,9651 20879,9653 20796,9662 20713,9677 20629,9697 20544,9722 20461,9752 20296,9829 20136,9924 19982,10038 19838,10169 19706,10316 19616,10429 19532,10548 19455,10672 19381,10801 19315,10936 19253,11076 19198,11220 19148,11370 19066,11683 19007,12016 18972,12366 18960,12734 18969,13056 18996,13364 19041,13657 19103,13935 19181,14196 19275,14439 19384,14663 19507,14869 19643,15053 19793,15216 19957,15357 20131,15474 20316,15567 20513,15634 20719,15675 20934,15690 21123,15680 21212,15667 21297,15648 21378,15625 21458,15594 21535,15556 21612,15512 21686,15460 21762,15401 21836,15333 21912,15258 22065,15080 22227,14866 22227,15638 22222,15763 22208,15884 22184,16000 22153,16109 22112,16211 22063,16306 22007,16394 21943,16476 21872,16548 21795,16612 21711,16667 21621,16714 21525,16750 21424,16778 21318,16793 21208,16799 21124,16796 21045,16788 20970,16774 20899,16756 20832,16731 20769,16703 20711,16669 20656,16628 20606,16585 20559,16535 20517,16480 20479,16420 20445,16356 20416,16286 20390,16213 20370,16134 19060,16134 19069,16293 19079,16369 19091,16443 19108,16514 19128,16582 19151,16648 19178,16714 19209,16778 19244,16840 19283,16902 19326,16962 19425,17082 19542,17200 19617,17268 19695,17330 19778,17388 19863,17442 20044,17536 20239,17613 20448,17672 20672,17715 20910,17741 21162,17749 21421,17740 21667,17713 21900,17668 22117,17605 22319,17526 22506,17430 22677,17317 22832,17188 22971,17045 23092,16885 23196,16712 23281,16524 23349,16323 23398,16108 23427,15879 23438,15638 23438,9745 22227,9745 Z M 21199,10886 L 21310,10896 21416,10922 21518,10964 21616,11024 21708,11097 21794,11186 21874,11288 21948,11404 22014,11531 22073,11671 22124,11821 22167,11982 22201,12152 22225,12332 22241,12519 22246,12713 22241,12903 22226,13084 22202,13257 22169,13422 22127,13576 22076,13719 22018,13851 21952,13972 21878,14081 21798,14177 21710,14260 21616,14328 21515,14383 21409,14423 21298,14447 21180,14455 21078,14447 20980,14423 20886,14383 20799,14328 20715,14260 20637,14177 20565,14081 20500,13972 20439,13851 20387,13719 20341,13576 20304,13422 20274,13257 20253,13084 20238,12903 20234,12713 20238,12515 20253,12324 20274,12145 20305,11973 20342,11812 20388,11662 20441,11522 20502,11395 20568,11282 20641,11180 20721,11093 20806,11020 20897,10962 20992,10921 21093,10895 21199,10886 Z M 26834,9651 L 26559,9664 26298,9704 26052,9769 25822,9860 25606,9975 25407,10113 25226,10275 25060,10459 24912,10666 24783,10893 24671,11142 24580,11409 24507,11697 24455,12004 24422,12328 24412,12670 24422,13013 24455,13340 24507,13647 24580,13935 24671,14203 24783,14452 24912,14679 25061,14885 25227,15068 25409,15230 25609,15368 25826,15483 26057,15573 26304,15638 26566,15677 26843,15690 27118,15677 27379,15638 27625,15573 27856,15483 28072,15369 28272,15232 28455,15072 28622,14891 28770,14686 28900,14462 29012,14217 29105,13953 29177,13669 29230,13368 29262,13049 29273,12713 29263,12360 29231,12026 29180,11712 29108,11419 29017,11146 28907,10895 28778,10665 28630,10457 28465,10272 28281,10110 28081,9971 27864,9858 27630,9768 27380,9703 27115,9664 26834,9651 Z M 26843,10844 L 26972,10852 27094,10877 27210,10918 27320,10975 27422,11047 27517,11132 27604,11233 27684,11348 27755,11475 27819,11614 27873,11767 27918,11930 27952,12105 27978,12290 27994,12487 27999,12691 27994,12888 27978,13075 27951,13254 27915,13423 27869,13583 27814,13731 27749,13868 27677,13993 27597,14107 27508,14207 27414,14293 27311,14364 27203,14421 27089,14462 26969,14488 26843,14497 26717,14488 26595,14463 26480,14422 26371,14365 26269,14294 26174,14208 26086,14108 26005,13996 25934,13869 25871,13731 25815,13580 25770,13419 25734,13247 25708,13064 25692,12871 25687,12670 25692,12469 25708,12276 25734,12094 25770,11921 25815,11760 25871,11610 25934,11471 26005,11346 26086,11232 26174,11132 26269,11046 26371,10975 26480,10918 26595,10877 26717,10852 26843,10844 Z M 34270,11952 L 34270,15447 35636,15447 35636,7750 34262,7750 34262,10632 31640,10632 31640,7750 30275,7750 30275,15447 31640,15447 31640,11952 34270,11952 Z M 40816,7750 L 40816,12966 40811,13134 40797,13292 40772,13437 40738,13572 40695,13696 40641,13809 40577,13909 40504,14001 40421,14080 40327,14149 40223,14207 40109,14254 39985,14291 39851,14317 39706,14333 39551,14338 39395,14333 39250,14317 39116,14291 38992,14254 38878,14207 38774,14149 38680,14080 38597,14001 38524,13909 38460,13809 38407,13696 38363,13572 38329,13437 38304,13292 38290,13134 38285,12966 38285,7750 36920,7750 36920,12966 36929,13279 36957,13570 37006,13838 37038,13965 37076,14088 37118,14205 37166,14318 37219,14427 37277,14531 37340,14631 37409,14727 37485,14820 37566,14908 37658,15001 37756,15087 37860,15169 37967,15245 38194,15378 38439,15490 38697,15576 38970,15639 39255,15677 39551,15690 39846,15677 40131,15639 40404,15576 40662,15490 40906,15378 41134,15245 41242,15169 41344,15087 41442,15001 41534,14908 41615,14820 41691,14727 41760,14631 41823,14531 41882,14427 41935,14318 41982,14205 42025,14088 42062,13965 42095,13838 42143,13570 42172,13279 42181,12966 42181,7750 40816,7750 Z M 43501,15447 L 46095,15447 46457,15434 46786,15395 47085,15327 47223,15284 47355,15232 47480,15174 47599,15107 47713,15034 47820,14952 47922,14863 48019,14768 48111,14662 48198,14550 48293,14411 48382,14266 48465,14113 48542,13954 48680,13616 48793,13254 48883,12868 48947,12462 48986,12036 48999,11593 48986,11154 48947,10730 48883,10325 48793,9941 48680,9578 48542,9239 48382,8925 48293,8777 48198,8637 48111,8525 48019,8419 47923,8324 47821,8235 47715,8156 47601,8082 47483,8017 47358,7959 47227,7909 47089,7866 46790,7800 46459,7763 46095,7750 43501,7750 43501,15447 Z M 44866,14127 L 44866,9069 46095,9069 46282,9079 46456,9108 46619,9158 46770,9227 46907,9314 47034,9423 47148,9551 47250,9699 47340,9867 47419,10055 47484,10262 47538,10491 47580,10738 47611,11007 47634,11604 47611,12197 47580,12464 47538,12710 47484,12938 47419,13145 47340,13332 47250,13499 47148,13647 47034,13774 46907,13882 46770,13971 46619,14040 46456,14088 46282,14118 46095,14127 44866,14127 Z"/>
         </g>
        </g>
       </g>
      </g>
     </g>
    </g>
   </g>
  </g>
 </g>
</svg>