<?xml version="1.0" encoding="UTF-8"?>
<!-- Generator: Adobe Illustrator 22.0.1, SVG Export Plug-In . SVG Version: 6.00 Build 0)  -->
<svg version="1.1" id="Layer_1" xmlns="http://www.w3.org/2000/svg" xmlns:xlink="http://www.w3.org/1999/xlink" x="0px" y="0px" width="1300px" height="500px" viewBox="0 0 1300 500" style="enable-background:new 0 0 1300 500;" xml:space="preserve">
<style type="text/css">
	.st0{fill:#A41E22;}
</style>
<g>
	<g>
		<path class="st0" d="M723.2,320.5h-40.6c0,0,0-99,0-129.7c13,7.2,30.1,20.5,40.6,33.3V320.5z"/>
		<g>
			<path class="st0" d="M380.9,320.5h-50.6l-66-204h46L355.7,260h0.6l46-143.5h46.3L380.9,320.5z"/>
			<path class="st0" d="M584.7,320.5h-38.6v-20.6h-0.9c-5.1,8.6-11.8,14.8-20,18.6c-8.2,3.8-16.6,5.7-25.1,5.7     c-10.9,0-19.8-1.4-26.7-4.3c-7-2.9-12.4-6.9-16.4-12.1s-6.8-11.6-8.4-19.1s-2.4-15.9-2.4-25v-90.9h40.6v83.4     c0,12.2,1.9,21.3,5.7,27.3c3.8,6,10.6,9,20.3,9c11,0,19.1-3.3,24-9.9c5-6.6,7.4-17.4,7.4-32.4v-77.4h40.6v147.7H584.7z"/>
		</g>
		<polygon class="st0" points="730,231.6 729.9,225.9 781,172.7 829.1,172.7 773.3,227 835.3,320.5 786.2,320.5   "/>
		<path class="st0" d="M842.8,218.2c0.6-9.5,3-17.4,7.2-23.7s9.5-11.3,16-15.1s13.8-6.5,21.9-8.1c8.1-1.6,16.2-2.4,24.4-2.4    c7.4,0,15,0.5,22.6,1.6s14.6,3.1,20.9,6.1c6.3,3.1,11.4,7.3,15.4,12.7s6,12.6,6,21.6v76.9c0,6.7,0.4,13.1,1.1,19.1    c0.8,6.1,2.1,10.7,4,13.7h-41.2c-0.8-2.3-1.4-4.6-1.9-7s-0.8-4.8-1-7.3c-6.5,6.7-14.1,11.3-22.9,14c-8.8,2.7-17.7,4-26.9,4    c-7,0-13.6-0.9-19.7-2.6c-6.1-1.7-11.4-4.4-16-8s-8.2-8.2-10.7-13.7c-2.6-5.5-3.9-12.1-3.9-19.7c0-8.4,1.5-15.3,4.4-20.7    c3-5.4,6.8-9.8,11.4-13c4.7-3.2,10-5.7,16-7.3s12-2.9,18.1-3.9c6.1-0.9,12.1-1.7,18-2.3s11.1-1.4,15.7-2.6c4.6-1.1,8.2-2.8,10.9-5    s3.9-5.4,3.7-9.6c0-4.4-0.7-7.9-2.2-10.4c-1.4-2.6-3.3-4.6-5.7-6s-5.1-2.4-8.3-2.9c-3.1-0.5-6.5-0.7-10.1-0.7    c-8,0-14.3,1.7-18.9,5.1c-4.6,3.4-7.2,9.1-8,17.1L842.8,218.2L842.8,218.2z M936.5,248.2c-1.7,1.5-3.9,2.7-6.4,3.6    c-2.6,0.9-5.3,1.6-8.3,2.2c-3,0.6-6,1-9.3,1.4c-3.2,0.4-6.5,0.9-9.7,1.4c-3,0.6-6,1.3-9,2.3s-5.5,2.2-7.7,3.9    c-2.2,1.6-4,3.7-5.3,6.1c-1.3,2.5-2,5.6-2,9.4c0,3.6,0.7,6.7,2,9.1c1.3,2.5,3.1,4.4,5.4,5.9c2.3,1.4,5,2.4,8,3    c3.1,0.6,6.2,0.9,9.4,0.9c8,0,14.2-1.3,18.6-4c4.4-2.7,7.6-5.9,9.7-9.6c2.1-3.7,3.4-7.5,3.9-11.3s0.7-6.9,0.7-9.1L936.5,248.2    L936.5,248.2z"/>
		<path class="st0" d="M1003.4,172.7h38.6v20.6h0.9c5.1-8.6,11.8-14.8,20-18.7s16.6-5.9,25.1-5.9c10.9,0,19.8,1.5,26.7,4.4    c7,3,12.4,7.1,16.4,12.3s6.8,11.6,8.4,19.1s2.4,15.9,2.4,25v90.9h-40.6V237c0-12.2-1.9-21.3-5.7-27.3c-3.8-6-10.6-9-20.3-9    c-11,0-19,3.3-24,9.9c-5,6.6-7.4,17.4-7.4,32.4v77.4h-40.6L1003.4,172.7L1003.4,172.7z"/>
		<g>
			<path class="st0" d="M611.5,147.2v173.2h40.6V169.6C639.1,161.6,625.5,154.1,611.5,147.2z"/>
		</g>
		<path class="st0" d="M197.6,154.6c23.5-68.9,164.2-94.2,314.1-56.4c90,22.6,163.5,66.5,211.5,109.9    C701.4,150.5,595.8,68.5,450.3,40.3c-164.5-31.8-326.7-3.9-346.8,69.1C89,162.2,152.7,224,251.2,266.2    C207,230.4,185.4,190.2,197.6,154.6z"/>
		<g>
			<path class="st0" d="M723.3,183v-66.6h-40.6v20.2C700,152.1,713.8,167.8,723.3,183z"/>
		</g>
	</g>
	<g>
		<path class="st0" d="M1214.1,298.8c0,12.3-9.6,21.9-22.2,21.9c-12.4,0-22.3-9.6-22.3-21.9c0-12,9.9-21.6,22.3-21.6    C1204.5,277.2,1214.1,286.8,1214.1,298.8z M1175.2,298.8c0,9.6,7.1,17.3,16.9,17.3c9.5,0,16.5-7.6,16.5-17.1    c0-9.6-7-17.4-16.6-17.4C1182.3,281.6,1175.2,289.3,1175.2,298.8z M1188.5,310.2h-5v-21.6c2-0.4,4.7-0.7,8.3-0.7    c4.1,0,5.9,0.7,7.5,1.6c1.2,0.9,2.1,2.6,2.1,4.7c0,2.4-1.8,4.2-4.5,5v0.3c2.1,0.8,3.3,2.4,4,5.3c0.7,3.3,1.1,4.6,1.6,5.4h-5.4    c-0.7-0.8-1.1-2.8-1.7-5.3c-0.4-2.4-1.7-3.4-4.5-3.4h-2.4V310.2z M1188.7,297.9h2.4c2.8,0,5-0.9,5-3.2c0-2-1.5-3.3-4.6-3.3    c-1.3,0-2.2,0.1-2.8,0.3V297.9z"/>
	</g>
	<g>
		<path class="st0" d="M767.3,422.2H751l-2.9,9.2h16.3c1.6,0,3-0.4,4.3-1.2c1.2-0.8,2.1-2,2.6-3.5s0.4-2.6-0.4-3.4    C770.1,422.6,768.9,422.2,767.3,422.2z"/>
		<polygon class="st0" points="694.8,407.3 683,424.4 695.7,424.4 695,407.3   "/>
		<path class="st0" d="M421.5,405.3H408l-3.6,11.4h13.5c2.2,0,3.9-0.4,5.1-1.3s2.1-2.3,2.8-4.4c0.7-2,0.7-3.5,0-4.4    C425,405.7,423.6,405.3,421.5,405.3z"/>
		<path class="st0" d="M570.6,406H556l-3.2,9.9h14.6c1.9,0,3.5-0.4,4.7-1.3s2.1-2.1,2.6-3.7c0.5-1.5,0.4-2.7-0.3-3.5    C573.8,406.5,572.5,406,570.6,406z"/>
		<path class="st0" d="M771.4,405.7h-15.1l-2.5,7.7h15.1c1.6,0,2.9-0.4,3.9-1.1c1-0.8,1.6-1.7,2-2.7c0.3-1,0.2-1.9-0.2-2.7    C774,406,773,405.7,771.4,405.7z"/>
		<path class="st0" d="M329.3,366.6l-33.4,104.5h812.6l33.4-104.5H329.3z M441.3,411c-0.6,1.9-1.4,3.7-2.5,5.5s-2.5,3.4-4.2,4.8    s-3.7,2.6-6.1,3.4c-2.3,0.9-5,1.3-8.1,1.3h-19.2l-4.8,15.1h-15.2l14.5-45.2h33.6c3.1,0,5.6,0.4,7.5,1.1c1.9,0.8,3.3,1.8,4.2,3.2    s1.3,2.9,1.3,4.8C442.4,406.8,442,408.8,441.3,411z M516.1,418.5c-1.5,4.7-3.5,8.6-6.1,11.7s-5.5,5.5-8.8,7.4    c-3.3,1.8-6.9,3.1-10.7,3.9c-3.8,0.7-7.8,1.1-11.8,1.1s-7.7-0.4-11.1-1.1c-3.3-0.7-6.1-2-8.2-3.9c-2.1-1.8-3.5-4.3-4-7.4    c-0.6-3.1-0.1-7,1.4-11.7s3.5-8.6,6.1-11.7s5.5-5.5,8.8-7.4c3.3-1.8,6.8-3.1,10.7-3.9c3.8-0.7,7.8-1.1,11.8-1.1s7.7,0.4,11,1.1    c3.4,0.7,6.1,2,8.2,3.9c2.1,1.8,3.5,4.3,4,7.4C518,409.9,517.6,413.8,516.1,418.5z M591.8,408.5c-1,3-2.4,5.3-4.4,7    s-4,2.8-6.2,3.3l-0.1,0.1c1.3,0.5,2.2,1.3,2.8,2.6c0.6,1.2,0.6,3.1,0.1,5.5c-0.5,2.2-1,4.1-1.4,5.6s-0.6,2.8-0.8,3.9    c-0.1,1.1-0.2,2-0.1,2.7c0.1,0.7,0.3,1.3,0.6,1.9h-16.6c-0.1-1,0-2.1,0.3-3.3s0.6-2.4,1-3.4c0.6-1.8,0.9-3.2,1-4.3    s-0.1-1.9-0.4-2.5c-0.4-0.6-0.9-1-1.6-1.2c-0.7-0.2-1.5-0.3-2.5-0.3h-13.9l-4.8,15.1h-15.2l14.5-45.2h36.5c2.8,0,5.1,0.3,6.8,0.9    s3,1.5,3.9,2.6s1.3,2.4,1.3,4C592.6,404.9,592.4,406.6,591.8,408.5z M629.8,441.1h-15.2l11.3-35.1h-16.7l3.2-10.1H661l-3.2,10.1    h-16.7L629.8,441.1z M696.7,441.1l-0.4-7.3h-19.9l-5.1,7.3H655l34.3-45.2h18.5l5,45.2H696.7z M791.9,403.5    c-0.1,1.3-0.3,2.5-0.7,3.5c-0.7,2.2-1.9,4.1-3.4,5.7c-1.6,1.7-3.3,2.8-5.1,3.4v0.1c2.2,0.5,3.8,1.8,4.6,3.7    c0.8,1.9,0.7,4.5-0.3,7.7c-0.4,1.4-1.1,2.8-2.1,4.4c-0.9,1.6-2.2,3-3.8,4.4s-3.6,2.5-6.1,3.4c-2.4,0.9-5.4,1.4-8.9,1.4h-36.4    l14.5-45.2h37.7c2.7,0,4.8,0.4,6.3,1.1c1.5,0.8,2.5,1.7,3.1,2.8C791.8,401,792.1,402.2,791.9,403.5z M819.2,441.1H804l14.5-45.2    h15.2L819.2,441.1z M885.4,441.1h-42.9l14.5-45.2h15.2L861,430.6h27.7L885.4,441.1z M920.3,441.1h-15.2l14.5-45.2h15.2    L920.3,441.1z M998.8,406h-16.7l-11.3,35.1h-15.2l11.3-35.1h-16.7l3.2-10.1h48.6L998.8,406z M1039.5,426.9l-4.5,14.2h-15.2    l4.5-14.2l-10.2-31h17.6l4,19.2l16.4-19.2h17.6L1039.5,426.9z"/>
		<path class="st0" d="M496.2,405.5c-1.5-0.6-3.2-0.9-5.3-0.9c-4.1,0-7.7,1.1-10.9,3.4c-3.2,2.3-5.6,5.8-7.1,10.4    c-0.8,2.4-1.1,4.4-1,6.2c0.1,1.8,0.6,3.2,1.4,4.3c0.8,1.1,2,2,3.5,2.5s3.2,0.8,5.2,0.8c4.1,0,7.8-1.1,11-3.4    c3.2-2.2,5.6-5.7,7.1-10.5c0.8-2.3,1.1-4.4,1-6.1c-0.1-1.8-0.6-3.2-1.4-4.3C498.8,406.9,497.6,406.1,496.2,405.5z"/>
	</g>
	<g id="SPIR">
		<g>
			<polygon class="st0" points="1188.3,371.5 1181.8,371.5 1181.8,388.4 1176.1,388.4 1176.1,371.5 1169.6,371.5 1169.6,366.6      1188.3,366.6    "/>
			<polygon class="st0" points="1190.8,366.6 1199.2,366.6 1203,381.1 1203,381.1 1206.8,366.6 1215.2,366.6 1215.2,388.4      1209.8,388.4 1209.8,371.8 1209.8,371.8 1205.2,388.4 1200.8,388.4 1196.2,371.8 1196.2,371.8 1196.2,388.4 1190.8,388.4    "/>
		</g>
	</g>
</g>
</svg>