<?xml version="1.0" encoding="UTF-8" standalone="no"?>
<!-- Created with Inkscape (http://www.inkscape.org/) -->
<svg xmlns:dc="http://purl.org/dc/elements/1.1/" xmlns:cc="http://web.resource.org/cc/" xmlns:rdf="http://www.w3.org/1999/02/22-rdf-syntax-ns#" xmlns:svg="http://www.w3.org/2000/svg" xmlns="http://www.w3.org/2000/svg" xmlns:xlink="http://www.w3.org/1999/xlink" xmlns:sodipodi="http://sodipodi.sourceforge.net/DTD/sodipodi-0.dtd" xmlns:inkscape="http://www.inkscape.org/namespaces/inkscape" width="600" height="199.41692" id="svg2424" sodipodi:version="0.32" inkscape:version="0.45.1" version="1.0" sodipodi:docbase="/home/thayer/tmp/archlinux-logo-contest/archer/masters" sodipodi:docname="archlinux-official-fullcolour.svg" inkscape:output_extension="org.inkscape.output.svg.inkscape" inkscape:export-filename="/home/thayer/archlinux-logo-contest/archer-full-detail.png" inkscape:export-xdpi="90" inkscape:export-ydpi="90">
  <defs id="defs2426">
    <linearGradient inkscape:collect="always" xlink:href="#path1082_2_" id="linearGradient2197" gradientUnits="userSpaceOnUse" gradientTransform="matrix(-0.3444088,0,0,0.3443895,292.65265,0.3134079)" x1="541.33502" y1="104.50665" x2="606.91248" y2="303.14029"/>
    <linearGradient gradientUnits="userSpaceOnUse" id="path1082_2_" y2="129.3468" x2="112.49853" y1="6.1372099" x1="112.49854" gradientTransform="translate(287,-83)">
      <stop id="stop193" offset="0" style="stop-color:#ffffff;stop-opacity:0"/>
      <stop id="stop195" offset="1" style="stop-color:#ffffff;stop-opacity:0.27450982;"/>
      <midPointStop id="midPointStop197" style="stop-color:#FFFFFF" offset="0"/>
      <midPointStop id="midPointStop199" style="stop-color:#FFFFFF" offset="0.5"/>
      <midPointStop id="midPointStop201" style="stop-color:#000000" offset="1"/>
    </linearGradient>
    <linearGradient inkscape:collect="always" xlink:href="#path1082_2_" id="linearGradient2544" gradientUnits="userSpaceOnUse" gradientTransform="matrix(-0.3937741,0,0,0.393752,357.51969,122.00151)" x1="541.33502" y1="104.50665" x2="606.91248" y2="303.14029"/>
    <linearGradient id="linearGradient3388">
      <stop style="stop-color:#000000;stop-opacity:0;" offset="0" id="stop3390"/>
      <stop style="stop-color:#000000;stop-opacity:0.37113401;" offset="1" id="stop3392"/>
    </linearGradient>
    <linearGradient inkscape:collect="always" xlink:href="#linearGradient3388" id="linearGradient4416" gradientUnits="userSpaceOnUse" gradientTransform="matrix(0.749107,0,0,0.749107,-35.459862,91.44108)" x1="490.72305" y1="237.72447" x2="490.72305" y2="183.9644"/>
  </defs>
  <sodipodi:namedview id="base" pagecolor="#ffffff" bordercolor="#666666" borderopacity="1.0" gridtolerance="10000" guidetolerance="10" objecttolerance="10" inkscape:pageopacity="0.0" inkscape:pageshadow="2" inkscape:zoom="1" inkscape:cx="340.50321" inkscape:cy="46.862915" inkscape:document-units="px" inkscape:current-layer="g2424" inkscape:window-width="636" inkscape:window-height="511" inkscape:window-x="1038" inkscape:window-y="16"/>
  <metadata id="metadata2429">
    <rdf:RDF>
      <cc:Work rdf:about="">
        <dc:format>image/svg+xml</dc:format>
        <dc:type rdf:resource="http://purl.org/dc/dcmitype/StillImage"/>
      </cc:Work>
    </rdf:RDF>
  </metadata>
  <g inkscape:label="Layer 1" inkscape:groupmode="layer" id="layer1" transform="translate(-34.777313,-129.80241)">
    <g id="g2424" transform="matrix(0.8746356,0,0,0.8746356,14.730518,23.408954)">
      <g style="fill:#4d4d4d;fill-opacity:1" transform="matrix(0.6378586,0,0,0.6378586,36.486487,2.17139)" id="g2809">
        <path style="fill:#4d4d4d;fill-opacity:1;fill-rule:evenodd;stroke:none;stroke-width:0.5;stroke-miterlimit:4;stroke-dasharray:none;stroke-opacity:1" d="M 339.96875,309.09375 C 325.49734,309.06987 313.48755,312.03742 308.84375,313.65625 L 304.0625,339.46875 C 304.05087,339.56384 327.85793,333.1202 338.34375,333.5 C 355.70533,334.12381 357.30323,340.13541 357,348.25 C 357.29595,348.72462 352.52067,340.91808 337.5,340.65625 C 318.55039,340.32938 291.80716,347.36572 291.84375,375.96875 C 291.33289,408.14287 315.87736,417.60757 332.59375,417.78125 C 347.62196,417.50761 354.67145,412.08989 358.53125,409.1875 C 363.60249,403.88514 369.40433,398.55303 374.9375,392.15625 C 369.70183,401.66903 365.16278,408.24605 360.4375,413.28125 L 360.4375,417.53125 L 383.28125,413.6875 L 383.4375,351.59375 C 383.20609,342.80536 388.47873,309.17548 339.96875,309.09375 z M 336.6875,363.15625 C 346.15639,363.2862 357.01538,367.95333 357.03125,379.1875 C 357.08027,389.40571 344.2312,394.89933 335.875,394.8125 C 327.51524,394.72573 316.42407,388.24268 316.375,378.28125 C 316.53516,369.37681 326.83453,362.92707 336.6875,363.15625 z " id="path2284"/>
        <path inkscape:export-ydpi="90" inkscape:export-xdpi="90" inkscape:export-filename="/home/thayer/linux/artwork-arch/sample-hangar2.png" id="path2286" d="M 398.50106,314.83145 L 398.34601,417.65838 L 424.95814,412.53114 L 425.003,354.22957 C 425.00936,345.54868 437.40854,335.40506 452.9657,335.5667 C 456.26772,329.59262 462.4744,314.32451 463.98658,310.85156 C 429.23009,310.76831 428.78761,320.84149 422.7426,325.79673 C 422.67951,316.34388 422.72126,310.66932 422.72126,310.66932 L 398.50106,314.83145 z " style="fill:#4d4d4d;fill-opacity:1;fill-rule:evenodd;stroke:none;stroke-width:0.5;stroke-miterlimit:4;stroke-dasharray:none;stroke-opacity:1"/>
        <path sodipodi:nodetypes="ccccccccccc" inkscape:export-ydpi="90" inkscape:export-xdpi="90" inkscape:export-filename="/home/thayer/linux/artwork-arch/sample-hangar2.png" id="path2288" d="M 548.2688,328.33058 C 548.01184,328.2099 534.38942,312.39639 507.00242,312.27168 C 481.34993,311.8453 452.57664,321.79063 452.11611,364.80448 C 452.34068,402.623 479.75631,417.40257 507.14751,417.69075 C 536.46043,417.99526 548.12405,399.36128 548.82366,398.89951 C 545.32604,395.86741 532.22574,382.88641 532.22574,382.88641 C 532.22574,382.88641 524.04338,394.53743 508.16772,394.68554 C 492.2883,394.83674 478.48527,382.41229 478.28967,365.07649 C 478.08618,347.74054 490.97848,338.34828 508.28692,337.58962 C 523.27158,337.58641 531.91662,347.26296 531.91662,347.26296 L 548.2688,328.33058 z " style="fill:#4d4d4d;fill-opacity:1;fill-rule:evenodd;stroke:none;stroke-width:0.5;stroke-miterlimit:4;stroke-dasharray:none;stroke-opacity:1"/>
        <path style="fill:#4d4d4d;fill-opacity:1;fill-rule:evenodd;stroke:none;stroke-width:0.5;stroke-miterlimit:4;stroke-dasharray:none;stroke-opacity:1" d="M 581.8125,278.84375 L 556.6875,284.75 L 556.875,418.6875 L 581.625,414.21875 L 581.90625,351.1875 C 581.95916,344.57823 591.46752,334.42834 607.34375,334.75 C 622.52348,334.90775 625.91611,344.86767 625.875,346.125 L 626.3125,419.09375 L 650.71875,414.78125 L 650.8125,337.40625 C 650.9732,329.96086 634.50417,314.23671 608.03125,314.125 C 595.45038,314.14524 588.4831,316.99325 584.9375,319.09375 C 578.87094,323.7794 571.9377,328.26918 565.125,334 C 571.42309,325.90901 576.71051,320.31484 581.875,316.15625 L 581.8125,278.84375 z " id="path2290"/>
      </g>
      <g transform="matrix(0.9443373,0,1.3363449e-2,0.9443373,78.345657,-412.48879)" style="fill:#1793d1;fill-opacity:1;stroke:none;stroke-width:0.5;stroke-miterlimit:4;stroke-dasharray:none;stroke-opacity:1" id="g5326">
        <path inkscape:export-ydpi="90" inkscape:export-xdpi="90" inkscape:export-filename="/home/thayer/linux/artwork-arch/sample-hangar2.png" id="path2292" d="M 400.67581,629.79609 L 408.35748,627.88034 L 407.42897,719.08826 L 399.63323,720.41252 L 400.67581,629.79609 z " style="fill:#1793d1;fill-opacity:1;fill-rule:evenodd;stroke:none;stroke-width:0.5;stroke-miterlimit:4;stroke-dasharray:none;stroke-opacity:1"/>
        <path inkscape:export-ydpi="90" inkscape:export-xdpi="90" inkscape:export-filename="/home/thayer/linux/artwork-arch/sample-hangar2.png" id="path2294" d="M 421.10266,657.01757 L 427.8533,654.03087 L 426.98522,719.43018 L 420.48743,720.76933 L 421.10266,657.01757 z M 419.84207,633.43441 L 425.31374,629.01908 L 429.73635,634.0186 L 424.26077,638.55081 L 419.84207,633.43441 z " style="fill:#1793d1;fill-opacity:1;fill-rule:evenodd;stroke:none;stroke-width:0.5;stroke-miterlimit:4;stroke-dasharray:none;stroke-opacity:1"/>
        <path inkscape:export-ydpi="90" inkscape:export-xdpi="90" inkscape:export-filename="/home/thayer/linux/artwork-arch/sample-hangar2.png" id="path2296" d="M 440.44273,655.82614 L 448.12028,654.26413 L 447.96298,667.93633 C 447.95623,668.5235 452.38238,652.66269 472.648,653.01539 C 492.32786,653.12491 495.33201,668.36173 495.1771,671.77776 L 494.73951,719.85606 L 488.00907,721.31237 L 488.64223,673.82337 C 488.73965,672.43653 485.76079,660.70896 471.85317,660.66583 C 457.94808,660.62546 448.16953,670.76631 448.09496,677.2452 L 447.61369,719.07997 L 439.80981,721.11127 L 440.44273,655.82614 z " style="fill:#1793d1;fill-opacity:1;fill-rule:evenodd;stroke:none;stroke-width:0.5;stroke-miterlimit:4;stroke-dasharray:none;stroke-opacity:1"/>
        <path inkscape:export-ydpi="90" inkscape:export-xdpi="90" inkscape:export-filename="/home/thayer/linux/artwork-arch/sample-hangar2.png" id="path2298" d="M 561.53301,720.20203 L 553.85541,721.76389 L 554.01278,708.09191 C 554.01954,707.50449 549.59077,723.36552 529.32774,723.01277 C 509.64791,722.90333 506.64375,707.66651 506.79866,704.25048 L 507.23623,656.17187 L 515.39297,654.52961 L 514.84653,702.01949 C 514.83161,703.31631 516.21498,715.31928 530.12257,715.36209 C 544.02768,715.40254 553.88879,706.9885 554.1371,694.31793 L 554.56815,656.84891 L 562.16595,654.91696 L 561.53301,720.20203 z " style="fill:#1793d1;fill-opacity:1;fill-rule:evenodd;stroke:none;stroke-width:0.5;stroke-miterlimit:4;stroke-dasharray:none;stroke-opacity:1"/>
        <path inkscape:export-ydpi="90" inkscape:export-xdpi="90" inkscape:export-filename="/home/thayer/linux/artwork-arch/sample-hangar2.png" id="path2300" d="M 577.45461,655.28678 L 572.02746,659.48695 L 592.2264,686.42023 L 569.83548,717.53645 L 575.47047,721.76245 L 596.51412,692.86575 L 617.39202,722.44734 L 622.71929,718.24631 L 600.34351,686.61765 L 618.91314,661.04015 L 613.38121,656.30586 L 596.46012,679.97364 L 577.45461,655.28678 z " style="fill:#1793d1;fill-opacity:1;fill-rule:evenodd;stroke:none;stroke-width:0.5;stroke-miterlimit:4;stroke-dasharray:none;stroke-opacity:1"/>
      </g>
      <text id="text4418" y="293.20715" x="678.61005" style="font-size:16.93816185px;font-style:normal;font-weight:normal;text-align:end;text-anchor:end;fill:#4d4d4d;fill-opacity:1;stroke:none;stroke-width:1px;stroke-linecap:butt;stroke-linejoin:miter;stroke-opacity:1;font-family:Liberation Sans" xml:space="preserve"><tspan y="293.20715" x="678.61004" id="tspan4420" sodipodi:role="line">A simple, lightweight linux distribution.</tspan></text>
      <path style="fill:#1793d1;fill-opacity:1;fill-rule:evenodd;stroke:none;stroke-width:1;stroke-linecap:round;stroke-linejoin:round;stroke-miterlimit:10;stroke-dasharray:none;stroke-opacity:1" d="M 105.8125 16.625 C 98.41563 34.760158 93.954196 46.622682 85.71875 64.21875 C 90.76811 69.57107 96.965961 75.804114 107.03125 82.84375 C 96.210077 78.390904 88.828713 73.920352 83.3125 69.28125 C 72.7727 91.274163 56.259864 122.60209 22.75 182.8125 C 49.087628 167.60733 69.504089 158.23318 88.53125 154.65625 C 87.714216 151.1422 87.2497 147.34107 87.28125 143.375 L 87.3125 142.53125 C 87.730417 125.65743 96.508165 112.68146 106.90625 113.5625 C 117.30434 114.44354 125.38666 128.84492 124.96875 145.71875 C 124.89011 148.89387 124.53201 151.9483 123.90625 154.78125 C 142.72683 158.46289 162.92498 167.81304 188.90625 182.8125 C 183.78325 173.3807 179.21053 164.87862 174.84375 156.78125 C 167.96536 151.45004 160.79086 144.51145 146.15625 137 C 156.21524 139.61375 163.41735 142.62932 169.03125 146 C 124.63297 63.338161 121.03766 52.354109 105.8125 16.625 z " transform="matrix(1.1433333,0,0,1.1433333,22.920168,121.64318)" id="path2518"/>
      <path sodipodi:nodetypes="ccc" id="path2522" d="M 197.39609,253.57278 C 156.21466,197.6777 146.66924,152.62797 144.25142,141.87263 C 166.21879,192.54123 166.06875,193.16258 197.39609,253.57278 z " style="fill:#ffffff;fill-opacity:0.16568047;fill-rule:evenodd;stroke:none;stroke-width:36.09999847;stroke-linecap:butt;stroke-linejoin:round;stroke-miterlimit:10;stroke-opacity:1"/>
      <text id="text2634" y="263.83624" x="683.27826" style="font-size:8.44138241px;font-style:normal;font-weight:normal;fill:#87cdde;fill-opacity:1;stroke:none;stroke-width:1px;stroke-linecap:butt;stroke-linejoin:miter;stroke-opacity:1;font-family:DejaVu Sans Mono" xml:space="preserve"><tspan y="263.83624" x="683.27826" id="tspan2636" sodipodi:role="line">TM</tspan></text>
      <text id="text2638" y="313.69965" x="237.70116" style="font-size:8.25130367px;font-style:normal;font-weight:normal;fill:#87cdde;fill-opacity:1;stroke:none;stroke-width:1px;stroke-linecap:butt;stroke-linejoin:miter;stroke-opacity:1;font-family:DejaVu Sans Mono" xml:space="preserve"><tspan y="313.69965" x="237.70116" id="tspan2640" sodipodi:role="line">TM</tspan></text>
      <path style="fill:url(#linearGradient2197);fill-opacity:1;fill-rule:evenodd;stroke:none;stroke-width:0.71416688;stroke-linecap:round;stroke-linejoin:round;stroke-miterlimit:10;stroke-dasharray:none;stroke-opacity:1" d="M 106.125 17.375 C 105.20778 19.629891 104.3166 21.823436 103.46875 23.90625 C 102.52314 26.229151 101.61248 28.450901 100.71875 30.625 C 99.825091 32.799125 98.940576 34.905817 98.0625 37 C 97.184375 39.09428 96.305066 41.166742 95.40625 43.25 C 94.507492 45.333181 93.580741 47.421499 92.625 49.5625 C 91.669259 51.703573 90.673922 53.919744 89.625 56.1875 C 88.575988 58.455273 87.490897 60.786737 86.3125 63.25 C 86.152563 63.584315 85.975206 63.973862 85.8125 64.3125 C 90.845763 69.643738 97.02488 75.845322 107.03125 82.84375 C 96.243607 78.404701 88.885659 73.936188 83.375 69.3125 C 83.086305 69.901901 82.828753 70.42759 82.53125 71.03125 C 81.491988 73.140122 80.345105 75.415448 79.1875 77.71875 C 79.139349 77.816021 79.110881 77.90236 79.0625 78 C 78.769076 78.583398 78.520421 79.090361 78.21875 79.6875 C 78.17305 79.779248 78.108403 79.876676 78.0625 79.96875 C 73.274277 89.573115 67.355739 101.04488 59.75 115.28125 C 80.813326 103.40826 103.54704 86.296669 144.8125 101.03125 C 142.74217 97.110092 140.85002 93.457274 139.0625 90 C 137.27501 86.542618 135.60456 83.280412 134.0625 80.21875 C 132.52055 77.157149 131.08371 74.296664 129.75 71.5625 C 128.4163 68.828398 127.19386 66.225009 126.03125 63.75 C 124.86857 61.275044 123.7788 58.909049 122.75 56.625 C 121.72113 54.340977 120.74483 52.130036 119.8125 49.96875 C 118.88008 47.807351 117.99801 45.700511 117.125 43.59375 C 116.25191 41.486928 115.38217 39.401846 114.53125 37.28125 C 114.24661 36.572046 113.94118 35.840832 113.65625 35.125 C 111.30913 29.61805 108.90907 23.915214 106.125 17.375 z " id="path2520" transform="matrix(1.1433333,0,0,1.1433333,22.920168,121.64318)"/>
    </g>
  </g>
</svg>