<?xml version="1.0" encoding="UTF-8"?>
<!DOCTYPE svg PUBLIC "-//W3C//DTD SVG 1.1//EN" "http://www.w3.org/Graphics/SVG/1.1/DTD/svg11.dtd">
<!-- Creator: CorelDRAW X7 -->
<svg xmlns="http://www.w3.org/2000/svg" xml:space="preserve" width="144.432mm" height="39.5108mm" version="1.1" style="shape-rendering:geometricPrecision; text-rendering:geometricPrecision; image-rendering:optimizeQuality; fill-rule:evenodd; clip-rule:evenodd" viewBox="0 0 14232 3893" xmlns:xlink="http://www.w3.org/1999/xlink">
 <defs>
  <style type="text/css">
   <![CDATA[
    .fil0 {fill:#2B2A29}
    .fil1 {fill:#E5097F}
   ]]>
  </style>
 </defs>
 <g id="Слой_x0020_1">
  <metadata id="CorelCorpID_0Corel-Layer"/>
  <path class="fil0" d="M12369 1252c0,0 155,-7 330,-39 141,-26 269,-98 269,-98l0 470c0,0 106,-444 612,-444 110,0 583,-26 583,631 0,30 0,1303 0,1452 0,321 69,434 69,434 0,0 -192,-22 -335,-22 -144,0 -265,22 -265,22 0,0 57,-190 57,-673 0,-249 0,-713 0,-896 0,-183 29,-583 -303,-583 -439,0 -410,554 -410,812 0,257 0,812 0,899 0,309 47,441 47,441 0,0 -142,-18 -323,-18 -182,0 -259,18 -259,18 0,0 66,-99 66,-643 0,-544 0,-926 0,-1133 0,-594 -138,-630 -138,-630z"/>
  <polygon class="fil1" points="9774,95 10156,478 9774,860 9391,478 "/>
  <path class="fil0" d="M10026 3194c0,-146 0,-1536 0,-1700 0,-163 39,-379 39,-379 0,0 -102,56 -247,91 -145,34 -399,61 -399,61 0,0 141,47 141,484 0,240 0,1090 0,1241 0,584 -85,666 -85,666 0,0 182,-22 335,-22 153,0 301,22 301,22 0,0 -85,-124 -85,-464z"/>
  <path class="fil0" d="M10528 1742c0,0 -9,-79 -58,-212 -49,-132 -84,-177 -84,-177 0,0 336,-212 845,-212 643,0 771,289 771,736l0 1263c0,460 96,518 96,518 0,0 -95,-15 -250,-15 -155,0 -282,15 -282,15 0,0 -11,-193 -11,-314l0 -162c0,0 -144,492 -634,492 -490,0 -609,-396 -609,-748 0,-264 43,-836 953,-836 214,0 279,14 279,14l0 -177c0,-114 4,-425 -371,-425 -413,0 -645,240 -645,240zm719 629l306 0c0,0 66,905 -456,905 -146,0 -329,-81 -329,-428 0,-428 345,-477 479,-477z"/>
  <path class="fil0" d="M7462 1054l0 2117c0,257 -54,400 -54,400 0,0 258,113 662,113 808,0 1171,-535 1171,-1467 0,-204 -6,-1076 -702,-1076 -486,0 -624,543 -624,543l0 -321c0,-253 38,-1127 38,-1127 0,0 -112,68 -318,123 -206,55 -353,58 -353,58 0,0 180,32 180,637zm464 1599c0,287 13,716 13,716 0,0 153,24 215,24 552,0 603,-638 603,-952 0,-314 -27,-871 -401,-871 -453,0 -430,796 -430,1083z"/>
  <path class="fil0" d="M7286 3204c0,0 -28,121 -39,234 -12,113 -7,179 -7,179 0,0 -151,67 -535,67 -1197,0 -1111,-1150 -1111,-1312 0,-161 -11,-1231 908,-1231 732,0 792,626 792,1026 0,266 -8,303 -8,303l-1202 0c0,0 -86,869 703,869 334,0 499,-135 499,-135zm-1213 -1051l768 0c0,0 82,-711 -366,-711 -451,0 -402,711 -402,711z"/>
  <path class="fil0" d="M5430 236c0,0 -52,390 -52,987l0 1452c0,825 121,983 121,983 0,0 -142,-13 -247,-13 -104,0 -311,13 -311,13l-10 -389c0,0 -83,409 -543,409 -459,0 -771,-435 -771,-1304 0,-402 75,-1233 960,-1233 215,0 361,67 361,67l0 -419c0,-315 -124,-372 -124,-372 0,0 194,-25 367,-75 173,-50 249,-106 249,-106zm-507 1321c0,0 -129,-83 -293,-83 -516,0 -533,575 -533,837 0,261 27,957 470,957 345,0 358,-332 358,-805l-2 -906z"/>
  <path class="fil1" d="M2343 1666c0,0 15,-17 15,-66 0,-49 -1,-56 -7,-56 -7,0 -18,11 -20,27 -2,11 -11,23 -11,30 0,7 13,9 13,19 0,25 10,46 10,46z"/>
  <path class="fil1" d="M1839 2063c0,10 41,21 78,30 36,9 30,1 41,6 11,4 15,10 24,1 9,-9 64,-53 54,-53 -10,0 -25,13 -60,13 -63,0 -83,-3 -101,-3 -17,0 -36,2 -36,6z"/>
  <path class="fil1" d="M1806 3893c0,0 -94,-1 -158,-1 -63,0 -82,-4 -98,-4 -16,0 -32,-1 -73,-10 -41,-10 -79,-23 -106,-31 -27,-9 -100,-33 -150,-49 -49,-16 -182,-61 -260,-95 -79,-33 -197,-87 -295,-166 -98,-80 -169,-141 -285,-290 -117,-148 -182,-258 -229,-363 -47,-104 -95,-259 -102,-420 -3,-49 -9,-229 -9,-365 0,-137 3,-181 1,-215 -2,-34 -4,-93 -4,-126 0,-32 12,-216 12,-251 0,-14 -19,-43 -19,-49 0,-6 74,-244 95,-302 22,-58 67,-151 78,-172 11,-21 14,-38 14,-38 0,0 8,25 19,25 10,0 30,-30 44,-54 14,-24 30,-60 38,-88 8,-27 20,-47 26,-63 6,-16 20,-30 27,-45 6,-15 9,-19 17,-19 8,0 9,-5 21,-46 12,-41 29,-55 38,-71 9,-16 52,-51 74,-69 23,-17 62,-52 84,-67 22,-15 72,-63 98,-89 26,-27 33,-37 33,-37 0,0 3,9 3,19 0,9 1,20 14,6 13,-13 52,-48 79,-68 27,-19 72,-56 113,-76 40,-19 94,-43 152,-65 57,-21 125,-44 163,-64 37,-19 84,-38 84,-38 0,0 -36,36 -5,29 31,-7 120,-38 159,-38 21,0 36,-3 36,-3 0,0 -34,21 -51,30 -17,9 -34,22 -34,22 0,0 72,-18 88,-18 16,0 24,22 55,22 32,0 73,-8 73,-8 0,0 -25,12 -37,12 -12,0 -17,7 -30,8 -13,0 -13,10 6,11 19,1 71,2 89,2 41,0 45,-32 80,-32 20,0 101,30 101,30l-12 -41c0,0 127,50 171,57 43,7 65,13 105,34 41,20 127,65 127,65 0,0 36,2 46,-2 10,-4 17,-26 38,-26 21,0 92,24 92,42 0,18 4,26 14,32 10,6 99,64 99,64 0,0 12,-8 -3,-19 -15,-12 -52,-53 -52,-53 0,0 60,38 85,50 25,11 93,58 137,88 44,30 104,86 143,127 40,42 120,140 154,229 34,89 76,219 76,219 0,0 -46,-83 -52,-82 -6,2 25,111 30,126 5,15 0,15 -5,17 -6,3 -11,6 -2,19 9,13 35,95 45,129 9,35 33,151 33,151 0,0 -23,-74 -34,-123 -11,-50 -33,-108 -48,-147 -23,-60 -79,-140 -79,-140 0,0 -6,44 -19,44 -13,0 -50,-49 -62,-49 -12,0 -2,22 12,79 13,58 44,101 41,66 -4,-35 -11,-60 3,-35 15,25 31,56 31,67 0,10 1,50 7,64 6,14 29,100 25,105 -5,5 -15,-5 -23,-25 -7,-20 -16,-36 -20,-36 -5,0 -18,-2 -5,37 12,40 22,75 37,91 16,16 21,14 16,21 -6,6 -5,6 -9,1 -4,-6 -13,-7 -13,30 0,37 9,119 18,119 10,0 17,-24 31,-24 13,0 5,2 -2,34 -8,33 -19,39 -27,60 -8,22 -26,34 -26,75 0,42 12,74 12,74 0,0 -13,-25 -18,-43 -4,-17 -12,-18 -12,-25 0,-15 -6,-10 -6,7 0,27 -3,27 -3,31 0,5 8,0 8,12 0,11 4,6 4,18 0,12 0,25 0,29 0,4 -12,-15 -12,-30 0,-15 2,-31 -7,-22 -8,10 -12,19 -12,19 0,0 0,40 0,70 0,30 -7,77 -26,104 -20,27 -34,41 -41,53 -7,12 -39,47 -41,74 -3,37 0,70 0,70l-39 -58c0,0 -29,38 -45,64 -15,26 -26,44 -26,50 0,5 1,5 9,5 8,0 30,-11 30,0 0,12 -42,92 -42,80 0,-4 21,-29 11,-29 -11,0 -20,6 -14,-4 5,-10 25,-34 25,-34 0,0 -23,5 -45,27 -21,21 -33,39 -45,50 -11,11 -13,13 -25,24 -13,11 -39,31 -55,46 -16,14 -95,71 -138,103 -44,33 -136,100 -234,121 -98,22 -143,24 -174,24 -32,0 -122,-2 -304,-66 -90,-31 -111,-39 -111,-41 0,-3 5,-1 5,-4 0,-2 -18,-14 -46,-36 -29,-23 -104,-82 -125,-98 -22,-17 -75,-61 -91,-73 -16,-12 -83,-78 -83,-78l14 44c0,0 -5,-3 -16,-23 -10,-21 -38,-70 -52,-96 -13,-25 -46,-79 -46,-142 0,-155 21,-272 21,-323 0,-16 5,-23 20,-37 14,-13 22,-29 29,-66 6,-37 16,-104 38,-128 27,-32 66,-51 71,-63 5,-12 48,-94 62,-109 15,-15 33,-35 48,-47 15,-11 27,-17 46,-31 18,-13 59,-32 87,-43 27,-11 135,-21 165,-21 29,0 115,0 142,0 27,0 91,11 137,38 46,28 77,56 96,73 18,16 47,51 57,64 11,13 33,40 33,40 0,0 -31,-25 -58,-47 -26,-22 -72,-60 -111,-79 -40,-18 -113,-38 -168,-38 -56,0 -108,9 -155,29 -47,20 -109,46 -171,79 -62,33 -107,58 -143,92 -37,35 -90,112 -107,169 -18,56 -24,84 -24,106 0,22 0,55 0,75 0,19 3,24 3,44 0,20 0,36 0,49 0,13 4,8 5,1 1,-6 10,-1 10,-7 0,-6 7,-28 7,-3 0,25 5,190 24,284 19,95 79,199 184,280 105,80 234,136 321,136 110,0 322,-94 322,-94 0,0 2,10 9,10 7,0 32,-8 68,-20 37,-12 52,-14 61,-30 8,-15 2,-16 13,-27 11,-11 66,-58 71,-57 5,1 -1,13 -17,26 -17,13 -40,27 -13,27 39,0 117,-76 169,-123 52,-48 73,-67 86,-75 13,-9 17,-21 21,-34 5,-13 12,-31 5,-31 -6,0 -22,1 -16,-13 6,-13 28,-66 35,-66 7,0 17,-3 22,-10 4,-7 34,-7 34,-24 0,-18 23,-61 37,-94 14,-32 20,-45 20,-56 0,-11 0,-87 0,-87l-38 90c0,0 40,-125 40,-194 0,-38 -12,-123 -12,-161 0,-39 3,-53 3,-73 0,-20 2,-31 -3,-31 -5,0 -9,-3 -9,-13 0,-11 -12,-130 -15,-156 -3,-26 -22,-138 -50,-191 -17,-33 -31,-63 -80,-133 -48,-70 -79,-106 -134,-155 -55,-50 -81,-72 -167,-119 -86,-47 -158,-82 -197,-98 -39,-16 -132,-52 -183,-61 -50,-10 -147,-20 -213,-20 -67,0 -121,8 -144,16 -22,8 -26,12 -31,12 -10,0 -2,10 -10,10 -10,0 -27,4 -47,11 -21,7 -40,18 -40,18 0,0 -6,-7 37,-21 32,-10 51,-13 51,-18 0,-5 -10,-4 -14,-4 -5,0 -62,8 -114,14 -52,6 -101,19 -101,39 0,21 -9,35 -65,55 -56,19 -99,24 -106,31 -7,7 -20,26 -20,26 0,0 12,1 59,-16 60,-22 67,-34 67,-26 0,8 -68,55 -136,55 -34,0 -55,-6 -70,-6 -16,0 -32,9 -89,60 -57,52 -74,72 -74,72 0,0 6,8 16,8 10,0 38,-24 46,-35 8,-11 24,-18 2,6 -38,40 -32,44 -39,44 -7,0 -19,0 -39,0 -21,0 -104,3 -198,100 -94,97 -174,182 -219,249 -45,66 -47,77 -58,88 -10,11 -13,12 -13,12l40 3c0,0 -27,67 -49,118 -22,51 -39,57 -57,91 -19,34 -36,74 -41,145 -4,70 -16,167 -22,216 -7,50 -21,129 -27,180 -6,50 -7,78 -7,109 0,31 6,80 36,125 30,45 36,52 36,62 0,9 -4,18 -4,42 0,25 -3,56 -3,56 0,0 14,12 19,33 6,21 23,42 23,42l-24 0c0,0 73,228 91,228 18,0 26,-105 47,-105 12,0 21,20 32,42 11,21 36,75 49,107 30,73 45,89 36,88 -9,0 -40,-12 -53,-32 -13,-21 -15,-28 -15,-4 0,24 7,23 7,34 0,11 13,17 25,43 13,31 34,58 46,74 12,16 24,24 18,32 -7,7 -11,7 -11,12 0,5 -10,5 -10,11 1,6 23,44 43,59 20,14 39,27 39,27 0,0 -44,-19 -49,-19 -5,0 -20,-2 -10,14 9,17 100,134 125,165 25,31 63,87 63,87l20 -33c0,0 0,34 0,42 0,8 31,58 35,66 4,7 7,11 12,17 5,7 13,14 18,21 5,7 15,19 22,28 7,9 7,17 20,17 14,0 17,-4 33,-4 16,0 16,-1 20,10 4,10 17,35 36,49 3,3 12,16 17,20 6,4 13,8 16,13 4,6 17,15 17,15 0,0 8,4 15,8 7,5 20,14 29,14 9,0 26,-1 19,7 -7,9 -34,39 -28,40 6,2 95,29 95,39 0,6 -6,3 -6,14 0,10 35,18 50,25 14,8 83,36 73,26 -9,-11 -28,-48 -27,-50 1,-3 42,44 53,49 11,6 18,21 28,34 9,12 27,39 53,55 26,16 56,39 198,83 34,10 67,1 101,8 34,7 123,30 123,30z"/>
  <path class="fil1" d="M2158 1956c0,-6 3,-6 3,-13 0,-6 24,-36 47,-64 23,-27 40,-51 40,-51 0,0 -11,41 -28,62 -17,21 -50,65 -48,66 2,2 18,-6 42,-18 23,-13 28,-14 47,-42 26,-37 41,-90 41,-90 0,0 -16,82 -39,114 -23,32 -21,24 -28,38 -7,13 -12,19 -10,7 1,-12 -4,-21 -13,-21 -20,0 -43,26 -43,19 0,-11 -11,-1 -11,-7z"/>
  <path class="fil1" d="M2981 1750c-4,0 -2,6 -2,14 0,7 -26,95 -28,100 -1,6 1,14 9,-9 7,-22 26,-78 26,-94 0,-7 -1,-11 -5,-11z"/>
  <path class="fil1" d="M3050 1759c-6,0 -10,22 -16,63 -5,41 -10,65 -17,92 -8,28 -22,75 -32,100 -10,26 -63,133 -63,133 0,0 30,-44 53,-94 23,-50 35,-89 42,-111 7,-23 19,-76 21,-95 2,-19 8,-58 11,-73 4,-14 6,-15 1,-15z"/>
  <path class="fil1" d="M6 1266c0,0 22,-39 28,-83 6,-45 12,-58 12,-58 0,0 -46,52 -46,69 0,25 11,16 11,33 0,30 -5,39 -5,39z"/>
  <path class="fil1" d="M74 944c0,5 13,0 22,-8 10,-8 15,-15 12,-17 -2,-2 -3,-3 -7,2 -4,5 -19,16 -22,17 -3,2 -5,1 -5,6z"/>
  <path class="fil1" d="M108 915c1,1 11,-6 19,-10 8,-5 12,-15 16,-30 5,-14 19,-39 19,-47 0,-8 -11,0 -14,4 -3,4 -12,8 -15,13 -3,5 -15,12 -15,6 0,-7 -6,-11 0,12 2,9 -3,21 -3,31 0,15 -7,21 -7,21z"/>
  <path class="fil1" d="M1178 2143l-15 47c0,0 21,25 40,54 19,29 33,55 39,62 6,8 28,28 34,34 7,7 18,15 18,15 0,0 -20,-41 -29,-57 -9,-16 -22,-33 -41,-62 -32,-49 -46,-93 -46,-93z"/>
  <path class="fil1" d="M1256 2215c0,0 31,46 42,64 11,17 50,76 73,105 23,30 56,67 85,88 29,22 116,74 142,87 26,13 67,29 108,44 42,15 68,24 86,28 18,4 71,8 83,8 110,0 232,-53 232,-53 0,0 -85,2 -124,2 -39,0 -136,-4 -208,-32 -73,-28 -84,-37 -97,-45 -13,-8 -62,-42 -62,-52 0,-10 4,-10 4,-10 0,0 -9,-4 -9,10 0,9 3,12 3,12 0,0 -9,2 -65,-30 -115,-64 -178,-154 -178,-154 0,0 8,30 49,75 40,46 76,71 76,71 0,0 -54,-22 -69,-35 -16,-13 -53,-55 -70,-78 -17,-23 -33,-43 -38,-51 -5,-8 -10,-15 -15,-20 -21,-29 -48,-34 -48,-34z"/>
  <path class="fil1" d="M1639 52c0,0 23,-2 53,-2 30,0 68,3 48,8 -21,6 -36,12 -36,12 0,0 -17,5 -17,0 0,-5 17,6 17,-5 0,-8 -65,-13 -65,-13z"/>
  <path class="fil1" d="M1623 14c0,4 19,0 19,3 0,4 4,2 15,-1 10,-2 60,-11 42,-11 -17,0 -33,5 -46,5 -13,1 -30,1 -30,4z"/>
  <path class="fil1" d="M1724 4c6,2 40,4 40,2 1,-2 30,-3 13,-5 -3,-1 -5,-1 -6,-1l-4 0c-6,0 -7,3 -19,3 -18,-1 -30,-1 -24,1z"/>
 </g>
</svg>