<?xml version="1.0" standalone="no"?>
<!DOCTYPE svg PUBLIC "-//W3C//DTD SVG 20010904//EN"
 "http://www.w3.org/TR/2001/REC-SVG-20010904/DTD/svg10.dtd">
<svg version="1.0" xmlns="http://www.w3.org/2000/svg"
 width="1280.000000pt" height="853.000000pt" viewBox="0 0 1280.000000 853.000000"
 preserveAspectRatio="xMidYMid meet">
<metadata>
Created by potrace 1.15, written by Peter Selinger 2001-2017
</metadata>
<g transform="translate(0.000000,853.000000) scale(0.100000,-0.100000)"
fill="#f54a30" stroke="none">
<path d="M774 8193 c3 -10 28 -94 56 -188 28 -93 138 -458 245 -810 370 -1222
655 -2164 855 -2825 110 -366 223 -737 250 -825 26 -88 150 -497 275 -910 125
-412 305 -1006 400 -1320 l172 -570 1050 -3 1049 -2 17 52 c41 126 578 1820
1084 3421 92 290 170 527 174 527 4 0 10 -12 13 -27 4 -16 47 -161 96 -323 49
-162 191 -632 315 -1045 124 -412 273 -905 330 -1095 57 -190 170 -563 250
-830 81 -267 160 -529 176 -582 l30 -98 1052 0 1052 0 198 613 c109 336 247
765 308 952 61 187 209 644 329 1015 120 371 273 844 340 1050 235 725 345
1066 742 2290 219 679 422 1303 449 1386 27 83 49 154 49 157 0 4 -505 7
-1122 7 l-1123 0 -47 -54 -47 -54 -125 -443 c-69 -244 -192 -682 -274 -974
-83 -291 -236 -836 -342 -1210 -470 -1667 -473 -1680 -477 -1669 -4 12 -146
503 -423 1459 -128 440 -304 1048 -392 1350 -88 303 -207 712 -264 910 -58
198 -126 433 -152 523 l-47 162 -845 0 -845 0 -268 -857 c-923 -2951 -1111
-3552 -1113 -3550 -2 1 -73 275 -159 607 -180 697 -585 2264 -674 2610 -33
129 -110 425 -170 658 l-109 423 -47 54 -47 55 -1124 0 c-1067 0 -1125 -1
-1120 -17z"/>
</g>
</svg>
