<?xml version="1.0" standalone="no"?>
<!DOCTYPE svg PUBLIC "-//W3C//DTD SVG 20010904//EN"
 "http://www.w3.org/TR/2001/REC-SVG-20010904/DTD/svg10.dtd">
<svg version="1.0" xmlns="http://www.w3.org/2000/svg"
 width="925.000000pt" height="1280.000000pt" viewBox="0 0 925.000000 1280.000000"
 preserveAspectRatio="xMidYMid meet">
<metadata>
Created by potrace 1.15, written by Peter Selinger 2001-2017
</metadata>
<g transform="translate(0.000000,1280.000000) scale(0.100000,-0.100000)"
fill="#f8ba0f" stroke="none">
<path d="M4515 12793 c-781 -37 -1484 -207 -2095 -509 -205 -101 -325 -170
-505 -289 -1104 -731 -1664 -1783 -1665 -3125 0 -507 82 -960 247 -1365 245
-599 659 -1085 1255 -1476 349 -228 1061 -514 2233 -899 204 -67 474 -156 600
-197 541 -177 849 -335 1056 -542 77 -77 104 -112 135 -176 l39 -79 0 -156
c-1 -171 -18 -260 -74 -385 -144 -316 -495 -507 -1046 -569 -487 -54 -931 -10
-1315 131 -143 52 -375 170 -547 278 -244 152 -478 335 -768 599 -82 74 -152
136 -155 135 -3 0 -434 -531 -958 -1179 l-952 -1179 0 -84 0 -84 187 -145
c618 -474 1100 -776 1618 -1013 538 -245 1123 -386 1865 -449 1343 -114 2350
45 3300 520 624 313 1152 724 1529 1193 611 760 847 1678 715 2786 -81 684
-311 1277 -684 1770 -236 312 -554 604 -890 818 -86 55 -335 183 -490 252
-428 191 -1093 426 -1905 676 -582 179 -733 233 -971 350 -178 88 -306 172
-406 267 -137 131 -185 240 -175 393 24 338 256 565 687 674 182 46 298 58
550 58 465 0 853 -85 1249 -274 277 -132 466 -258 776 -518 92 -77 123 -97
131 -88 36 38 1976 2381 1980 2391 4 11 -370 282 -541 391 -808 518 -1592 834
-2470 994 -475 88 -1061 127 -1540 104z"/>
</g>
</svg>
