<?xml version="1.0" encoding="UTF-8"?>
<svg xmlns="http://www.w3.org/2000/svg" xmlns:xlink="http://www.w3.org/1999/xlink" width="16px" height="16px" viewBox="0 0 16 15" version="1.1">
<g id="surface1">
<path style=" stroke:none;fill-rule:nonzero;fill:rgb(100%,100%,100%);fill-opacity:1;" d="M 8.695312 5.753906 L 8.644531 5.90625 C 8.773438 6.347656 8.792969 6.820312 8.699219 7.265625 L 8.699219 7.292969 L 8.601562 7.71875 C 8.40625 8.511719 7.980469 9.238281 7.332031 9.746094 L 6.980469 10.777344 L 7.0625 9.933594 C 6.390625 10.367188 5.585938 10.550781 4.683594 10.589844 L 4.582031 14.039062 L 7.636719 14.039062 L 9.066406 9.542969 L 8.6875 14.039062 L 11.675781 14.039062 L 14.960938 5.757812 L 12.363281 5.757812 L 10.753906 10.886719 L 11.167969 5.757812 Z M 8.695312 5.753906 "/>
<path style=" stroke:none;fill-rule:nonzero;fill:rgb(100%,100%,100%);fill-opacity:1;" d="M 4.269531 9.480469 L 3.664062 9.480469 C 2.742188 9.480469 2.046875 9.3125 1.578125 8.980469 C 1.117188 8.640625 0.953125 8.164062 1.085938 7.554688 L 1.378906 6.308594 L 3.957031 6.308594 L 3.695312 7.453125 C 3.628906 7.757812 3.75 7.910156 4.058594 7.910156 C 4.332031 7.910156 4.511719 7.75 4.597656 7.421875 L 4.664062 7.144531 C 4.730469 6.921875 4.730469 6.734375 4.664062 6.585938 C 4.585938 6.429688 4.417969 6.242188 4.15625 6.019531 L 3.367188 5.328125 C 2.425781 4.558594 2.058594 3.785156 2.265625 3.015625 L 2.347656 2.667969 C 2.480469 2.097656 2.78125 1.675781 3.25 1.398438 C 3.734375 1.117188 4.421875 0.976562 5.320312 0.976562 L 5.910156 0.976562 C 6.863281 0.976562 7.539062 1.132812 7.929688 1.445312 C 8.335938 1.75 8.472656 2.167969 8.34375 2.703125 L 8.128906 3.625 L 5.617188 3.625 L 5.8125 2.769531 C 5.867188 2.53125 5.746094 2.414062 5.453125 2.414062 C 5.355469 2.414062 5.273438 2.425781 5.207031 2.457031 C 5.152344 2.484375 5.113281 2.523438 5.089844 2.566406 C 5.070312 2.613281 5.046875 2.675781 5.023438 2.753906 L 4.976562 3.011719 C 4.933594 3.183594 4.941406 3.328125 5.007812 3.445312 C 5.074219 3.558594 5.210938 3.714844 5.417969 3.914062 L 6.257812 4.625 C 6.824219 5.117188 7.210938 5.539062 7.40625 5.894531 C 7.601562 6.25 7.65625 6.632812 7.570312 7.042969 L 7.472656 7.464844 C 7.308594 8.140625 6.972656 8.644531 6.46875 8.976562 C 5.976562 9.3125 5.253906 9.480469 4.300781 9.480469 Z M 4.269531 9.480469 "/>
</g>
</svg>
