<?xml version="1.0" encoding="UTF-8" standalone="no"?>
<svg
   width="16"
   height="16"
   version="1.1"
   viewBox="0 0 4.23 4.23"
   id="svg6"
   sodipodi:docname="folder-wine-symbolic111.svg"
   inkscape:version="1.2.2 (b0a8486541, 2022-12-01)"
   xmlns:inkscape="http://www.inkscape.org/namespaces/inkscape"
   xmlns:sodipodi="http://sodipodi.sourceforge.net/DTD/sodipodi-0.dtd"
   xmlns="http://www.w3.org/2000/svg"
   xmlns:svg="http://www.w3.org/2000/svg">
  <defs
     id="defs10" />
  <sodipodi:namedview
     id="namedview8"
     pagecolor="#ffffff"
     bordercolor="#000000"
     borderopacity="0.25"
     inkscape:showpageshadow="2"
     inkscape:pageopacity="0.0"
     inkscape:pagecheckerboard="0"
     inkscape:deskcolor="#d1d1d1"
     showgrid="true"
     inkscape:zoom="32.849857"
     inkscape:cx="16.605856"
     inkscape:cy="11.735211"
     inkscape:window-width="1920"
     inkscape:window-height="1008"
     inkscape:window-x="0"
     inkscape:window-y="0"
     inkscape:window-maximized="1"
     inkscape:current-layer="svg6">
    <inkscape:grid
       type="xygrid"
       id="grid116" />
  </sodipodi:namedview>
  <path
     style="color:#000000;-inkscape-font-specification:'Druk Cyr, Heavy Italic';fill:#ff0000;fill-opacity:1;stroke-width:0.583977;stroke-linejoin:round;stroke-miterlimit:50;-inkscape-stroke:none;paint-order:markers stroke fill"
     d="m 2.3032359,1.6840684 -0.013943,0.037604 c 0.034857,0.1071058 0.040088,0.2219567 0.014817,0.3303406 v 0.00753 l -0.026145,0.1030452 v 0 C 2.2265485,2.3564041 2.1130011,2.5332328 1.9416735,2.6562062 L 1.8475579,2.9076459 1.8702146,2.7025383 C 1.691484,2.8076885 1.4776287,2.8522131 1.2385049,2.8619917 L 1.2114909,3.7020561 H 2.0220257 L 2.4011024,2.6067146 2.300888,3.7020561 H 3.0939948 L 3.9654424,1.6848933 H 3.2769957 L 2.8499018,2.9347992 2.9589176,1.6848933 Z"
     id="path1381" />
  <path
     style="color:#000000;-inkscape-font-specification:'Druk Cyr, Heavy Italic';fill:#ffffff;fill-opacity:1;stroke-width:0.583977;stroke-linejoin:bevel;stroke-miterlimit:50;-inkscape-stroke:none;paint-order:markers stroke fill"
     d="M 1.1286966,2.5920477 H 0.9674795 q -0.36609452,0 -0.55345509,-0.1219952 Q 0.23101971,2.3453493 0.28330695,2.1230148 l 0.0784302,-0.303713 H 1.0459102 L 0.9761955,2.0985725 q -0.0261447,0.1111653 0.0958581,0.1111653 0.1089299,0 0.1437893,-0.1192879 l 0.017427,-0.067692 q 0.026145,-0.081308 0,-0.1355372 Q 1.2027685,1.830058 1.0981961,1.7489016 L 0.88896242,1.5807996 Q 0.51423744,1.2988212 0.59702397,1.0169207 L 0.61881187,0.9328305 Q 0.67109916,0.72403763 0.8584593,0.62377667 1.0501796,0.52073397 1.4075589,0.52073397 h 0.1568609 q 0.3790809,0 0.5359417,0.11387318 0.1613071,0.11116525 0.1090198,0.30634637 L 2.1527384,1.1659955 H 1.4859889 l 0.052287,-0.20871916 q 0.021788,-0.0867972 -0.095859,-0.0867972 -0.039215,0 -0.065359,0.0105287 -0.021788,0.0105288 -0.030497,0.0270751 -0.00871,0.0165508 -0.017427,0.0458806 l -0.013069,0.0624292 q -0.017431,0.062426 0.00871,0.1057502 0.026144,0.040613 0.1089298,0.1138731 L 1.655931,1.4095366 q 0.2265799,0.1789322 0.3050105,0.3090539 0.078431,0.1301183 0.043571,0.2792673 L 1.9783647,2.1009005 Q 1.9130061,2.3476031 1.712574,2.4695988 1.5164978,2.591598 1.1373314,2.591598 Z"
     id="path1375" />
</svg>
