<svg width="121" height="120" viewBox="0 0 121 120" fill="none" xmlns="http://www.w3.org/2000/svg">
<rect x="0.595703" width="120" height="120" rx="20" fill="#292929"/>
<path d="M36.1315 62.6791C36.1315 69.1664 38.7086 75.3879 43.2957 79.975C47.8829 84.5622 54.1044 87.1392 60.5916 87.1392C67.0789 87.1392 73.3004 84.5622 77.8876 79.975C82.4747 75.3879 85.0518 69.1664 85.0518 62.6791C85.0518 62.6791 81.8707 66.1757 76.8701 66.7275C66.8688 67.831 55.1242 59.1466 45.1229 60.2501C40.1222 60.8019 36.1315 62.6791 36.1315 62.6791Z" fill="#61D0FF"/>
<path d="M85.0516 62.679C85.0516 69.1663 82.4745 75.3878 77.8874 79.9749C73.3002 84.5621 67.0787 87.1392 60.5915 87.1392C54.1042 87.1392 47.8827 84.5621 43.2956 79.9749C38.7084 75.3878 36.1313 69.1663 36.1313 62.679C36.1313 62.679 39.3124 66.1756 44.313 66.7274C54.3144 67.8309 62.7595 57.0112 72.8215 57.0113C83.5981 57.0114 85.0516 62.679 85.0516 62.679Z" fill="url(#paint0_linear_14_7)"/>
<path d="M44.614 30.5583C43.81 28.9804 41.8706 28.3418 40.3653 29.2745C33.9846 33.2281 28.8809 38.9803 25.7187 45.8395C22.1076 53.6726 21.2388 62.4934 23.2524 70.8805C25.266 79.2676 30.0446 86.7325 36.8183 92.0725C43.592 97.4124 51.9662 100.316 60.5916 100.316C69.217 100.316 77.5912 97.4124 84.3649 92.0725C91.1386 86.7325 95.9172 79.2676 97.9308 70.8805C99.9443 62.4934 99.0756 53.6726 95.4645 45.8395C92.3023 38.9802 87.1985 33.2281 80.8179 29.2745C79.3126 28.3418 77.3732 28.9804 76.5692 30.5582V30.5582C75.7653 32.1361 76.4035 34.0537 77.8929 35.0115C82.9967 38.2935 87.0818 42.9737 89.6407 48.5243C92.6487 55.0493 93.3724 62.397 91.6951 69.3834C90.0178 76.3699 86.0372 82.5882 80.3948 87.0364C74.7523 91.4845 67.7766 93.9035 60.5916 93.9035C53.4066 93.9035 46.4309 91.4845 40.7884 87.0364C35.1459 82.5882 31.1653 76.3699 29.4881 69.3834C27.8108 62.397 28.5344 55.0493 31.5425 48.5243C34.1013 42.9738 38.1864 38.2935 43.2902 35.0115C44.7797 34.0537 45.4179 32.1361 44.614 30.5583V30.5583Z" fill="url(#paint1_linear_14_7)"/>
<rect x="56.4419" y="19.9232" width="8.2992" height="24.8976" rx="4.1496" fill="#61D0FF"/>
<defs>
<linearGradient id="paint0_linear_14_7" x1="67.5048" y1="87.1393" x2="63.121" y2="55.4736" gradientUnits="userSpaceOnUse">
<stop stop-color="#61D0FF"/>
<stop offset="1" stop-color="#0046D9"/>
</linearGradient>
<linearGradient id="paint1_linear_14_7" x1="71.4449" y1="23.5156" x2="53.8413" y2="101.826" gradientUnits="userSpaceOnUse">
<stop stop-color="#61D0FF"/>
<stop offset="1" stop-color="#0046D9"/>
</linearGradient>
</defs>
</svg>
