<svg width="443" height="82" viewBox="0 0 443 82" fill="none" xmlns="http://www.w3.org/2000/svg">
<path d="M15.5358 43.6791C15.5358 50.1664 18.1129 56.3879 22.7 60.975C27.2872 65.5622 33.5087 68.1392 39.9959 68.1392C46.4832 68.1392 52.7047 65.5622 57.2919 60.975C61.879 56.3879 64.4561 50.1664 64.4561 43.6791C64.4561 43.6791 61.275 47.1757 56.2744 47.7275C46.2731 48.831 34.5285 40.1466 24.5272 41.2501C19.5265 41.8019 15.5358 43.6791 15.5358 43.6791Z" fill="#61D0FF"/>
<path d="M64.4559 43.6791C64.4559 50.1663 61.8788 56.3878 57.2917 60.975C52.7045 65.5621 46.483 68.1392 39.9958 68.1392C33.5085 68.1392 27.287 65.5621 22.6998 60.975C18.1127 56.3878 15.5356 50.1663 15.5356 43.6791C15.5356 43.6791 18.7167 47.1757 23.7173 47.7274C33.7186 48.831 42.1638 38.0112 52.2258 38.0114C63.0024 38.0115 64.4559 43.6791 64.4559 43.6791Z" fill="url(#paint0_linear_11_84)"/>
<path d="M24.0182 11.5582C23.2143 9.98035 21.2749 9.34172 19.7696 10.2744C13.3889 14.2281 8.28519 19.9802 5.12302 26.8395C1.51191 34.6726 0.643142 43.4933 2.6567 51.8804C4.67027 60.2675 9.44889 67.7325 16.2226 73.0724C22.9962 78.4124 31.3705 81.3163 39.9959 81.3163C48.6213 81.3163 56.9955 78.4123 63.7692 73.0724C70.5429 67.7325 75.3215 60.2675 77.3351 51.8804C79.3486 43.4933 78.4799 34.6726 74.8688 26.8395C71.7066 19.9802 66.6028 14.2281 60.2222 10.2744C58.7169 9.34172 56.7775 9.98034 55.9735 11.5582V11.5582C55.1696 13.136 55.8078 15.0537 57.2972 16.0115C62.401 19.2935 66.4861 23.9737 69.045 29.5243C72.053 36.0492 72.7767 43.3969 71.0994 50.3834C69.4221 57.3698 65.4415 63.5881 59.7991 68.0363C54.1566 72.4845 47.1809 74.9034 39.9959 74.9035C32.8109 74.9035 25.8352 72.4845 20.1927 68.0363C14.5502 63.5881 10.5696 57.3698 8.89235 50.3834C7.21505 43.3969 7.93873 36.0492 10.9468 29.5243C13.5056 23.9737 17.5907 19.2935 22.6945 16.0115C24.184 15.0537 24.8222 13.136 24.0182 11.5582V11.5582Z" fill="url(#paint1_linear_11_84)"/>
<rect x="35.8462" y="0.923218" width="8.2992" height="24.8976" rx="4.1496" fill="#61D0FF"/>
<path d="M133.48 24.2999L129.28 28.3799C128.4 27.1799 127.22 26.2199 125.74 25.4999C124.3 24.7799 122.72 24.4199 121 24.4199C118.84 24.4199 116.92 25.0199 115.24 26.2199C113.56 27.3799 112.72 29.0799 112.72 31.3199C112.72 32.4399 112.92 33.3999 113.32 34.1999C113.72 34.9599 114.4 35.6399 115.36 36.2399C116.32 36.7999 117.18 37.2399 117.94 37.5599C118.7 37.8399 119.86 38.2399 121.42 38.7599C122.98 39.2399 124.16 39.6399 124.96 39.9599C125.8 40.2399 126.88 40.7399 128.2 41.4599C129.52 42.1799 130.52 42.9399 131.2 43.7399C131.92 44.4999 132.54 45.5199 133.06 46.7999C133.62 48.0799 133.9 49.5399 133.9 51.1799C133.9 55.3399 132.46 58.5399 129.58 60.7799C126.74 62.9799 123.28 64.0799 119.2 64.0799C116.44 64.0799 113.8 63.5599 111.28 62.5199C108.8 61.4399 106.78 59.8999 105.22 57.8999L109.84 53.9999C110.84 55.4799 112.18 56.6799 113.86 57.5999C115.58 58.5199 117.4 58.9799 119.32 58.9799C121.56 58.9799 123.54 58.3599 125.26 57.1199C126.98 55.8399 127.84 54.0399 127.84 51.7199C127.84 50.7199 127.64 49.8199 127.24 49.0199C126.84 48.2199 126.4 47.5799 125.92 47.0999C125.44 46.6199 124.66 46.1399 123.58 45.6599C122.5 45.1399 121.62 44.7599 120.94 44.5199C120.3 44.2799 119.24 43.9399 117.76 43.4999C116.16 42.9799 114.8 42.4799 113.68 41.9999C112.6 41.4799 111.46 40.7799 110.26 39.8999C109.1 38.9799 108.22 37.8199 107.62 36.4199C107.02 35.0199 106.72 33.3999 106.72 31.5599C106.72 28.8799 107.46 26.5999 108.94 24.7199C110.42 22.7999 112.22 21.4399 114.34 20.6399C116.5 19.8399 118.82 19.4399 121.3 19.4399C123.74 19.4399 126.04 19.8799 128.2 20.7599C130.4 21.6399 132.16 22.8199 133.48 24.2999Z" fill="#292929"/>
<path d="M156.863 25.7399V62.9999H150.923V25.7399H137.303V20.5199H170.483V25.7399H156.863Z" fill="#292929"/>
<path d="M179.169 52.5599L174.909 62.9999H168.309L186.729 20.5199H192.129L210.369 62.9999H203.649L199.329 52.5599H179.169ZM189.249 27.4199L181.269 47.3399H197.169L189.249 27.4199Z" fill="#292929"/>
<path d="M222.365 44.0999V62.9999H216.425V20.5199H230.045C234.525 20.5199 238.165 21.4599 240.965 23.3399C243.765 25.2199 245.165 28.1999 245.165 32.2799C245.165 35.3199 244.225 37.8199 242.345 39.7799C240.465 41.7399 237.965 42.9799 234.845 43.4999L246.725 62.9999H239.525L228.725 44.0999H222.365ZM222.365 25.5599V39.1199H229.205C235.845 39.1199 239.165 36.8399 239.165 32.2799C239.165 27.7999 235.985 25.5599 229.625 25.5599H222.365Z" fill="#292929"/>
<path d="M268.057 25.7399V62.9999H262.117V25.7399H248.497V20.5199H281.677V25.7399H268.057Z" fill="#292929"/>
<path d="M289.797 20.5199L299.157 54.3599H299.277L309.237 20.5199H315.777L325.677 54.3599H325.797L335.157 20.5199H341.457L328.977 62.9999H322.797L312.477 28.8599H312.357L302.037 62.9999H295.857L283.377 20.5199H289.797Z" fill="#292929"/>
<path d="M353.774 20.5199V62.9999H347.834V20.5199H353.774Z" fill="#292929"/>
<path d="M372.463 20.5199L394.663 54.4799H394.783V20.5199H400.723V62.9999H393.223L370.783 28.3199H370.663V62.9999H364.723V20.5199H372.463Z" fill="#292929"/>
<path d="M417.611 43.5599V57.7199H439.811V62.9999H411.671V20.5199H438.911V25.7399H417.611V38.4599H437.651V43.5599H417.611Z" fill="#292929"/>
<defs>
<linearGradient id="paint0_linear_11_84" x1="46.9091" y1="68.1393" x2="42.5253" y2="36.4737" gradientUnits="userSpaceOnUse">
<stop stop-color="#61D0FF"/>
<stop offset="1" stop-color="#0046D9"/>
</linearGradient>
<linearGradient id="paint1_linear_11_84" x1="50.8492" y1="4.51551" x2="33.2455" y2="82.826" gradientUnits="userSpaceOnUse">
<stop stop-color="#61D0FF"/>
<stop offset="1" stop-color="#0046D9"/>
</linearGradient>
</defs>
</svg>
